<?xml version="1.0" encoding="UTF-8"?> <svg xmlns="http://www.w3.org/2000/svg" width="1920" height="932" viewBox="0 0 1920 932" fill="none"><g clip-path="url(#clip0_51_15)"><path d="M475.817 660.738C448.832 599.287 519.232 618.099 566.664 597.265C614.096 576.458 650.722 476.662 677.68 538.141C704.665 599.592 707.353 655.917 649.032 693.431C598.137 726.179 502.775 722.189 475.789 660.738H475.817Z" stroke="#FF6400" stroke-width="1.5" stroke-miterlimit="10"></path><path d="M288.888 569.587C270.907 409.615 403.312 485.944 525.383 472.063C647.454 458.183 814.158 272.666 832.139 432.638C850.12 592.61 778.806 727.758 649.31 751.64C525.133 774.553 306.869 729.559 288.888 569.587Z" stroke="#B24B08" stroke-width="1.5" stroke-miterlimit="10"></path><path d="M101.93 478.408C92.9257 219.915 287.364 353.789 484.045 346.834C680.727 339.908 977.565 68.6427 986.569 327.136C995.574 585.629 849.898 798.048 649.531 809.85C451.741 821.487 110.907 736.901 101.93 478.408Z" stroke="#663211" stroke-width="1.5" stroke-miterlimit="10"></path><path d="M-85 387.257C-85 30.2704 171.471 221.661 442.736 221.661C714.001 221.661 1141 -135.326 1141 221.661C1141 578.647 921.073 868.06 649.78 868.06C378.487 868.06 -85 744.271 -85 387.257Z" stroke="#191919" stroke-width="1.5" stroke-miterlimit="10"></path></g><defs><clipPath id="clip0_51_15"><rect width="1920" height="932" fill="white"></rect></clipPath></defs></svg> 