<?xml version="1.0" encoding="UTF-8"?> <svg xmlns="http://www.w3.org/2000/svg" width="1920" height="932" viewBox="0 0 1920 932" fill="none"><g clip-path="url(#clip0_52_28)"><path d="M1330.29 659.982C1303.48 598.917 1373.43 617.611 1420.57 596.907C1467.7 576.231 1504.1 477.063 1530.89 538.155C1557.7 599.22 1560.37 655.191 1502.42 692.469C1451.84 725.011 1357.08 721.047 1330.27 659.982H1330.29Z" stroke="#0064FF" stroke-width="1.5" stroke-miterlimit="10"></path><path d="M1144.54 569.403C1126.67 410.437 1258.24 486.286 1379.55 472.493C1500.85 458.699 1666.51 274.349 1684.38 433.315C1702.24 592.282 1631.38 726.58 1502.7 750.313C1379.3 773.081 1162.41 728.37 1144.54 569.403Z" stroke="#084BB2" stroke-width="1.5" stroke-miterlimit="10"></path><path d="M958.754 478.798C949.807 221.929 1143.02 354.961 1338.47 348.051C1533.91 341.14 1828.89 71.6074 1837.83 328.476C1846.78 585.344 1702.02 796.428 1502.91 808.157C1306.37 819.72 967.674 735.666 958.754 478.798Z" stroke="#113266" stroke-width="1.5" stroke-miterlimit="10"></path><path d="M773 388.219C773 33.4762 1027.86 223.664 1297.42 223.664C1566.98 223.664 1991.29 -131.079 1991.29 223.664C1991.29 578.406 1772.75 866 1503.16 866C1233.57 866 773 742.989 773 388.219Z" stroke="#191919" stroke-width="1.5" stroke-miterlimit="10"></path></g><defs><clipPath id="clip0_52_28"><rect width="1920" height="932" fill="white"></rect></clipPath></defs></svg> 