<?xml version="1.0" encoding="UTF-8"?> <svg xmlns="http://www.w3.org/2000/svg" width="214" height="202" viewBox="0 0 214 202" fill="none"><path d="M169.159 171.524C130.515 200.376 95.4627 202.555 65.7885 200.376C37.6053 198.318 -19.421 177.133 8.4933 108.457C59.2132 -16.3309 163.366 -25.8339 202.573 46.0016C230.463 97.1167 191.843 154.6 169.184 171.499L169.159 171.524Z" stroke="#FF234B" stroke-width="1.5" stroke-miterlimit="10"></path><path d="M88.888 139.12C87.744 139.12 86.876 138.864 86.284 138.352C85.7 137.84 85.408 137.128 85.408 136.216H86.908C86.908 136.784 87.092 137.208 87.46 137.488C87.836 137.76 88.34 137.896 88.972 137.896C89.54 137.896 89.976 137.796 90.28 137.596C90.592 137.396 90.748 137.088 90.748 136.672C90.748 136.384 90.672 136.156 90.52 135.988C90.376 135.812 90.172 135.672 89.908 135.568C89.644 135.456 89.264 135.336 88.768 135.208C88.696 135.2 88.608 135.18 88.504 135.148C87.864 134.988 87.348 134.816 86.956 134.632C86.564 134.448 86.256 134.204 86.032 133.9C85.808 133.596 85.696 133.196 85.696 132.7C85.696 131.972 85.976 131.42 86.536 131.044C87.096 130.668 87.84 130.48 88.768 130.48C89.488 130.48 90.08 130.588 90.544 130.804C91.016 131.012 91.364 131.3 91.588 131.668C91.812 132.036 91.924 132.46 91.924 132.94H90.46C90.46 132.548 90.304 132.244 89.992 132.028C89.688 131.804 89.256 131.692 88.696 131.692C88.24 131.692 87.876 131.768 87.604 131.92C87.332 132.064 87.196 132.312 87.196 132.664C87.196 132.92 87.264 133.128 87.4 133.288C87.544 133.44 87.736 133.564 87.976 133.66C88.224 133.748 88.576 133.852 89.032 133.972C89.04 133.972 89.044 133.972 89.044 133.972C89.1 133.98 89.152 133.992 89.2 134.008C89.904 134.184 90.46 134.356 90.868 134.524C91.276 134.692 91.604 134.936 91.852 135.256C92.108 135.568 92.236 135.988 92.236 136.516C92.236 137.316 91.948 137.952 91.372 138.424C90.796 138.888 89.968 139.12 88.888 139.12Z" fill="#FF6400"></path><path d="M95.6774 140.236L94.2494 140.632V139.756L95.7134 139.336L100.645 140.104V141.148L95.6774 140.236ZM97.4414 139.12C96.5694 139.12 95.8054 138.936 95.1494 138.568C94.5014 138.2 93.9974 137.692 93.6374 137.044C93.2854 136.388 93.1094 135.636 93.1094 134.788C93.1094 133.948 93.2854 133.204 93.6374 132.556C93.9974 131.9 94.5014 131.392 95.1494 131.032C95.8054 130.664 96.5694 130.48 97.4414 130.48C98.3054 130.48 99.0614 130.664 99.7094 131.032C100.357 131.392 100.857 131.9 101.209 132.556C101.561 133.204 101.737 133.948 101.737 134.788C101.737 135.636 101.561 136.388 101.209 137.044C100.857 137.692 100.357 138.2 99.7094 138.568C99.0614 138.936 98.3054 139.12 97.4414 139.12ZM97.4414 137.812C98.0174 137.812 98.5174 137.696 98.9414 137.464C99.3654 137.224 99.6894 136.88 99.9134 136.432C100.145 135.976 100.261 135.436 100.261 134.812C100.261 134.188 100.145 133.648 99.9134 133.192C99.6894 132.736 99.3654 132.388 98.9414 132.148C98.5174 131.908 98.0174 131.788 97.4414 131.788C96.8574 131.788 96.3494 131.908 95.9174 132.148C95.4934 132.388 95.1654 132.74 94.9334 133.204C94.7014 133.66 94.5854 134.196 94.5854 134.812C94.5854 135.436 94.7014 135.976 94.9334 136.432C95.1654 136.88 95.4934 137.224 95.9174 137.464C96.3494 137.696 96.8574 137.812 97.4414 137.812Z" fill="#FF6400"></path><path d="M106.522 139.12C105.658 139.12 104.97 138.964 104.458 138.652C103.946 138.332 103.582 137.904 103.366 137.368C103.158 136.832 103.054 136.208 103.054 135.496V130.6H104.494V135.388C104.494 135.9 104.554 136.34 104.674 136.708C104.802 137.068 105.014 137.352 105.31 137.56C105.606 137.76 106.01 137.86 106.522 137.86C107.034 137.86 107.438 137.76 107.734 137.56C108.03 137.352 108.238 137.068 108.358 136.708C108.478 136.34 108.538 135.9 108.538 135.388V130.6H109.978V135.496C109.978 136.208 109.874 136.832 109.666 137.368C109.458 137.904 109.098 138.332 108.586 138.652C108.074 138.964 107.386 139.12 106.522 139.12Z" fill="#FF6400"></path><path d="M113.334 131.452C113.422 131.204 113.522 131.012 113.634 130.876C113.754 130.732 113.882 130.636 114.018 130.588C114.162 130.532 114.334 130.504 114.534 130.504C114.734 130.504 114.902 130.532 115.038 130.588C115.174 130.636 115.298 130.732 115.41 130.876C115.53 131.012 115.634 131.204 115.722 131.452L118.506 139H116.994L114.534 131.896L112.05 139H110.538L113.334 131.452ZM112.122 135.736H116.91V136.96H112.122V135.736Z" fill="#FF6400"></path><path d="M119.629 130.6H122.197C123.021 130.6 123.797 130.732 124.525 130.996C125.261 131.26 125.869 131.704 126.349 132.328C126.829 132.952 127.069 133.772 127.069 134.788C127.069 135.844 126.829 136.688 126.349 137.32C125.869 137.944 125.265 138.38 124.537 138.628C123.809 138.876 123.029 139 122.197 139H119.629V130.6ZM122.425 137.704C122.937 137.704 123.429 137.624 123.901 137.464C124.373 137.304 124.773 137.012 125.101 136.588C125.429 136.164 125.593 135.58 125.593 134.836C125.593 134.084 125.429 133.492 125.101 133.06C124.773 132.62 124.369 132.316 123.889 132.148C123.417 131.98 122.929 131.896 122.425 131.896H121.069V137.704H122.425Z" fill="#FF6400"></path><path d="M131.404 139.12C130.26 139.12 129.392 138.864 128.8 138.352C128.216 137.84 127.924 137.128 127.924 136.216H129.424C129.424 136.784 129.608 137.208 129.976 137.488C130.352 137.76 130.856 137.896 131.488 137.896C132.056 137.896 132.492 137.796 132.796 137.596C133.108 137.396 133.264 137.088 133.264 136.672C133.264 136.384 133.188 136.156 133.036 135.988C132.892 135.812 132.688 135.672 132.424 135.568C132.16 135.456 131.78 135.336 131.284 135.208C131.212 135.2 131.124 135.18 131.02 135.148C130.38 134.988 129.864 134.816 129.472 134.632C129.08 134.448 128.772 134.204 128.548 133.9C128.324 133.596 128.212 133.196 128.212 132.7C128.212 131.972 128.492 131.42 129.052 131.044C129.612 130.668 130.356 130.48 131.284 130.48C132.004 130.48 132.596 130.588 133.06 130.804C133.532 131.012 133.88 131.3 134.104 131.668C134.328 132.036 134.44 132.46 134.44 132.94H132.976C132.976 132.548 132.82 132.244 132.508 132.028C132.204 131.804 131.772 131.692 131.212 131.692C130.756 131.692 130.392 131.768 130.12 131.92C129.848 132.064 129.712 132.312 129.712 132.664C129.712 132.92 129.78 133.128 129.916 133.288C130.06 133.44 130.252 133.564 130.492 133.66C130.74 133.748 131.092 133.852 131.548 133.972C131.556 133.972 131.56 133.972 131.56 133.972C131.616 133.98 131.668 133.992 131.716 134.008C132.42 134.184 132.976 134.356 133.384 134.524C133.792 134.692 134.12 134.936 134.368 135.256C134.624 135.568 134.752 135.988 134.752 136.516C134.752 137.316 134.464 137.952 133.888 138.424C133.312 138.888 132.484 139.12 131.404 139.12Z" fill="#FF6400"></path><g clip-path="url(#clip0_46_221)"><path d="M76.3247 89.5488C75.9656 89.1759 75.4792 88.9772 74.9183 88.9772C74.417 88.9772 73.9719 89.1677 73.6294 89.526C73.3216 89.8501 73.1231 90.2378 73.0387 90.6775L68.6491 107.959L68.6425 107.993C68.6044 108.202 68.4985 108.362 68.3099 108.497C68.1031 108.647 67.8748 108.72 67.6133 108.72C67.4198 108.72 67.2344 108.65 67.0475 108.506C66.8572 108.362 66.7331 108.179 66.6702 107.948L62.0391 91.4511C61.9084 90.9772 61.6387 90.6026 61.2383 90.3404C60.861 90.0928 60.4027 89.9658 59.8799 89.9658C58.7514 89.9658 57.9688 90.4869 57.6727 91.4495L53.0911 107.936C53.0299 108.135 52.9025 108.303 52.6974 108.451C52.4905 108.601 52.2788 108.674 52.0488 108.674C51.8188 108.674 51.6434 108.609 51.4697 108.469C51.2893 108.322 51.1702 108.138 51.109 107.917L46.8071 90.3941C46.7144 89.9886 46.496 89.6482 46.1585 89.3811C45.8193 89.114 45.4222 88.9788 44.9755 88.9788C44.3732 88.9788 43.8686 89.1873 43.4731 89.5961C43.0611 90.026 42.9139 90.5765 43.0495 91.2036L47.8246 110.896C48.0447 111.837 48.551 112.601 49.3253 113.164C50.0881 113.72 50.9865 114 51.9958 114C53.0051 114 53.9515 113.718 54.7143 113.164C55.482 112.607 55.9999 111.868 56.258 110.964L59.8766 97.9462L63.4951 110.967C63.7499 111.865 64.2595 112.604 65.009 113.16C65.7569 113.717 66.6487 114 67.6613 114C68.6739 114 69.6253 113.71 70.4046 113.14C71.1938 112.562 71.7051 111.809 71.9252 110.906L76.7929 91.5081C76.8393 91.3599 76.8608 91.1726 76.8608 90.9381C76.8608 90.3892 76.6821 89.9234 76.328 89.5521L76.3247 89.5488Z" fill="#191919"></path><path d="M100.616 96.1743C101.598 95.4805 102.411 94.6157 103.041 93.5945C103.855 92.2753 104.269 90.7964 104.269 89.1971C104.269 87.5977 103.842 86.031 102.998 84.6189C102.158 83.2117 101.006 82.0798 99.5765 81.2525C98.142 80.4218 96.5619 80.0016 94.8775 80.0016H84.1807C83.3667 80.0016 82.6833 80.259 82.1472 80.7655C81.6062 81.2785 81.3315 81.9332 81.3315 82.7117V111.292C81.3315 112.07 81.6062 112.725 82.1472 113.238C82.6817 113.744 83.3667 114.002 84.1807 114.002H95.642C97.4537 114.002 99.1364 113.565 100.647 112.707C102.158 111.849 103.366 110.666 104.239 109.195C105.113 107.723 105.556 106.088 105.556 104.336C105.556 102.414 105.008 100.656 103.93 99.1124C103.053 97.8583 101.941 96.8746 100.614 96.1759L100.616 96.1743ZM85.3588 94.5717V83.728H94.8792C95.8521 83.728 96.7687 83.9788 97.601 84.4723C98.4382 84.9691 99.1116 85.6466 99.603 86.4854C100.093 87.3225 100.341 88.2345 100.341 89.1971C100.341 90.1596 100.086 91.057 99.5848 91.8762C99.0785 92.702 98.3968 93.3648 97.5596 93.8486C96.7274 94.329 95.8256 94.5717 94.8808 94.5717H85.3604H85.3588ZM95.642 110.272H85.3588V98.3469H95.642C96.7141 98.3469 97.7201 98.614 98.6318 99.1417C99.5451 99.671 100.281 100.402 100.819 101.318C101.355 102.233 101.628 103.248 101.628 104.334C101.628 105.42 101.357 106.389 100.819 107.303C100.281 108.218 99.5451 108.951 98.6301 109.479C97.7201 110.007 96.7141 110.274 95.6403 110.274L95.642 110.272Z" fill="#191919"></path><path d="M122.765 89.0081C122.405 88.6759 121.923 88.5081 121.334 88.5081H119.853C117.049 88.5081 114.873 89.2443 113.362 90.6987L113.339 89.4283L113.273 89.311C113.069 88.9446 112.654 88.5081 111.83 88.5081C111.266 88.5081 110.796 88.6889 110.434 89.0439C110.071 89.4006 109.889 89.8469 109.889 90.3713V112.182C109.889 112.707 110.083 113.163 110.447 113.498C110.806 113.831 111.273 113.998 111.83 113.998C112.388 113.998 112.851 113.834 113.225 113.508C113.614 113.169 113.819 112.712 113.819 112.181V98.3143C113.819 96.3338 114.325 94.7817 115.321 93.7003C116.306 92.6335 117.83 92.0928 119.852 92.0928H121.427C121.96 92.0928 122.413 91.912 122.775 91.557C123.133 91.2068 123.32 90.7638 123.32 90.2768C123.32 89.7899 123.128 89.3453 122.762 89.0081H122.765Z" fill="#191919"></path><path d="M136.998 88.9788H128.45C127.893 88.9788 127.428 89.1466 127.067 89.4788C126.702 89.8159 126.51 90.254 126.51 90.7475C126.51 91.272 126.703 91.728 127.067 92.0635C127.426 92.3957 127.909 92.5651 128.498 92.5651H136.856C137.87 92.5651 138.667 92.9234 139.295 93.6612C139.946 94.4299 140.264 95.3681 140.264 96.5293V99.3192H132.703C131.336 99.3192 130.06 99.6531 128.914 100.309C127.769 100.966 126.849 101.87 126.182 102.998C125.514 104.129 125.176 105.368 125.176 106.682C125.176 107.997 125.515 109.231 126.185 110.345C126.852 111.456 127.77 112.352 128.915 113.008C130.062 113.666 131.338 113.998 132.706 113.998H141.588C142.306 113.998 142.925 113.757 143.429 113.282C143.939 112.8 144.197 112.192 144.197 111.477V96.3876C144.197 94.3094 143.512 92.5391 142.16 91.1238C140.799 89.6987 139.065 88.9772 137.003 88.9772L136.998 88.9788ZM140.262 103V110.319H132.701C131.73 110.319 130.899 109.964 130.158 109.233C129.417 108.503 129.056 107.669 129.056 106.682C129.056 105.695 129.417 104.814 130.158 104.085C130.899 103.355 131.731 103 132.701 103H140.262Z" fill="#191919"></path><path d="M151.371 88.9788C150.807 88.9788 150.337 89.1596 149.975 89.5147C149.612 89.8713 149.43 90.3176 149.43 90.842V112.182C149.43 112.707 149.624 113.163 149.988 113.498C150.347 113.831 150.814 114 151.371 114C151.929 114 152.39 113.835 152.766 113.51C153.155 113.171 153.36 112.713 153.36 112.182V90.842C153.36 90.3192 153.16 89.8567 152.779 89.5033C152.404 89.1547 151.929 88.9788 151.371 88.9788Z" fill="#191919"></path><path d="M176.901 92.969C176.168 91.6954 175.166 90.7003 173.92 90.0114C172.677 89.3257 171.309 88.9772 169.851 88.9772H161.352C160.561 88.9772 159.904 89.2394 159.399 89.7557C158.9 90.2671 158.646 90.8843 158.646 91.5928V112.135C158.646 112.63 158.838 113.068 159.214 113.438C159.586 113.805 160.059 113.998 160.587 113.998C161.152 113.998 161.63 113.809 162.007 113.438C162.384 113.067 162.576 112.596 162.576 112.041V92.5635H169.851C171.097 92.5635 172.085 92.9869 172.874 93.8599C173.668 94.7394 174.07 95.9218 174.07 97.3746V112.135C174.07 112.63 174.262 113.068 174.638 113.438C175.01 113.805 175.483 113.998 176.011 113.998C176.539 113.998 177.004 113.814 177.396 113.449C177.792 113.083 178 112.627 178 112.135V97.3746C178 95.7198 177.631 94.2378 176.901 92.969Z" fill="#191919"></path></g><defs><clipPath id="clip0_46_221"><rect width="135" height="34" fill="white" transform="translate(43 80)"></rect></clipPath></defs></svg> 