<?xml version="1.0" encoding="UTF-8"?> <svg xmlns="http://www.w3.org/2000/svg" width="1920" height="932" viewBox="0 0 1920 932" fill="none"><g clip-path="url(#clip0_51_2)"><path d="M1150.72 692.183C1119.5 621.1 1200.94 642.86 1255.81 618.76C1310.67 594.692 1353.04 479.254 1384.22 550.369C1415.44 621.452 1418.55 686.606 1351.09 730C1292.21 767.881 1181.9 763.266 1150.69 692.183H1150.72Z" stroke="#FF234B" stroke-width="1.5" stroke-miterlimit="10"></path><path d="M934.491 586.744C913.692 401.698 1066.85 489.991 1208.05 473.934C1349.26 457.878 1542.09 243.283 1562.89 428.33C1583.69 613.376 1501.2 769.708 1351.41 797.333C1207.77 823.837 955.29 771.791 934.491 586.744Z" stroke="#B2203A" stroke-width="1.5" stroke-miterlimit="10"></path><path d="M718.229 481.274C707.813 182.264 932.728 337.121 1160.24 329.077C1387.75 321.064 1731.11 7.2803 1741.53 306.29C1751.94 605.3 1583.44 851.014 1351.66 864.667C1122.87 878.127 728.613 780.284 718.229 481.274Z" stroke="#661C2A" stroke-width="1.5" stroke-miterlimit="10"></path><path d="M502 375.835C502 -37.1062 798.67 184.283 1112.45 184.283C1426.24 184.283 1920.17 -228.658 1920.17 184.283C1920.17 597.224 1665.77 932 1351.95 932C1038.13 932 502 788.809 502 375.835Z" stroke="#191919" stroke-width="1.5" stroke-miterlimit="10"></path></g><defs><clipPath id="clip0_51_2"><rect width="1920" height="932" fill="white"></rect></clipPath></defs></svg> 