<?xml version="1.0" encoding="UTF-8"?> <svg xmlns="http://www.w3.org/2000/svg" width="200" height="60" viewBox="0 0 200 60" fill="none"><path d="M127.7 35.76C127.7 47.3 120.11 53.1 113.75 53.14C109.58 53.18 106.27 51.24 104.78 49.2V52.59H95.48V7H104.93V22.4C106.42 20.35 109.66 18.34 113.82 18.38C120.18 18.42 127.7 24.22 127.7 35.75M146.08 18.38C137.45 18.38 129.93 24.63 129.93 35.75C129.93 45.98 137.22 53.16 146.82 53.16C151.29 53.16 155.64 51.9 158.32 49.51L159.18 41.47C156.02 43.78 151.96 44.86 147.91 44.86C143.41 44.86 140.21 42.66 139.54 39.32H160.41C160.52 38.43 160.56 37.53 160.56 36.6C160.56 24.62 153.75 18.37 146.09 18.37M104.64 35.78C104.64 41.14 107.51 44.52 111.38 44.52C115.47 44.52 118.08 41.21 118.08 35.78C118.08 30.35 115.47 27.04 111.38 27.04C107.51 27.04 104.64 30.58 104.64 35.78ZM79.82 18.37C84.77 18.37 90.68 20.97 90.68 31.28V45.94C90.68 49.33 91.68 51 94.03 52.56H84.1C82.13 50.85 81.24 48.54 81.24 45.16V32.36C81.24 28.71 79.6 26.93 77 26.93C74.13 26.93 72.27 29.42 72.27 33.48V45.2C72.27 49.78 73.09 51 74.99 52.57H65.13C63.49 50.9 62.82 48.55 62.82 45.17V32.37C62.82 28.72 61.18 26.94 58.58 26.94C55.71 26.94 53.85 29.43 53.85 33.49V52.58H44.4V19.02H53.44V22.33C54.74 20.58 57.09 18.39 61.74 18.39C65.65 18.39 68.62 20.4 70.26 23.26C71.82 21.1 74.65 18.39 79.82 18.39M21.88 53.14C26.05 53.14 29.28 51.24 30.77 49.2V52.59H40.22V19.02H30.77V22.41C29.28 20.36 26.04 18.39 21.88 18.39C15.52 18.43 8 24.23 8 35.76C8 47.29 15.59 53.1 21.95 53.14H21.88ZM31.07 35.8C31.07 41.16 28.21 44.54 24.34 44.54C20.25 44.54 17.64 41.23 17.64 35.8C17.64 30.37 20.24 27.06 24.34 27.06C28.21 27.06 31.07 30.6 31.07 35.8ZM175.77 41.94H175.84L182.13 19.06H192.25L181.05 52.58H170.41L159.13 19.06H169.36L175.76 41.94H175.77ZM145.44 26.35C148.86 26.35 150.91 29.07 151.17 32.42H139.49C139.94 28.7 142.32 26.35 145.44 26.35Z" fill="#1A2F85"></path></svg> 