<?xml version="1.0" encoding="UTF-8"?> <svg xmlns="http://www.w3.org/2000/svg" width="200" height="60" viewBox="0 0 200 60" fill="none"><path fill-rule="evenodd" clip-rule="evenodd" d="M80.0251 0H120.05C122.839 0 125.16 0.994645 127.084 2.91899C129.077 4.84334 130.072 7.23254 130.072 10.0216V50.0467C130.072 52.7675 129.077 55.1567 127.084 57.081C125.16 59.0054 122.836 60 120.05 60H80.0251C77.236 60 74.8468 59.0054 72.9224 57.081C70.9981 55.1567 70 52.7675 70 50.0467V10.0251C70 7.23596 70.9946 4.84676 72.9224 2.92241C74.8468 0.998063 77.236 0.00341778 80.0251 0.00341778V0Z" fill="#312783"></path><path fill-rule="evenodd" clip-rule="evenodd" d="M115.867 34.0504H119.121L123.103 30H118.721L115.867 34.0504ZM114.671 35.045H110.025V43.7405C110.025 46.0647 110.624 47.7908 111.752 48.9188C112.746 49.9134 114.076 50.3783 115.734 50.3783C118.058 50.3783 119.784 49.4486 120.844 47.6575H120.908V50.0467H125.024V35.045H120.379V43.8054C120.379 44.2053 120.314 44.5369 120.245 44.7351C119.716 45.9964 118.786 46.6595 117.391 46.6595C115.6 46.6595 114.671 45.3982 114.671 42.9406V35.0416V35.045ZM102.721 40.0216C99.6689 40.0216 97.3446 40.4865 95.7518 41.4811C94.0941 42.4758 93.2293 43.9387 93.2293 45.8631C93.2293 47.0594 93.6942 48.1189 94.5555 48.9837C95.5501 49.9134 96.8114 50.3783 98.3392 50.3783C100.397 50.3783 101.925 49.7152 102.984 48.4539H103.118V50.0467H107.366V41.218C107.366 39.2252 106.836 37.7008 105.838 36.5729C104.642 35.3116 102.851 34.6485 100.462 34.6485C98.0726 34.6485 95.9466 35.1134 94.3538 36.108L95.2152 39.0304C96.5414 38.234 98.0043 37.8341 99.662 37.8341C101.72 37.8341 102.714 38.4972 102.714 39.8918V40.0251L102.721 40.0216ZM91.3699 35.045H88.5158V30H84.0006V35.045H81.878V38.4972H84.0006V44.5369C84.0006 46.5945 84.4005 48.1224 85.2619 48.9837C86.1232 49.9134 87.3845 50.3783 88.9123 50.3783C89.907 50.3783 90.7034 50.245 91.4348 49.9784L91.3699 46.4612C91.2366 46.5945 90.97 46.6595 90.5051 46.6595C89.7737 46.6595 89.2439 46.3928 88.9123 45.8631C88.6457 45.4631 88.5124 44.8 88.5124 43.8054V38.4938H91.3665V35.0416L91.3699 35.045ZM97.5428 45.4666C97.5428 43.6755 99.3339 42.8791 102.854 42.9441V44.5369L102.79 45.4016C102.591 45.9998 102.191 46.4646 101.662 46.7962C101.132 47.261 100.465 47.4593 99.7372 47.4593C98.2777 47.4593 97.5463 46.7962 97.5463 45.4666H97.5428ZM74.9805 30.0034V50.0501H79.6939V30.0034H74.9805Z" fill="#FFED00"></path></svg> 