<?xml version="1.0" encoding="UTF-8"?> <svg xmlns="http://www.w3.org/2000/svg" width="200" height="60" viewBox="0 0 200 60" fill="none"><g clip-path="url(#clip0_20_757)"><path d="M67.0332 45.54C62.2288 45.54 60 48.576 60 51.5104V57.9658H63.0325V51.5104C63.0325 49.672 64.097 46.7061 67.0332 46.7061C69.9693 46.7061 71.0339 49.672 71.0339 51.5104V57.9658H74.0663V51.5104C74.0663 48.576 71.8375 45.54 67.0349 45.54H67.0332Z" fill="#EA8820"></path><path d="M112.816 52.1939C112.816 54.034 111.752 56.9999 108.817 56.9999C105.883 56.9999 104.815 54.0323 104.815 52.1939V45.7402H101.782V52.1939C101.782 55.1283 104.011 58.1643 108.817 58.1643C113.623 58.1643 115.849 55.1283 115.849 52.1939V45.7402H112.816V52.1939Z" fill="#EA8820"></path><path d="M83.6257 45.7052C80.686 45.63 76.1898 47.5594 76.3509 52.1256C76.5085 56.5955 80.7805 58.609 83.8603 58.1258C84.874 57.9682 85.6759 57.5813 86.3237 57.0753V55.9985C85.9158 56.3662 84.375 56.6673 83.2895 56.6043C79.7545 56.4012 79.4586 53.0536 79.4622 51.7036C79.4692 49.5904 80.4619 46.7347 83.5276 46.8188C86.6564 46.8993 87.2867 50.3818 87.2867 51.7369V57.9664H90.3349V51.7089C90.3349 49.5799 88.5841 45.8348 83.6239 45.7052H83.6257Z" fill="#EA8820"></path><path d="M97.7866 58.5384C97.1808 58.232 96.3474 57.2936 96.4086 54.5447C96.4769 51.4545 96.4086 47.6411 96.4086 47.6411H99.2293V45.7414H96.4086V40.3506H93.3306C93.3306 40.3506 93.3271 52.2791 93.3271 53.9162C93.3271 58.822 95.6925 59.4664 97.1177 59.8375C98.3906 60.1702 99.4884 59.9146 99.9103 59.7658V58.6767C99.758 58.7818 98.5254 58.9166 97.7866 58.5402V58.5384Z" fill="#EA8820"></path><path d="M123.025 45.691C120.276 45.9676 118.718 48.0967 118.718 51.1134V58.031H121.782V50.0489C121.782 49.4133 122.272 47.5189 123.524 47.1407C124.643 46.801 125.656 47.0882 125.656 47.0882V45.8608C125.656 45.8608 124.96 45.4967 123.025 45.6927V45.691Z" fill="#EA8820"></path><path d="M133.194 45.7052C130.258 45.63 125.76 47.5594 125.921 52.1256C126.079 56.5955 130.353 58.609 133.429 58.1258C134.443 57.9682 135.246 57.5813 135.892 57.0753V55.9985C135.486 56.3662 133.947 56.6673 132.86 56.6043C129.325 56.4012 129.031 53.0536 129.032 51.7036C129.039 49.5904 130.032 46.7347 133.096 46.8188C136.227 46.8993 136.855 50.3818 136.855 51.7369V57.9664H139.905V51.7089C139.905 49.5799 138.154 45.8348 133.192 45.7052H133.194Z" fill="#EA8820"></path><path d="M107.686 5.50124C103.697 4.2879 101.225 7.22932 100.087 10.9779C99.1678 13.9946 98.9752 14.7947 98.4255 16.3583C97.6586 18.5591 95.829 18.7289 94.4003 17.0218C92.7475 15.0364 90.6009 12.1089 89.3666 10.6732C87.7558 8.80334 83.8847 7.22757 81.9185 9.6525C78.9543 13.3205 82.8884 17.4298 84.9579 19.8897C86.3919 21.6283 88.134 22.8241 87.5685 23.8186C87.3601 24.1863 86.8979 24.3071 86.3026 24.3001C84.8599 24.2843 80.0731 22.98 78.9788 22.7734C78.0263 22.5948 77.3225 22.6596 77.0546 23.3651C76.736 24.2143 77.9265 26.6322 81.043 28.2448C84.1263 29.8275 89.125 30.6259 89.6047 30.7275C91.4116 31.1109 91.0579 31.9933 90.6324 32.4538C90.2157 32.909 89.722 33.1909 89.8288 33.6514C90.0809 34.7982 92.5409 35.0258 94.0133 35.2762C95.4473 35.5195 97.2909 35.6386 98.5848 35.1203C99.8489 34.6179 99.9207 33.9175 100.794 33.5726C101.96 33.1261 102.363 33.5253 104.872 33.9911C106.469 34.2887 109.305 33.9175 110.86 33.3975C113.773 32.424 114.969 31.4978 114.966 31.0444C114.966 30.6837 114.458 30.5471 113.94 30.4859C113.311 30.4088 111.214 30.0516 110.51 29.5929C109.797 29.1377 110.331 28.3095 111.798 27.7248C113.273 27.1417 117.998 25.1685 119.772 23.5682C121.551 21.9767 123.233 19.3312 121.736 17.7869C120.271 16.2602 117.655 17.8377 116.242 18.4855C114.342 19.3785 111.301 20.9437 110.256 21.1801C109.34 21.3849 107.626 21.3202 108.426 19.2454C109.428 16.6857 109.904 15.1046 110.512 13.5656C111.266 11.6485 112.353 6.92643 107.687 5.50124M114.873 11.1372C114.383 13.3941 113.413 15.8207 113.161 16.437C113.12 16.5333 113.148 16.5631 113.239 16.5211C113.798 16.262 116.31 15.0066 118.977 13.8703C121.643 12.748 126.586 12.7655 125.32 18.2439C124.049 23.7083 117.639 26.9421 117 27.2695C116.377 27.5899 115.605 27.9121 115.298 28.1082C115.183 28.1835 115.118 28.2763 115.328 28.3341C116.006 28.5109 118.296 28.3848 118.273 29.339C118.245 30.3773 116.568 32.0739 112.178 33.9368C107.383 35.987 103.408 35.0661 102.421 34.8315C102.388 34.8245 102.363 34.8297 102.346 34.8507C102.083 35.1309 99.8647 37.2651 93.5599 36.1796C89.0199 35.397 87.8941 34.947 86.8769 33.7284C86.567 33.373 86.3884 32.748 86.7736 31.9671C86.8734 31.7657 86.8856 31.6572 86.7508 31.6309C79.9137 30.211 75.7467 25.8864 74.2375 23.1585C73.4671 21.7719 73.7105 20.8439 74.0957 20.2644C74.6419 19.452 76.4646 19.375 78.352 19.8582C80.4548 20.401 81.6051 20.7021 82.0463 20.8212C82.1934 20.8579 82.2126 20.8142 82.1216 20.7004C81.5963 20.0438 79.7457 17.7047 78.7844 16.2094C77.2052 13.7442 75.2337 7.1873 80.3795 4.48925C86.0907 1.5128 91.0649 6.76185 92.1837 8.12751C93.1589 9.31283 95.0971 11.9531 95.2599 12.2245C95.5086 12.6412 95.6311 12.2805 95.6311 12.2805C95.6311 12.2805 96.9898 7.45168 98.1523 5.20884C100.197 1.31145 104.443 -0.546197 108.155 0.140136C115.169 1.44452 115.431 8.54421 114.871 11.1355L114.873 11.1372Z" fill="url(#paint0_linear_20_757)"></path></g><defs><linearGradient id="paint0_linear_20_757" x1="99.6266" y1="36.4843" x2="99.6266" y2="6.95881e-05" gradientUnits="userSpaceOnUse"><stop stop-color="#D4411C"></stop><stop offset="0.19" stop-color="#DC4429"></stop><stop offset="0.46" stop-color="#E77523"></stop><stop offset="0.69" stop-color="#EE991E"></stop><stop offset="0.88" stop-color="#F3AF1B"></stop><stop offset="1" stop-color="#F5B71B"></stop></linearGradient><clipPath id="clip0_20_757"><rect width="200" height="60" fill="white"></rect></clipPath></defs></svg> 