<?xml version="1.0" encoding="UTF-8"?> <svg xmlns="http://www.w3.org/2000/svg" width="200" height="60" viewBox="0 0 200 60" fill="none"><path fill-rule="evenodd" clip-rule="evenodd" d="M153.293 41.3752C147.122 41.3752 142.468 37.2377 142.468 31.7529V25.7046C142.468 19.7794 146.819 15.7952 153.293 15.7952C159.77 15.7952 164.121 19.7781 164.121 25.7046V27.6167C164.121 30.6743 162.245 31.9809 160.638 31.9809H148.984C149.131 34.5327 151.736 35.222 153.295 35.222C154.161 35.222 154.956 35.087 155.728 34.8105C155.977 34.7188 156.481 34.5759 156.737 34.5759C157.681 34.5759 158.048 35.4199 158.11 35.5431L159.591 38.4945C159.6 38.5063 160.081 39.6636 158.988 40.18C157.196 40.9761 155.255 41.3834 153.295 41.3752H153.293ZM157.61 26.0099C157.572 23.5827 156.12 21.9471 153.295 21.9471C150.468 21.9471 149.017 23.5827 148.979 26.0099H157.61ZM78.59 41.3752C72.4185 41.3752 67.7646 37.2377 67.7646 31.7529V25.7046C67.7646 19.7794 72.1158 15.7952 78.59 15.7952C85.0669 15.7952 89.4181 19.7781 89.4181 25.7046V27.6167C89.4181 30.6743 87.5413 31.9809 85.9346 31.9809H74.2808C74.4276 34.5327 77.0331 35.222 78.5914 35.222C79.4576 35.222 80.2545 35.087 81.0251 34.8105C81.2741 34.7188 81.7774 34.5759 82.0342 34.5759C82.9779 34.5759 83.3448 35.4199 83.4077 35.5431L84.8887 38.4945C84.8965 38.5063 85.3775 39.6636 84.2858 40.18C82.4934 40.9762 80.5526 41.3835 78.5914 41.3752H78.59ZM82.9071 26.0099C82.8691 23.5827 81.417 21.9471 78.5914 21.9471C75.7644 21.9471 74.3136 23.5827 74.2756 26.0099H82.9071ZM125.772 41.3752C119.599 41.3752 114.946 37.1905 114.946 31.6415V25.816C114.946 19.8227 119.297 15.7952 125.772 15.7952C132.248 15.7952 136.598 19.8227 136.598 25.816V31.6415C136.598 37.1905 131.945 41.3752 125.772 41.3752ZM125.772 21.8344C123.046 21.8344 121.666 23.048 121.666 25.4385V32.0176C121.666 34.6362 124.248 35.3334 125.772 35.3334C127.298 35.3334 129.88 34.6362 129.88 32.0176V25.4385C129.88 23.048 128.497 21.8344 125.772 21.8344ZM103.196 56C98.7376 56 94.7037 54.4273 91.84 51.5742C91.4836 51.2334 91.321 50.873 91.3617 50.5087C91.4167 50.0198 91.8204 49.7302 91.9069 49.6738L94.7849 47.6162C95.0874 47.3834 95.457 47.2547 95.8386 47.2492C96.2633 47.2492 96.6551 47.4157 97.0037 47.742C98.5817 49.1456 100.783 49.9215 103.196 49.9215C105.609 49.9215 107.812 49.1456 109.397 47.7368C109.739 47.4157 110.131 47.2492 110.554 47.2492C111.117 47.2492 111.524 47.548 111.609 47.6162L114.487 49.6738C114.573 49.7302 114.977 50.0198 115.032 50.5087C115.073 50.873 114.91 51.2334 114.548 51.5794C111.689 54.4286 107.655 56 103.196 56ZM105.758 43.0423C100.28 43.0423 96.5975 39.3477 96.5975 33.8485V5.18346C96.5975 4.53079 97.1387 4 97.8045 4H102.3C102.967 4 103.508 4.53079 103.508 5.18346V33.4278C103.508 35.1709 104.323 36.0595 105.931 36.0595H107.57C108.235 36.0595 108.778 36.589 108.778 37.2429V41.8588C108.771 42.5192 108.23 43.0488 107.57 43.0423H105.76H105.758ZM61.2733 19.1661C61.1373 18.8814 60.8927 18.6633 60.5944 18.5606L56.4346 17.1727C56.3092 17.1285 56.1771 17.1059 56.0441 17.1058C55.5408 17.1058 55.0651 17.4269 54.9196 17.9118L50.52 33.0622C50.4138 33.4341 50.2838 33.7987 50.1307 34.1539C49.7861 34.9507 49.0076 35.4854 48.195 35.4854C47.3824 35.4854 46.604 34.9507 46.2593 34.1539C46.1151 33.8249 45.9841 33.4593 45.87 33.0622L41.4704 17.9118C41.3249 17.4269 40.8492 17.1058 40.3472 17.1058C40.2138 17.1058 40.0813 17.1284 39.9554 17.1727L35.7956 18.5619C35.4986 18.6636 35.2545 18.8798 35.1177 19.1623C34.9808 19.4448 34.9626 19.7703 35.0669 20.0664L39.9908 36.4972C40.7378 38.8641 42.1912 40.6727 44.2921 41.7749C45.429 42.3567 46.6847 42.6684 47.9617 42.6858H48.4296C48.9984 42.6858 50.4964 42.5967 52.0979 41.7749C54.1988 40.674 55.6522 38.8654 56.3993 36.4972L61.3231 20.0664C61.4277 19.7718 61.4098 19.4474 61.2733 19.1661Z" fill="#2A2264"></path></svg> 