<?xml version="1.0" encoding="UTF-8"?> <svg xmlns="http://www.w3.org/2000/svg" width="200" height="60" viewBox="0 0 200 60" fill="none"><g clip-path="url(#clip0_20_549)"><path d="M13.3773 24.8425C18.6699 15.046 27.8132 4.36747 38.6105 0.796648C40.8243 0.245333 43.7759 -0.382317 45.7437 1.13592C47.4909 2.43363 47.7284 4.64737 47.3298 6.64058C46.8124 8.99851 45.1924 11.9926 42.4867 12.3658C42.0032 12.3658 41.5876 12.1961 41.2738 11.8484C40.5698 11.1614 40.6207 10.169 40.7734 9.26145C41.2144 7.38698 42.9532 5.40225 44.9549 5.13931C45.2942 4.91879 45.15 4.50318 45.0567 4.2148C44.7937 3.79919 44.4714 3.48537 43.988 3.38359C41.8251 3.12913 40.1881 4.48621 38.5257 5.63125C32.2238 10.6949 27.6521 17.2089 23.8014 23.6974C20.6631 29.5329 17.9914 35.5634 17.211 42.3743C16.8294 47.3191 18.3985 52.1622 22.792 54.5456C27.5588 57.0731 33.725 55.3598 38.5003 54.0621L42.8853 52.7135L51.3162 50.2114C59.3145 47.8789 69.323 47.353 77.1262 50.4489C81.8421 52.4167 86.7021 55.1054 89.781 59.7449C89.781 59.8637 89.781 60.0163 89.6368 59.9909C82.9447 58.1673 74.2339 56.3607 67.6012 59.5244L67.2874 59.448C65.2772 56.225 61.876 54.4353 58.3985 53.7398C47.1517 52.6542 37.9065 57.9807 27.3383 59.3039C21.9778 59.7958 16.2356 59.6262 12.4952 55.5295C6.60034 49.6431 7.29585 39.2445 10.0948 32.1452C11.0024 29.6431 12.1305 27.2089 13.3858 24.8255L13.3773 24.8425Z" fill="#E4032E"></path><path d="M28.8993 28.3542C31.6898 23.2227 35.9731 16.9632 41.9019 15.0802C43.488 14.724 45.1928 14.8682 46.4057 15.9199C48.9502 18.4644 47.9663 22.8156 47.1012 25.8097C47.1012 25.9793 47.2454 26.1744 47.415 26.1998C49.6797 26.132 51.5117 25.0717 53.1487 23.5196C56.6686 19.584 60.4345 14.4356 66.1597 15.0463C67.2284 15.2244 68.2717 15.8351 68.8315 16.836C70.2819 19.7113 68.8569 22.9004 66.8807 25.1057C66.1258 25.8351 65.1758 26.3864 64.0732 26.0471C63.6322 25.903 63.2674 25.4619 63.1063 25.0209C62.6992 23.0022 63.8781 21.1277 65.5066 20.059C65.9731 19.601 67.3811 19.9233 66.9994 18.8716C66.711 18.456 66.27 18.4051 65.8035 18.4051C63.0215 19.5671 61.2149 22.4085 59.5948 24.7834C57.5592 27.964 55.9222 31.3482 54.8366 34.9191C54.5397 36.2083 54.1665 37.8877 54.9214 39.0836C55.4812 39.8385 56.4057 40.1608 57.3556 39.9233C60.1122 38.8376 62.5295 36.6324 64.633 34.3508C69.4506 28.5747 72.0037 21.4246 78.4498 16.7257C80.4515 15.3432 83.2759 14.2829 85.6847 15.5552C86.0749 15.6994 86.3887 16.2168 86.8722 16.0217C87.2623 15.6315 87.5338 14.8088 88.3141 15.0039C90.0953 15.0378 92.1394 14.9445 93.9629 15.1226L94.0817 15.2923L93.5643 16.5306L83.5558 36.8529C83.454 37.0734 83.4286 37.3618 83.4795 37.6078C83.6491 37.8962 84.0138 37.8792 84.2853 37.7774C85.7272 36.9547 86.8467 35.428 87.8561 34.1388C88.7382 32.9259 89.5185 31.6621 90.1546 30.322C90.4261 29.9318 90.7399 29.4483 91.2742 29.5247C91.834 29.601 92.538 29.355 92.9536 29.7452C92.3175 31.45 91.3082 33.0022 90.4261 34.6052C87.7119 38.7868 84.158 43.6383 79.1623 44.8851C78.3311 44.9784 77.3132 45.0463 76.6771 44.4356C75.7017 43.7062 75.6593 42.5357 75.3964 41.484C75.3031 41.3652 75.1249 41.3398 74.9808 41.3822C72.8518 43.2991 70.655 45.2159 67.661 44.8427C66.7365 44.6477 65.8629 43.9352 65.4557 43.0616C64.6839 41.5773 65.0571 39.6519 65.0062 37.998C64.9383 37.8029 64.6924 37.8792 64.5906 37.9471C61.3421 41.1532 57.8221 44.037 53.5134 44.8512C51.5117 45.0887 49.7899 44.495 48.4583 43.0785C45.2352 38.8546 47.7882 33.316 49.4846 29.2024C49.5609 29.0073 49.5355 28.7359 49.2895 28.6935C48.119 28.7868 46.9994 28.9734 45.8798 29.143L45.4897 29.584C42.8688 34.4441 40.0274 39.5925 35.3115 43.2058C33.3607 44.6137 30.46 45.5722 28.1699 44.2745C25.7865 42.6375 25.583 39.7113 25.8798 37.0141C26.4481 33.9522 27.5592 31.1023 28.8824 28.3542H28.8993ZM36.3463 28.1082C34.9723 30.8818 33.5728 33.6723 33.5134 36.9632C33.6576 37.5739 34.0223 38.2779 34.7009 38.456C35.4303 38.651 36.041 38.2694 36.6008 37.9047C39.2895 35.6485 41.147 32.5611 42.6652 29.601C42.784 29.3126 43.0045 28.9479 42.8349 28.6256C41.2318 27.9895 39.6796 26.8868 38.4413 25.4958L38.1699 25.4449C37.9239 25.4958 37.8306 25.7333 37.661 25.903L36.3378 28.1167L36.3463 28.1082ZM40.5278 22.4763C40.6211 23.9352 41.9782 25.2075 43.2674 25.6994C43.5813 25.8012 44.0902 26.0471 44.3616 25.657C44.8535 24.7325 45.1504 23.7147 45.3964 22.6884C45.6423 21.3482 45.8459 19.5501 44.5567 18.668C44.1156 18.422 43.4625 18.3966 42.996 18.6171C41.5287 19.3466 40.4769 20.8224 40.5193 22.4763H40.5278ZM73.5049 33.8164C73.1317 35.0293 72.5719 36.344 72.9536 37.6841C73.0724 37.9555 73.3692 38.1506 73.6322 38.2185C74.7263 38.2439 75.4642 37.2516 76.1682 36.4712C79.3743 32.0268 81.8255 27.2431 84.0308 22.3745C84.3955 21.3567 84.9892 20.4068 84.9638 19.2617C84.9383 19.0158 84.7009 18.8461 84.5058 18.7274C84.0223 18.5069 83.5558 18.8461 83.1657 19.0412C78.8484 22.3661 76.516 27.1243 74.3531 31.6451L73.4964 33.808L73.5049 33.8164Z" fill="#E4032E"></path><path d="M94.3269 21.3227C95.2854 19.4312 96.0911 17.455 97.2956 15.6568C97.7875 15.1225 98.5424 15.1479 99.1955 15.0801L103.988 15.1479L104.183 15.343C103.377 17.2599 102.486 19.1598 101.486 21.0088C101.24 21.4923 100.731 21.9588 100.171 22.0266C98.2201 22.0691 96.1505 22.1793 94.3015 22.0097C94.1064 21.8146 94.276 21.5432 94.3269 21.3311V21.3227Z" fill="#E4032E"></path><path d="M99.1365 31.0598C102.47 24.1556 106.49 17.4974 112.181 11.6281C117.703 6.12339 123.683 1.66199 130.918 0.296421C132.894 0.00804124 135.108 0.186158 136.609 1.53476C136.897 1.78073 137.237 2.0267 137.652 1.88251C142.843 -0.195521 150.052 -0.924953 155.26 1.67895C158.271 3.15478 161.138 5.03773 164.03 6.84434C164.395 7.03942 164.226 7.42959 164.03 7.65011C162.368 9.49065 160.977 11.3906 159.484 13.3074C159.315 13.4771 159.043 13.4007 158.874 13.3074L151.223 8.04875C147.652 5.62297 143.547 3.9351 138.891 4.69846C138.382 4.96139 138.619 5.59752 138.543 6.08947C138.645 10.8647 136.957 15.0208 134.65 18.8121C132.818 21.4584 130.689 24.232 127.567 25.1141C126.202 25.4024 124.887 24.9868 124.064 23.8842C121.791 20.4152 123.801 16.1912 125.464 13.1039C127.372 9.75359 130.332 6.59837 133.53 4.17259C133.606 4.05384 133.751 3.92662 133.649 3.78243C133.335 3.4686 132.801 3.6552 132.41 3.73154C127.22 5.4703 123.064 10.0505 119.221 14.4016C112.377 22.824 107.186 31.9673 104.226 42.0097C103.309 45.7841 102.071 51.5687 105.913 54.215C109.289 56.0301 112.538 53.6976 115.074 51.5178C118.933 47.5823 121.528 43.0445 122.597 37.9046C122.775 36.3694 123.191 34.2829 121.783 33.2311C120.519 32.6628 119.467 33.7061 118.611 34.5797C116.626 36.9631 115.795 39.8045 115.438 42.8749C114.556 43.6043 113.513 44.0623 112.58 44.7663C110.824 45.9792 109.086 47.5992 107.695 49.2277C107.525 49.2786 107.499 49.0835 107.449 48.9818C107.245 43.3329 109.264 38.4898 112.368 34.1471C114.836 31.2803 118.008 28.8376 121.851 29.7451C123.53 30.1862 124.641 31.9673 124.955 33.5534C125.566 38.863 123.335 43.511 120.935 47.8282C117.067 53.9012 110.96 60.042 103.216 59.3041C100.248 59.1259 97.474 57.0649 96.2187 54.3337C93.2925 48.5068 95.3197 41.0089 97.279 35.3685L99.0941 31.0683L99.1365 31.0598ZM125.464 21.0004C125.532 21.662 125.803 22.366 126.482 22.6119C127.796 22.9851 128.848 22.0097 129.823 21.2633C133.343 17.5483 135.472 13.2481 136.032 8.30321C136.032 7.57378 136.278 6.64926 135.871 6.01313C135.583 5.96224 135.26 6.08098 135.014 6.25062C132.648 7.82823 130.426 10.1268 128.806 12.4593C127.118 15.0632 125.574 17.7349 125.464 20.9919V21.0004Z" fill="#E4032E"></path><path d="M130.4 37.5226C133.216 33.8076 136.957 29.7533 141.681 29.4565C142.877 29.4819 143.92 29.9739 144.649 30.9747C146.66 33.9518 144.963 37.7686 144.225 40.7881C144.149 41.0595 144.344 41.2546 144.539 41.3225C145.515 41.4751 146.634 41.3225 147.491 40.8984L147.856 40.4404C151.248 30.7627 156.295 21.772 162.292 13.1969C166.032 8.24358 170.824 3.1206 176.388 0.728738C177.703 0.270722 179.603 -0.280592 180.867 0.694811C182.275 1.83985 181.876 3.84155 181.511 5.36826C181.359 6.73383 179.849 6.86954 178.848 7.18336C178.797 7.15792 178.746 7.18336 178.704 7.13247C178.729 6.25885 179.196 5.47853 179.374 4.63035C179.425 4.16385 179.501 3.78217 179.306 3.34112C179.068 2.90007 178.526 3.04426 178.161 3.17149C176.286 4.08752 174.768 5.76691 173.326 7.3954C167.949 13.638 164.056 20.5591 160.476 27.5566C159.297 29.9908 158.076 32.3912 157.118 34.9187C157.092 35.0629 157.143 35.1647 157.262 35.258C158.093 35.241 158.577 34.3844 159.213 33.9518C163.954 29.66 167.788 24.7321 171.342 19.7279C172.096 19.3632 172.979 19.3717 173.852 19.2953L174.022 19.3462C173.971 20.0248 173.386 20.5591 173.063 21.1698C169.102 26.878 164.599 32.3403 159.128 37.3106L155.175 40.5591C154.344 41.2885 154.319 42.4081 153.903 43.3326C153.14 45.8348 152.376 48.3878 152.266 51.1443C152.292 51.6108 152.461 52.0434 152.843 52.2894C153.886 52.7559 154.717 51.7635 155.455 51.085C160.807 44.8933 163.174 37.3021 169.713 31.755C171.859 30.0587 174.692 28.6083 177.465 29.8806C177.949 30.0502 178.314 30.6863 178.899 30.398C179.314 30.1096 179.34 29.448 179.925 29.4734C181.85 29.4565 183.895 29.3886 185.744 29.5413C185.913 29.6855 185.795 29.9315 185.744 30.1011L184.42 32.7728L176.227 49.3038C175.862 50.0587 175.37 50.856 175.413 51.7126C175.532 52.0773 175.922 52.1028 176.236 52.0349C177.771 51.1868 178.899 49.7788 179.9 48.3454C180.901 46.9374 181.715 45.4531 182.665 44.0197C183.174 43.7822 183.886 43.8755 184.446 43.9518C184.785 44.2656 184.344 44.6812 184.276 45.046C181.876 50.0332 178.517 55.4701 173.275 58.2266C172.054 58.8288 170.375 59.3886 169.035 58.6507C167.966 57.9128 168.068 56.5812 167.584 55.5549C167.491 55.4107 167.245 55.4361 167.118 55.504C164.946 57.4463 162.597 59.6261 159.56 58.7864C157.661 57.9043 157.448 55.7075 157.313 53.8331C157.219 53.7567 157.262 53.6125 157.143 53.5362L156.897 53.6295C154.768 56.1825 152.079 59.3632 148.5 59.0578C147.135 58.9561 145.947 57.6329 145.54 56.42C144.285 52.4505 145.616 48.0909 146.507 44.2741C146.507 44.0536 146.261 43.8331 146.074 43.8076L143.08 43.85L142.588 44.4098C140.383 48.7355 137.957 52.917 134.149 56.5303C132.147 58.303 129.679 59.7788 126.931 58.9645C124.649 57.9807 124.047 55.4955 124.056 53.163C124.539 47.2767 127.186 42.2894 130.417 37.5311L130.4 37.5226ZM131.18 50.7457C131.223 51.5769 131.638 52.4251 132.487 52.6965C133.046 52.8916 133.657 52.6541 134.141 52.4081C136.948 50.3216 138.61 47.1155 140.137 44.1978C140.281 43.9094 140.409 43.4429 140.018 43.2224C138.56 42.4845 137.152 41.3394 135.99 40.0417C135.845 39.8975 135.574 39.8721 135.404 39.9654C134.353 41.3734 133.666 42.934 132.928 44.4862C132.096 46.4539 131.189 48.3963 131.18 50.7372V50.7457ZM138.237 37.0901C138.331 38.5744 139.518 39.9654 140.884 40.4573C141.155 40.5591 141.638 40.6779 141.834 40.3386C142.665 38.4387 143.454 36.2758 143.021 34.0875C142.851 33.5786 142.419 33.0612 141.884 32.8916C141.35 32.7474 140.79 32.9086 140.324 33.1291C138.958 34.0281 138.297 35.5125 138.237 37.0901ZM165.074 50.0841C165.023 50.7881 164.845 51.6702 165.379 52.2046C165.667 52.5014 166.134 52.5269 166.498 52.3996C167.94 51.6533 168.865 50.1181 169.747 48.8543C172.682 44.2826 174.845 39.3971 176.855 34.4438C176.931 34.0027 177.05 33.4005 176.643 33.1036C175.455 32.5354 174.522 33.85 173.64 34.4777C169.755 38.3369 167.694 43.0019 165.752 47.6923L165.065 50.0756L165.074 50.0841Z" fill="#E4032E"></path><path d="M170.757 13.7743L173.352 10.424L173.742 10.0847C181.24 9.9405 187.101 5.47909 192.377 0.211914C192.351 0.9159 192.029 1.57748 191.783 2.20513C188.322 10.3476 179.925 17.5062 170.842 17.6165L168.696 17.5826C168.305 17.4808 168.577 17.0991 168.67 16.904L170.748 13.7658L170.757 13.7743Z" fill="#E4032E"></path><path d="M180.214 56.7601C180.214 55.7423 180.986 54.9705 181.97 54.9705C182.953 54.9705 183.708 55.7423 183.708 56.7601C183.708 57.778 182.936 58.5583 181.97 58.5583C181.003 58.5583 180.214 57.7949 180.214 56.7601ZM181.97 58.9145C183.14 58.9145 184.141 58.007 184.141 56.7601C184.141 55.5133 183.14 54.6143 181.97 54.6143C180.799 54.6143 179.781 55.5218 179.781 56.7601C179.781 57.9985 180.782 58.9145 181.97 58.9145ZM181.512 56.9298H181.944L182.597 58.007H183.021L182.317 56.9128C182.682 56.8704 182.962 56.6753 182.962 56.2258C182.962 55.7339 182.674 55.5218 182.088 55.5218H181.147V58.007H181.52V56.9298H181.512ZM181.512 56.6075V55.8356H182.02C182.283 55.8356 182.563 55.895 182.563 56.2004C182.563 56.582 182.275 56.6075 181.961 56.6075H181.512Z" fill="#E4032E"></path></g><defs><clipPath id="clip0_20_549"><rect width="184.377" height="60" fill="white" transform="translate(8)"></rect></clipPath></defs></svg> 