<?xml version="1.0" encoding="UTF-8"?> <svg xmlns="http://www.w3.org/2000/svg" width="200" height="60" viewBox="0 0 200 60" fill="none"><g clip-path="url(#clip0_20_643)"><path d="M100 0C83.4312 0 70 13.4312 70 30.0004C70 46.5695 83.4312 60 100 60C116.57 60 130.001 46.568 130.001 30.0004C130.001 13.4327 116.569 0 100 0ZM124.642 42.6996C124.467 43.8924 123.682 44.7331 122.427 44.9099C122.425 44.9099 112.341 45.7191 100.195 45.7318H99.8048C87.6601 45.7191 77.575 44.9099 77.5653 44.9092C76.317 44.7331 75.5325 43.8917 75.3572 42.6973C75.3572 42.6943 74.5907 37.1948 74.5907 30.3458C74.5907 30.2304 74.5907 30.1143 74.5915 29.9996C74.5915 29.8842 74.5907 29.7689 74.5907 29.6527C74.5907 22.8037 75.3572 17.3049 75.358 17.2997C75.5333 16.1061 76.3178 15.2654 77.5728 15.0886C77.575 15.0886 87.6593 14.2801 99.8048 14.2674H99.9217H100.195C112.34 14.2801 122.425 15.0886 122.435 15.0901C123.682 15.2662 124.467 16.1068 124.643 17.3019C124.643 17.3049 125.409 22.8045 125.41 29.6535C125.41 29.7696 125.41 29.885 125.409 29.9996C125.409 30.115 125.41 30.2311 125.411 30.3465C125.411 37.1955 124.644 42.6951 124.644 42.7003L124.642 42.6996Z" fill="#DB2B51"></path><path d="M112.583 32.0266C113.704 25.0763 108.978 18.5335 102.028 17.4128C95.0776 16.292 88.5347 21.0178 87.414 27.9681C86.2933 34.9184 91.0191 41.4613 97.9694 42.582C104.92 43.7027 111.463 38.9769 112.583 32.0266Z" fill="#DB2B51"></path></g><defs><clipPath id="clip0_20_643"><rect width="60" height="60" fill="white" transform="translate(70)"></rect></clipPath></defs></svg> 