<?xml version="1.0" encoding="UTF-8"?> <svg xmlns="http://www.w3.org/2000/svg" width="200" height="60" viewBox="0 0 200 60" fill="none"><g clip-path="url(#clip0_20_488)"><path d="M-8 6H208V54H-8V6Z" fill="#FFED00"></path><path fill-rule="evenodd" clip-rule="evenodd" d="M43.6748 32.5971V41.3154H50.3585C51.9604 41.3154 55.9375 41.1313 55.9375 36.9977C55.9375 34.7606 55.2378 33.1955 52.5588 32.8641C52.881 32.7996 53.1756 32.7168 53.4426 32.6063H43.6748V32.5971ZM58.6994 32.5971L56.0296 41.3154H59.3898L60.2276 38.351H63.8272L64.6466 41.3154H68.2094L65.5856 32.5971H62.3726L63.2841 36.3072H60.7063L61.5441 32.5971H58.6901H58.6994ZM69.0011 32.5971V41.3154H71.8827V32.5971H69.0011ZM71.9655 32.5971L75.602 41.3154H79.6067V32.5971H76.7159V36.5926L75.0404 32.5971H71.9563H71.9655ZM81.0244 32.5971C80.9876 33.2507 80.9784 33.9412 80.9784 34.6685C80.9784 38.6824 80.8587 41.7113 86.0602 41.7113C89.0154 41.7113 90.737 40.5421 90.737 36.8964H87.3767C87.3307 37.9735 87.3123 39.6675 86.0602 39.6675C84.6333 39.6675 84.4215 38.8021 84.4215 34.6685C84.4215 33.8584 84.4307 33.1771 84.4584 32.5971H81.0152H81.0244ZM91.7681 32.5971C91.7313 33.2692 91.7313 33.9688 91.7313 34.6685C91.7313 38.2313 91.7313 41.7113 96.9328 41.7113C102.134 41.7113 102.134 38.2405 102.134 34.6685C102.134 33.9688 102.134 33.2692 102.097 32.6063H98.6083C98.6451 33.1955 98.6543 33.886 98.6543 34.6685C98.6543 38.1577 98.461 39.6675 96.9328 39.6675C95.4046 39.6675 95.2112 38.1577 95.2112 34.6685C95.2112 33.8768 95.2204 33.1863 95.2573 32.5971H91.7681ZM105.826 32.5971V41.3154H110.908C116.229 41.3154 115.879 36.6018 115.879 34.5396C115.879 33.8399 115.861 33.1955 115.806 32.5971H112.408C112.454 33.2139 112.454 33.9136 112.454 34.6317C112.454 37.9919 112.132 39.2716 110.512 39.2716H109.223V32.5879H105.835L105.826 32.5971ZM117.177 32.5971C117.14 33.2784 117.14 33.9872 117.14 34.6961C117.14 38.2497 117.14 41.7113 122.342 41.7113C127.543 41.7113 127.543 38.2497 127.543 34.6961C127.543 33.978 127.543 33.2784 127.507 32.5971H124.017C124.054 33.1863 124.064 33.886 124.064 34.6961C124.064 38.1761 123.87 39.6767 122.342 39.6767C120.814 39.6767 120.62 38.1761 120.62 34.6961C120.62 33.8952 120.63 33.1955 120.666 32.5971H117.177ZM131.06 32.5971V41.3246H137.735C139.337 41.3246 143.314 41.1405 143.314 37.0069C143.314 34.7698 142.614 33.2047 139.935 32.8733C140.266 32.8088 140.57 32.7168 140.856 32.6063H131.06V32.5971ZM144.446 32.5971V41.3154H147.926V32.5971H144.446ZM150.872 32.5971C150.716 33.4441 150.209 34.0609 149.463 34.0056L148.497 34.0241L151.664 41.3154H157.234L158.071 38.351H161.671L162.49 41.3154H170.583C172.82 41.3154 175.084 41.0208 175.084 37.5593C175.084 34.3095 171.264 33.9688 169.828 32.5879H165.225C166.145 35.6259 171.503 35.7272 171.503 37.771C171.503 38.6732 171.015 39.29 170.021 39.29H165.427L163.42 32.5971H160.207L161.128 36.3072H158.55L159.388 32.5971H156.525L154.195 40.1186L151.829 34.8894C153.201 34.6317 153.919 33.8952 154.159 32.6063H150.854L150.872 32.5971ZM176.364 32.5971V41.3154H179.761V32.5971H176.364ZM181.759 32.5971V41.3154H189.124V39.29H185.156V32.5879H181.759V32.5971ZM48.6093 34.1714H49.1341C51.1318 34.1714 51.7579 35.0552 51.7579 36.5005C51.7579 38.7837 49.8706 38.8021 49.0236 38.8021H47.7808V34.1898L48.6001 34.1622L48.6093 34.1714ZM136.216 34.199H137.063C138.692 34.199 139.199 35.0828 139.199 36.5282C139.199 38.8113 137.661 38.8389 136.971 38.8389H135.175V34.2266L136.216 34.199Z" fill="#0059A2"></path><path fill-rule="evenodd" clip-rule="evenodd" d="M53.4426 32.5975C54.9064 32.0175 55.6337 30.8023 55.6337 29.2188C55.6337 25.7389 53.2585 24.9932 50.3769 24.9932H43.6748V32.5975H53.4426ZM61.5441 32.5975L61.9399 30.8391L62.3726 32.5975H65.5856L64.1955 27.9576H60.1171L58.6901 32.5975H61.5441ZM71.8735 32.5975V32.4042L71.9563 32.5975H75.0404L73.0979 27.9576H68.9919V32.5975H71.8735ZM79.5975 32.5975V27.9576H76.7067V32.5975H79.5975ZM84.4491 32.5975C84.5688 30.1394 84.9739 29.6699 85.9866 29.6699C86.8796 29.6699 87.2847 30.3512 87.2847 32.1648H90.6173C90.7462 29.2372 89.1167 27.6354 85.9037 27.6354C81.9819 27.6354 81.1809 29.6699 81.0152 32.6067H84.4584L84.4491 32.5975ZM95.248 32.5975C95.3585 30.5721 95.7452 29.6699 96.9236 29.6699C98.102 29.6699 98.4886 30.5721 98.5991 32.5975H102.088C101.932 29.854 101.112 27.6261 96.9236 27.6261C92.7347 27.6261 91.9246 29.854 91.7589 32.5975H95.248ZM109.205 32.5975V30.0013H110.586C111.902 30.0013 112.28 31.0877 112.399 32.5975H115.796C115.529 29.6239 114.425 27.9207 111.018 27.9207H105.817V32.6067H109.205V32.5975ZM120.666 32.5975C120.786 30.609 121.173 29.716 122.342 29.716C123.511 29.716 123.898 30.5998 124.017 32.5975H127.507C127.341 29.8817 126.512 27.6906 122.342 27.6906C118.172 27.6906 117.343 29.8909 117.177 32.6067H120.666V32.5975ZM140.856 32.5975C142.292 32.0083 143.019 30.7931 143.019 29.228C143.019 25.7481 140.644 25.0024 137.762 25.0024H131.06V32.6067H140.856V32.5975ZM147.926 32.5975V30.0106H149.077C150.062 30.0106 150.918 30.7286 150.918 32.0451C150.918 32.2385 150.9 32.4318 150.872 32.6067H154.177C154.242 32.2661 154.278 31.8794 154.278 31.4559C154.278 29.182 152.925 27.9576 150.817 27.9576H144.446V32.5975H147.926ZM159.406 32.5975L159.802 30.8483L160.235 32.5975H163.448L162.058 27.9576H157.979L156.543 32.5975H159.406ZM169.846 32.5975C169.515 32.2753 169.312 31.907 169.312 31.4283C169.312 30.5077 169.874 30.0013 170.831 30.0013H173.934V27.9484H169.579C165.998 27.9484 165.114 29.5594 165.114 31.6585C165.114 31.9991 165.16 32.3121 165.252 32.5975H169.855H169.846ZM179.761 32.5975V27.9576H176.364V32.5975H179.761ZM185.156 32.5975V27.9576H181.759V32.5975H185.156ZM47.79 31.6769V27.5065H49.263C50.5979 27.5065 51.5461 28.3903 51.5461 29.5871C51.5461 31.1705 50.3401 31.6677 49.4747 31.6677H47.79V31.6769ZM135.175 31.7045V27.5341H137.164C138.25 27.5341 139.024 28.4179 139.024 29.6147C139.024 31.1982 138.039 31.6953 137.33 31.6953H135.166L135.175 31.7045Z" fill="#0059A2"></path><path fill-rule="evenodd" clip-rule="evenodd" d="M32.0847 21.2889L34.5401 22.9694L36.9414 21.3655V18.0676L32.0847 21.2889ZM17.8928 38.7652L15.4464 37.0982L13 38.7697V42L17.8928 38.7652ZM27.1828 24.5012L29.5797 26.1141L18.1902 33.8183L25.2275 38.5669L28.5344 36.3278L25.9664 34.6292L31.8909 30.66L36.8468 33.9489L24.8671 41.9324L13.0496 34.003L27.1783 24.5012H27.1828ZM22.6955 35.4312L20.2987 33.8183L31.6882 26.1141L24.6508 21.3655L21.3439 23.6047L23.912 25.3032L17.9874 29.2724L13.0315 25.9835L24.9662 18L36.8153 25.9655L22.6955 35.4312Z" fill="#0059A2"></path></g><defs><clipPath id="clip0_20_488"><rect width="200" height="60" fill="white"></rect></clipPath></defs></svg> 