<?xml version="1.0" encoding="UTF-8"?> <svg xmlns="http://www.w3.org/2000/svg" width="200" height="60" viewBox="0 0 200 60" fill="none"><path fill-rule="evenodd" clip-rule="evenodd" d="M58.6885 25.8808H68.4761V39.8707H68.5474C72.4121 39.8707 75.5452 36.8277 75.5452 33.075V25.8808H85.6063V20.0728H58.6885V25.8808ZM105.551 34.0656H98.8238C96.4776 34.0656 94.4499 32.3201 94.3408 30.0437C94.2245 27.6234 96.2172 25.6176 98.6856 25.6176H105.413C107.76 25.6176 109.788 27.3645 109.897 29.6408C110.014 32.0612 108.019 34.0656 105.551 34.0656ZM107.209 19.8096H97.0201C91.3372 19.8096 86.6885 24.323 86.6885 29.8416C86.6885 35.3601 91.3372 39.875 97.0201 39.875H107.211C112.892 39.875 117.542 35.3601 117.542 29.8416C117.542 24.323 112.891 19.8096 107.209 19.8096ZM170.745 34.0656H164.018C161.672 34.0656 159.643 32.3201 159.534 30.0437C159.417 27.6234 161.411 25.6176 163.88 25.6176H170.607C172.953 25.6176 174.981 27.363 175.09 29.6394C175.206 32.0612 173.212 34.0656 170.745 34.0656ZM172.409 19.8096H162.219C156.536 19.8096 151.887 24.323 151.887 29.8416C151.887 35.3601 156.536 39.875 162.219 39.875H172.409C178.092 39.875 182.741 35.3601 182.741 29.8416C182.741 24.323 178.092 19.8096 172.409 19.8096ZM140.524 27.2205C140.524 28.227 139.676 29.0503 138.639 29.0503H129.103V25.3543H138.639C139.676 25.3543 140.524 26.1776 140.524 27.1841V27.2205ZM147.686 27.5216C147.683 26.5727 147.489 25.6342 147.116 24.762C146.742 23.8898 146.197 23.1019 145.512 22.4452C144.112 21.089 142.238 20.3323 140.288 20.3361H121.222V39.6103H128.834V34.8583H136.882L139.707 39.6103H147.686L144.264 33.5725C146.318 32.2925 147.686 30.0539 147.686 27.5216Z" fill="#1F073B"></path><path fill-rule="evenodd" clip-rule="evenodd" d="M31.4977 45.5798V37.6976C31.4977 37.6132 31.3988 37.5652 31.3275 37.6147C27.3014 40.5165 22.7181 43.1609 17.6795 45.4867C17.5777 45.5347 17.6126 45.683 17.7246 45.683H31.3915C31.4497 45.683 31.4977 45.6365 31.4977 45.5798Z" fill="#6131B4"></path><mask id="mask0_20_1039" style="mask-type:alpha" maskUnits="userSpaceOnUse" x="16" y="14" width="32" height="21"><path fill-rule="evenodd" clip-rule="evenodd" d="M16 24.2764V14H47.8298V34.5527H16V24.2764Z" fill="white"></path></mask><g mask="url(#mask0_20_1039)"><path fill-rule="evenodd" clip-rule="evenodd" d="M47.8109 14.1629C47.8604 14.0945 47.8095 14 47.7236 14H26.9673C20.9105 14 16 18.7273 16 24.56V34.448C16 34.5193 16.0727 34.5687 16.1411 34.5455C30.2982 29.9171 41.5738 22.6924 47.8109 14.1629Z" fill="#6131B4"></path></g><path fill-rule="evenodd" clip-rule="evenodd" d="M37.2041 33.0952V45.5796C37.2041 45.6363 37.2521 45.6814 37.3103 45.6814H37.6565C43.7132 45.6814 48.6237 40.9541 48.6237 35.1214V16.909C48.6237 16.7926 48.4565 16.765 48.4172 16.8756C46.3663 22.6297 42.5263 28.0974 37.2361 33.021C37.2262 33.0304 37.2182 33.0416 37.2127 33.0541C37.2072 33.0666 37.2043 33.0801 37.2041 33.0937V33.0952Z" fill="#6131B4"></path></svg> 