<?xml version="1.0" encoding="UTF-8"?> <svg xmlns="http://www.w3.org/2000/svg" width="200" height="60" viewBox="0 0 200 60" fill="none"><path fill-rule="evenodd" clip-rule="evenodd" d="M114.95 19.98L124.98 16.31L114.95 12.44V7L132.46 14.05V18.48L114.95 25.57V19.98Z" fill="#A000FF"></path><path fill-rule="evenodd" clip-rule="evenodd" d="M18.7 53.6804C15.04 53.6804 12 51.8104 12 47.6804V47.4504C12 42.4204 16.36 40.7804 21.63 40.7804H24.16V39.8104C24.16 37.7904 23.26 36.5404 21.16 36.5404C19.25 36.5404 18.24 37.6304 18.08 39.1904H12.62C13.01 34.6704 16.59 32.4404 21.43 32.4404C26.27 32.4404 29.85 34.5504 29.85 39.6104V53.2504H24.28V50.9104C23.31 52.3904 21.43 53.6704 18.71 53.6804H18.7ZM24.16 46.4704V44.5204H21.9C19.09 44.5204 17.65 45.3004 17.65 47.1304V47.3304C17.65 48.7304 18.51 49.7104 20.42 49.7104C22.33 49.7104 24.16 48.6204 24.16 46.4704Z" fill="black"></path><path fill-rule="evenodd" clip-rule="evenodd" d="M42.7498 53.6802C37.0998 53.6802 33.0098 50.1702 33.0098 43.2802V43.0102C33.0098 36.1102 37.3698 32.4502 42.7898 32.4502C47.4298 32.4502 51.2498 34.7902 51.7098 40.1302H46.2498C45.8998 38.1402 44.8898 36.8602 42.8998 36.8602C40.4798 36.8602 38.8098 38.7702 38.8098 42.7802V43.4002C38.8098 47.5302 40.2898 49.4002 42.9398 49.4002C44.8898 49.4002 46.3298 47.9602 46.6398 45.7402H51.8198C51.4298 50.3802 48.2698 53.6902 42.7398 53.6902L42.7498 53.6802Z" fill="black"></path><path fill-rule="evenodd" clip-rule="evenodd" d="M63.9597 53.6802C58.3097 53.6802 54.2197 50.1702 54.2197 43.2802V43.0102C54.2197 36.1102 58.5797 32.4502 63.9997 32.4502C68.6397 32.4502 72.4597 34.7902 72.9297 40.1302H67.4697C67.1197 38.1402 66.1097 36.8602 64.1197 36.8602C61.6997 36.8602 60.0297 38.7702 60.0297 42.7802V43.4002C60.0297 47.5302 61.5097 49.4002 64.1597 49.4002C66.1097 49.4002 67.5497 47.9602 67.8597 45.7402H73.0397C72.6497 50.3802 69.4897 53.6902 63.9597 53.6902V53.6802Z" fill="black"></path><path fill-rule="evenodd" clip-rule="evenodd" d="M85.3199 53.6804C79.4399 53.6804 75.4199 50.1704 75.4199 43.3904V43.0004C75.4199 36.1804 79.6699 32.4404 85.1199 32.4404C90.1899 32.4404 94.4299 35.2804 94.4299 42.0304V44.4904H81.1799C81.4099 48.1504 82.9699 49.5604 85.4299 49.5604C87.6099 49.5604 88.7799 48.3904 89.1699 46.9104H94.4299C93.8099 50.7704 90.6499 53.6904 85.3099 53.6904L85.3199 53.6804ZM81.2699 40.7004H88.9099C88.7899 37.7004 87.4299 36.4104 85.1699 36.4104C83.3799 36.4104 81.7399 37.3804 81.2699 40.7004Z" fill="black"></path><path fill-rule="evenodd" clip-rule="evenodd" d="M97.9404 32.8704H103.63V35.9104C104.65 34.0004 106.67 32.4404 109.79 32.4404C113.49 32.4404 115.95 34.6604 115.95 39.6104V53.2504H110.26V40.4604C110.26 38.0804 109.29 37.0304 107.22 37.0304C105.15 37.0304 103.63 38.2404 103.63 40.8104V53.2404H97.9404V32.8604V32.8704Z" fill="black"></path><path fill-rule="evenodd" clip-rule="evenodd" d="M126.59 26.7197V32.8797H130.49V37.1297H126.59V46.7997C126.59 48.3197 127.29 49.0197 128.62 49.0197C129.44 49.0197 130.06 48.8997 130.61 48.6697V53.1097C129.95 53.2997 128.82 53.5397 127.42 53.5397C122.98 53.5397 120.87 51.5097 120.87 47.3797V37.1297H118.49V32.8797H120.87V29.0597L126.6 26.7197H126.59Z" fill="black"></path><path fill-rule="evenodd" clip-rule="evenodd" d="M151.93 53.2501H146.24V50.2501C145.27 52.2001 143.36 53.6801 140.31 53.6801C136.65 53.6801 133.96 51.4601 133.96 46.6701V32.8701H139.69V45.8101C139.69 48.1501 140.62 49.2401 142.65 49.2401C144.68 49.2401 146.24 47.9901 146.24 45.4601V32.8701H151.93V53.2501Z" fill="black"></path><path fill-rule="evenodd" clip-rule="evenodd" d="M156.06 32.8696H161.75V36.6096C162.96 33.8796 164.87 32.5996 167.87 32.5996V38.2096C164.01 38.2096 161.75 39.3796 161.75 42.7696V53.2496H156.06V32.8696Z" fill="black"></path><path fill-rule="evenodd" clip-rule="evenodd" d="M179.56 53.6804C173.68 53.6804 169.66 50.1704 169.66 43.3904V43.0004C169.66 36.1804 173.91 32.4404 179.36 32.4404C184.43 32.4404 188.68 35.2804 188.68 42.0304V44.4904H175.43C175.66 48.1504 177.22 49.5604 179.68 49.5604C181.86 49.5604 183.03 48.3904 183.42 46.9104H188.68C188.06 50.7704 184.9 53.6904 179.56 53.6904V53.6804ZM175.51 40.7004H183.15C183.03 37.7004 181.67 36.4104 179.41 36.4104C177.62 36.4104 175.98 37.3804 175.51 40.7004Z" fill="black"></path></svg> 