<?xml version="1.0" encoding="UTF-8"?> <svg xmlns="http://www.w3.org/2000/svg" width="200" height="60" viewBox="0 0 200 60" fill="none"><path d="M58.6193 38.3968L47.8451 5.1979C47.8451 5.1979 47.5755 4.08594 46.3919 4.08594H40.1835C40.1835 4.08594 39.1684 4.14911 38.8777 5.00415C38.5829 5.85918 28.133 38.1019 28.133 38.1019C28.133 38.1019 27.4169 39.8878 29.3081 40.309H34.055C34.055 40.309 35.0111 40.4396 35.3607 39.2476C35.7103 38.0514 37.2982 32.7274 37.2982 32.7274H48.2999L50.0732 39.0328C50.0732 39.0328 50.4059 40.309 51.897 40.309H57.6758C57.6758 40.309 59.0489 39.9089 58.6235 38.3968H58.6193ZM38.5576 27.673L42.976 11.4864C42.976 11.4864 44.5555 18.8279 47.0785 27.673H38.5576Z" fill="#01588E"></path><path d="M60.228 2.64569L64.9749 0.228016C64.9749 0.228016 66.5207 -0.698618 67.3631 1.18414V31.6326C67.3631 31.6326 67.1904 34.5641 70.678 34.9095C72.2659 35.1201 72.2322 36.43 72.2322 36.43L72.2743 38.9572C72.2743 38.9572 72.2785 39.867 71.0318 40.1029C69.785 40.3387 68.1929 40.1029 68.1929 40.1029C68.1929 40.1029 60.2027 39.4374 59.3604 31.2029V4.48212C59.3604 4.48212 59.3604 3.05426 60.228 2.64991V2.64569Z" fill="#01588E"></path><path d="M96.0052 40.7264V15.4798C96.0052 13.9466 95.007 13.5549 95.007 13.5549C95.007 13.5549 93.7981 12.7293 88.3984 12.1102C78.2096 11.2088 74.701 17.4004 74.701 17.4004C74.701 17.4004 69.9583 24.4934 73.3826 33.6755C78.2517 43.9696 88.411 39.6186 88.411 39.6186C88.411 39.6186 88.5037 40.4526 88.4363 41.5814C88.3689 42.7102 88.0319 44.2434 86.6125 45.3849C85.193 46.5263 82.3499 46.3705 81.2464 46.3157C80.1429 46.2652 78.496 45.806 77.1734 45.3933C75.8509 44.9805 75.3075 45.9998 75.3075 45.9998C75.3075 45.9998 74.9579 46.72 74.76 47.2171C73.8207 49.5842 75.2738 50.1907 75.2738 50.1907C75.2738 50.1907 77.603 51.5428 82.3331 51.8587C96.5359 52.3557 96.001 40.7222 96.001 40.7222L96.0052 40.7264ZM88.4236 35.3182C88.4236 35.3182 79.9449 39.8714 79.9491 26.4815C79.9533 13.3611 88.4236 17.1056 88.4236 17.1056V35.3182Z" fill="#01588E"></path><path d="M159.606 56.4204V47.9543C159.606 47.9543 158.784 47.4321 157.053 47.2341C153.78 46.9435 152.711 48.9315 152.711 48.9315C152.711 48.9315 151.215 51.2102 152.315 54.1544C153.877 57.4608 157.154 56.0624 157.154 56.0624C157.154 56.0624 157.192 56.332 157.167 56.69C157.146 57.0522 157.04 57.545 156.586 57.9115C156.131 58.2779 155.221 58.2274 154.867 58.2105C154.513 58.1937 153.09 57.7556 153.09 57.7556L152.428 59.3646C152.428 59.3646 153.608 59.929 155.132 59.9922C159.98 60.1986 159.614 56.4162 159.614 56.4162L159.606 56.4204ZM157.078 54.6851C157.078 54.6851 154.463 56.1551 154.463 51.8589C154.463 47.6469 157.078 48.8389 157.078 48.8389V54.6851Z" fill="#71706E"></path><path d="M149.75 12.3499C150.251 12.6784 153.865 14.6623 153.865 14.6623C153.865 14.6623 157.386 16.6672 158.19 17.0968C159.256 17.6654 159.168 19.0891 158.262 19.6071C157.727 19.9146 153.89 21.9827 153.89 21.9827C153.89 21.9827 150.259 24.1182 149.678 24.4467C148.675 25.0153 147.58 24.4214 147.572 23.2126C147.572 22.5934 147.551 18.3056 147.551 18.3056C147.551 18.3056 147.521 14.0431 147.53 13.4197C147.538 12.0972 148.844 11.7602 149.741 12.3499H149.75Z" fill="#0093DD"></path><path d="M163.275 20.1038C163.776 20.4323 167.39 22.4162 167.39 22.4162C167.39 22.4162 170.911 24.4211 171.716 24.8507C172.781 25.4193 172.693 26.843 171.787 27.361C171.252 27.6685 167.415 29.7366 167.415 29.7366C167.415 29.7366 163.785 31.8721 163.203 32.2006C162.201 32.7692 161.106 32.1753 161.097 30.9665C161.097 30.3473 161.076 26.0595 161.076 26.0595C161.076 26.0595 161.047 21.797 161.055 21.1736C161.064 19.8511 162.369 19.5141 163.267 20.1038H163.275Z" fill="#F8C401"></path><path d="M149.75 27.859C150.251 28.1876 153.865 30.1714 153.865 30.1714C153.865 30.1714 157.386 32.1763 158.19 32.606C159.256 33.1746 159.168 34.5982 158.262 35.1163C157.727 35.4238 153.89 37.4918 153.89 37.4918C153.89 37.4918 150.259 39.6273 149.678 39.9559C148.675 40.5245 147.58 39.9306 147.572 38.7218C147.572 38.1026 147.551 33.8148 147.551 33.8148C147.551 33.8148 147.521 29.5523 147.53 28.9289C147.538 27.6063 148.844 27.2694 149.741 27.8548L149.75 27.859Z" fill="#01923F"></path><path d="M140.564 12.0306C140.564 12.0306 138.5 11.7399 134.802 12.0474C131.104 12.3591 128.884 13.2268 128.884 13.2268C127.755 13.669 126.753 14.4862 126.753 15.3833V38.6461C126.753 39.5432 127.739 40.3014 128.636 40.3014H133.143C134.04 40.3014 134.756 39.5432 134.756 38.6461V17.6367C134.756 17.6367 136.024 16.9165 138.344 16.7817C139.743 16.7311 140.155 16.828 140.155 16.828C140.155 16.828 141.495 16.9796 141.916 15.5223V13.311C141.916 13.311 141.857 12.1274 140.564 12.0264V12.0306Z" fill="#01588E"></path><path d="M115.249 12.6826C108.337 10.7283 102.285 13.7356 102.285 13.7356C102.285 13.7356 100.794 14.4559 101.274 15.631C101.754 16.8062 102.062 17.6443 102.062 17.6443C102.062 17.6443 102.546 19.0259 104.168 18.4867C105.789 17.9476 110.149 17.0462 112.406 17.9476C114.66 18.849 115.203 20.8623 115.262 22.0038C115.262 22.0038 106.741 21.4183 102.504 24.5141C98.2665 27.6099 98.7551 32.7696 99.5343 34.9977C100.318 37.2217 102.723 40.1953 109.997 40.4944C117.271 40.7934 121.015 39.4119 121.921 38.9907C122.822 38.5695 122.966 38.4305 122.966 36.514V23.2379C122.966 23.2379 123.307 15.1509 115.253 12.6868L115.249 12.6826ZM115.38 36.215C115.38 36.215 109.205 37.626 107.672 34.2311C106.139 30.8363 107.482 28.5197 108.295 27.711C109.108 26.8981 111.168 25.2765 115.38 25.7566V36.215Z" fill="#01588E"></path><path d="M105.692 44.9424H98.9531V46.6272H101.059V56.3147H103.586V46.6272H105.692V44.9424Z" fill="#71706E"></path><path d="M141.916 43.2578H139.389V56.315H141.916V43.2578Z" fill="#71706E"></path><path d="M163.818 47.4697H161.291V56.3149H163.818V47.4697Z" fill="#71706E"></path><path d="M162.538 46.0167C163.283 46.0167 163.89 45.4902 163.89 44.8457C163.89 44.2013 163.283 43.6748 162.538 43.6748C161.792 43.6748 161.186 44.2013 161.186 44.8457C161.186 45.4902 161.792 46.0167 162.538 46.0167Z" fill="#71706E"></path><path d="M172.456 50.8262C172.439 49.8743 172.633 48.2821 170.207 47.3976C168.076 46.7743 165.578 47.9283 165.578 47.9283L166.13 49.3604C166.13 49.3604 168.059 48.4591 169.398 48.9898C170.098 49.2678 169.967 50.0722 169.988 50.4345C169.988 50.4345 167.655 50.3629 166.058 51.597C164.761 52.5994 164.951 54.002 165.191 54.7138C165.431 55.4257 166.109 56.2976 168.35 56.4155C170.932 56.5503 172.46 55.7289 172.46 55.7289C172.46 55.7289 172.469 51.7781 172.452 50.8304L172.456 50.8262ZM169.714 54.975C169.714 54.975 168.156 55.4088 167.566 54.36C167.006 53.3618 167.431 52.591 167.676 52.3425C167.92 52.0898 168.872 51.5886 169.714 51.736V54.975Z" fill="#71706E"></path><path d="M133.93 47.1875C131.428 47.1875 130.029 49.2514 130.029 51.7996C130.029 54.3479 131.124 56.4117 133.93 56.4117C136.735 56.4117 137.948 54.3479 137.948 51.7996C137.948 49.2514 136.432 47.1875 133.93 47.1875ZM133.98 54.748C132.915 54.7649 132.599 53.4212 132.599 51.787C132.599 50.1527 132.885 48.826 133.98 48.826C135.075 48.826 135.362 50.1527 135.362 51.787C135.362 53.4212 135.046 54.7312 133.98 54.748Z" fill="#71706E"></path><path d="M146.915 47.1875C144.413 47.1875 143.015 49.2514 143.015 51.7996C143.015 54.3479 144.11 56.4117 146.915 56.4117C149.72 56.4117 150.933 54.3479 150.933 51.7996C150.933 49.2514 149.417 47.1875 146.915 47.1875ZM146.97 54.748C145.904 54.7649 145.588 53.4212 145.588 51.787C145.588 50.1527 145.875 48.826 146.97 48.826C148.065 48.826 148.351 50.1527 148.351 51.787C148.351 53.4212 148.035 54.7312 146.97 54.748Z" fill="#71706E"></path><path d="M121.277 47.9369V56.3103H123.805V49.0278C123.805 49.0278 125.911 48.2907 126.332 49.7649V56.3103H128.859V49.7396C128.859 49.7396 129.12 47.3345 125.131 47.2461C122.423 47.2756 121.277 47.9369 121.277 47.9369Z" fill="#71706E"></path><path d="M120.127 47.8651L119.617 49.293C119.617 49.293 118.084 48.299 117.288 49.7268C116.492 51.1547 117.031 53.6061 117.41 54.0231C117.785 54.4443 118.417 55.0002 119.621 54.2926C119.621 54.2926 120.013 55.4509 120.131 55.8258C119.937 56.1122 117.292 57.2368 115.481 55.413C114.942 54.857 114.521 53.9894 114.335 52.6836C114.255 52.0687 114.276 51.34 114.437 50.4766C114.559 49.7311 114.967 48.9055 115.772 47.9957C117.604 46.5215 120.009 47.663 120.131 47.8609L120.127 47.8651Z" fill="#71706E"></path><path d="M109.159 47.2593C107.192 47.4194 106.35 48.7967 106.35 48.7967C105.495 50.0729 105.541 51.7704 105.541 51.7704C105.541 51.7704 105.372 53.4678 106.379 54.8199C108.738 57.8399 113.08 55.8097 113.08 55.8097L112.495 54.2302C111.471 54.7103 110.288 54.6809 110.288 54.6809C108.076 54.8156 108.005 52.7434 108.005 52.7434L113.384 51.9473C113.506 50.789 113.337 47.0782 109.159 47.2551V47.2593ZM110.962 51.008L107.836 51.5345C107.836 51.5345 107.714 50.0308 108.258 49.3569C108.801 48.6788 110.153 48.4556 110.692 49.4791C111.067 50.3046 110.962 51.0122 110.962 51.0122V51.008Z" fill="#71706E"></path></svg> 