<?xml version="1.0" encoding="UTF-8"?> <svg xmlns="http://www.w3.org/2000/svg" width="200" height="60" viewBox="0 0 200 60" fill="none"><path d="M116.279 15.4367V19.1152C115.563 18.941 114.827 18.8625 114.09 18.8818C109.462 18.8818 106.33 21.9888 106.33 26.931C106.33 31.8733 109.397 34.7871 114.186 34.7871C116.316 34.8096 118.436 34.4916 120.465 33.8453V12.056C119.211 12.4888 118.034 13.1192 116.98 13.9235C116.497 14.2709 116.229 14.8436 116.271 15.4367M116.271 31.1649C115.691 31.3348 115.088 31.4135 114.484 31.3984C111.715 31.3984 110.637 29.5792 110.637 26.9471C110.637 24.0092 111.715 22.2222 114.452 22.2222C115.066 22.2158 115.679 22.2941 116.271 22.4557V31.1649ZM97.5568 18.8174C96.0336 18.786 94.5128 18.9538 93.0331 19.3165C92.7836 20.4051 92.7836 21.5361 93.0331 22.6247C94.2842 22.3194 95.5688 22.1734 96.8565 22.19C99.0137 22.19 100.076 23.0674 100.076 24.8543V25.0234C99.4322 24.9509 98.6595 24.8865 98.1202 24.8865C94.5464 24.8865 91.4716 26.1664 91.4716 29.6114C91.4716 33.4912 94.2405 34.8032 98.257 34.8032C100.239 34.7873 102.208 34.4809 104.101 33.8936V25.1602C104.101 20.9746 101.839 18.914 97.5568 18.8174ZM100.076 31.3742C99.4861 31.4787 98.8885 31.5352 98.2892 31.5432C96.3655 31.5432 95.3191 30.9717 95.3191 29.6195C95.3191 28.2672 96.3655 27.7279 98.2892 27.7279C98.9332 27.7279 99.6737 27.8004 100.076 27.8326V31.3742ZM43.3854 22.52L40.3428 24.2667V34.7307H43.5625C43.8604 34.7356 44.1054 34.4974 44.1098 34.1995V22.9306C44.1191 22.6742 43.9231 22.4568 43.6671 22.4396C43.5536 22.4372 43.4426 22.4741 43.3532 22.5442M37.0024 26.5688V34.3524C37.0024 34.548 37.161 34.7066 37.3566 34.7066H39.4493V24.7336L37.3646 25.9329C37.1335 26.0473 36.9916 26.2871 37.0024 26.5447M39.232 7.41164C36.9795 7.41968 34.7315 7.61318 32.5109 7.99119C34.9361 4.88917 38.6591 3.08261 42.5966 3.09726C45.5228 3.11262 48.3584 4.11359 50.6458 5.93863C51.0161 6.23645 51.2978 6.26865 51.5796 5.98693C51.8612 5.7052 51.8291 5.43154 51.5232 5.06932C44.5213 -3.23844 31.1702 -0.965926 27.3111 9.19052C25.6232 9.7062 23.9938 10.3968 22.4494 11.2511C22.055 11.4685 21.9101 11.7502 22.055 12.056C22.1971 12.3582 22.553 12.4934 22.8599 12.3619C24.1075 11.9997 25.3793 11.6938 26.7074 11.4121C26.556 12.1239 26.4805 12.8497 26.4821 13.5774C26.416 18.4388 28.8745 22.987 32.9778 25.5949C33.3722 25.8444 33.7183 25.8444 33.9437 25.5385C34.1691 25.2326 34.1369 24.9509 33.7988 24.645C31.2787 22.3189 29.8482 19.0434 29.8547 15.6138C29.8445 13.9534 30.1788 12.3089 30.8367 10.7843C32.1648 10.6716 33.6056 10.5911 35.1913 10.5911C45.4782 10.6072 54.1955 13.9959 54.1955 18.4471C54.1955 20.7009 51.3381 22.9467 47.9494 24.4519C47.1444 24.8141 47.0478 25.0636 47.1445 25.4258C47.241 25.788 47.6193 25.8685 48.0459 25.7317C53.9782 23.7838 58.5099 20.5882 58.5099 16.7246C58.5099 11.4685 50.0341 7.41164 39.2964 7.41164M72.3466 18.8818C71.2657 18.865 70.1943 19.0848 69.2073 19.5257V12.056C67.9575 12.4975 66.7863 13.1361 65.7381 13.9476C65.2556 14.2951 64.9875 14.8678 65.0298 15.4609V33.9741C66.8089 34.5825 68.6796 34.8794 70.5596 34.8515C76.0251 34.8032 79.1482 31.4708 79.1482 26.6413C79.1482 21.8117 76.9185 18.8818 72.3305 18.8818M70.8011 31.3742C70.2591 31.3987 69.7164 31.3417 69.1913 31.2052V22.8259C69.9497 22.4872 70.7759 22.3275 71.606 22.3591C73.6988 22.3591 74.8257 23.8079 74.8257 26.5366C74.8257 29.4102 73.5057 31.3662 70.8011 31.3662M89.8295 19.0186C88.1348 18.9428 86.5245 19.7617 85.5875 21.1758C85.4903 20.5 85.3314 19.8345 85.1126 19.1877C84.5492 19.0511 83.9694 18.9942 83.3901 19.0186C82.8247 19.0106 82.2603 19.0673 81.7078 19.1877V34.4812C82.3977 34.6097 83.0991 34.6663 83.8006 34.6502C84.499 34.6503 85.1961 34.5937 85.8854 34.4812V27.0115C85.8854 24.0414 87.4389 22.4557 89.5317 22.4557C89.9943 22.4476 90.4569 22.4718 90.9162 22.5281C91.1573 21.4163 91.1818 20.2685 90.9886 19.1474C90.5989 19.0684 90.2029 19.0253 89.8053 19.0186M170.909 18.8174C166.217 18.8174 163.585 22.0371 163.585 26.8666C163.585 31.6962 166.354 34.8273 170.909 34.8273C175.634 34.8273 178.266 31.6962 178.266 26.8666C178.266 22.0371 175.634 18.8174 170.909 18.8174ZM170.909 31.4306C168.583 31.4306 167.875 29.547 167.875 26.8425C167.875 24.1379 168.583 22.19 170.909 22.19C173.236 22.19 173.984 24.146 173.984 26.8425C173.984 29.6758 173.179 31.4306 170.909 31.4306ZM146.174 25.3936L144.492 24.6853C143.51 24.2828 142.938 23.9448 142.938 23.3008C142.938 22.3188 143.816 22.1176 144.967 22.1176C146.308 22.1174 147.64 22.3348 148.911 22.7615C149.112 21.7248 149.112 20.659 148.911 19.6223C147.466 19.0351 145.913 18.7608 144.355 18.8174C141.135 18.8174 138.656 20.5721 138.656 23.1962C138.656 25.5627 139.662 26.7459 142.504 27.8889L143.816 28.4282C145.063 28.9353 145.426 29.2331 145.426 30.038C145.426 31.2535 144.21 31.4628 143.204 31.4628C141.644 31.4455 140.099 31.1427 138.648 30.5693C138.382 31.6451 138.382 32.7695 138.648 33.8453C140.302 34.5801 142.105 34.9138 143.912 34.8193C147.132 34.8193 149.684 33.137 149.684 30.1024C149.684 27.6072 148.605 26.4239 146.206 25.4097M159.238 31.3742C157.145 31.3742 155.761 29.7644 155.761 26.8183C155.761 24.0494 156.872 22.2625 159.27 22.2625C160.186 22.2552 161.093 22.4391 161.935 22.8018C162.242 21.7418 162.745 20.7483 163.416 19.8719C161.971 19.1222 160.357 18.7615 158.731 18.8254C154.103 18.8254 151.438 22.0934 151.438 26.8183C151.438 31.7123 154.175 34.8112 158.9 34.8112C160.49 34.8666 162.067 34.5206 163.488 33.8051C162.779 32.9307 162.233 31.9354 161.878 30.8671C161.043 31.2469 160.13 31.4208 159.214 31.3742M130.076 18.8254C125.552 18.8254 122.783 21.86 122.783 26.923C122.783 31.9859 125.721 34.8112 130.752 34.8112C132.376 34.8496 133.99 34.5508 135.493 33.9339C135.726 32.8733 135.726 31.7747 135.493 30.7142C134.094 31.158 132.638 31.3966 131.17 31.4225C128.844 31.4225 127.226 30.5451 126.888 28.0821H136.459C136.587 27.3813 136.644 26.6693 136.628 25.9571C136.628 21.4012 134.06 18.8415 130.116 18.8415M126.945 25.0153C127.25 23.1559 128.361 22.0451 130.043 22.0451C131.935 22.0451 132.676 23.325 132.748 25.0153H126.945Z" fill="#CE1C30"></path><path d="M101.787 44.9808V53.9073C101.072 54.0791 100.34 54.1652 99.6051 54.1639C97.619 54.1639 96.5757 53.0927 96.5757 50.7663V44.9808C96.2927 44.9252 96.005 44.8972 95.7165 44.8971C95.4097 44.897 95.1034 44.925 94.8016 44.9808V50.8109C94.8016 53.9742 96.4753 55.5754 99.4991 55.5754C100.873 55.5528 102.238 55.3522 103.561 54.9784V44.9808C103.27 44.9251 102.975 44.897 102.679 44.8971C102.38 44.897 102.081 44.9251 101.787 44.9808ZM110.546 44.8971C109.407 44.9021 108.346 45.4785 107.723 46.4314C107.7 45.9446 107.644 45.4599 107.555 44.9808C107.311 44.9197 107.059 44.8915 106.808 44.8971C106.549 44.8971 106.291 44.9251 106.038 44.9808V55.4526C106.319 55.5084 106.605 55.5364 106.891 55.5363C107.198 55.5365 107.505 55.5084 107.806 55.4526V49.5277C107.806 47.6309 109.006 46.3477 110.523 46.3477C110.794 46.3346 111.066 46.3552 111.332 46.409C111.393 46.1588 111.422 45.9022 111.421 45.6447C111.422 45.4217 111.399 45.1993 111.355 44.9808C111.088 44.9306 110.817 44.9026 110.546 44.8971ZM83.6268 50.2586C83.6268 53.3103 85.4679 55.1904 88.09 55.1904C88.9608 55.2015 89.8247 55.0344 90.6285 54.6995V55.4917C90.6285 57.6675 89.5127 58.5657 87.5098 58.5657C86.4322 58.5715 85.3668 58.3371 84.3912 57.8795C84.3511 58.1136 84.3306 58.3506 84.3298 58.5881C84.3298 58.8311 84.3513 59.0736 84.3912 59.3133C85.4339 59.7768 86.5641 60.0108 87.7051 59.9995C90.6731 59.9995 92.4026 58.3258 92.4026 55.2964V45.4104C91.3295 45.0201 90.197 44.8182 89.0552 44.8134C85.5962 44.8134 83.6715 47.1232 83.6715 50.2641M90.6285 53.3326C89.9232 53.6331 89.1635 53.7851 88.3969 53.7789C86.606 53.7789 85.4512 52.4121 85.4512 50.2976C85.4512 47.7982 86.7343 46.2417 88.9325 46.2417C89.5092 46.2199 90.0857 46.2915 90.6396 46.4537L90.6285 53.3326ZM127.908 49.5724L126.881 49.1037C125.854 48.6351 125.302 48.3338 125.302 47.5416C125.302 46.5597 126.262 46.2417 127.327 46.2417C128.18 46.2473 129.025 46.3981 129.827 46.688C129.871 46.4488 129.894 46.206 129.894 45.9627C129.894 45.7471 129.872 45.5321 129.827 45.3211C128.96 44.9648 128.03 44.7901 127.093 44.8079C125.174 44.8079 123.55 45.8958 123.55 47.5025C123.55 48.8694 124.108 49.656 126.005 50.4706L126.797 50.8109C128.013 51.3688 128.471 51.7928 128.471 52.6297C128.471 53.7455 127.405 54.1471 126.379 54.1471C125.345 54.146 124.321 53.9415 123.366 53.5446C123.255 54.0085 123.255 54.4922 123.366 54.9561C124.385 55.4134 125.497 55.6255 126.613 55.5754C128.622 55.5754 130.245 54.4596 130.245 52.6464C130.245 51.1735 129.497 50.2976 127.896 49.5724M77.9084 44.8079C75.1188 44.8079 73.3391 46.9893 73.3391 50.2363C73.3391 53.4833 75.1746 55.5754 78.3602 55.5754C79.4038 55.5865 80.4398 55.3971 81.4119 55.0175C81.4566 54.7933 81.479 54.5654 81.4789 54.3368C81.479 54.1065 81.4565 53.8766 81.4119 53.6506C80.472 53.9801 79.4845 54.1534 78.4885 54.1639C76.3518 54.1639 75.1746 52.797 75.0686 50.5766H81.9698C82.0098 50.1929 82.0303 49.8075 82.0312 49.4217C82.0312 46.582 80.3575 44.8079 77.9306 44.8079M75.0909 49.2711C75.2416 47.3463 76.4131 46.1915 77.8804 46.1915C79.4648 46.1915 80.3408 47.4746 80.3408 49.2711H75.0909ZM117.235 44.8079C114.395 44.8079 112.621 46.794 112.621 50.2139C112.621 53.6339 114.373 55.5977 117.213 55.5977C120.052 55.5977 121.849 53.5669 121.849 50.2139C121.849 46.7773 120.175 44.8079 117.235 44.8079ZM117.235 54.1639C115.399 54.1639 114.445 52.758 114.445 50.2139C114.445 47.6699 115.45 46.2417 117.263 46.2417C119.076 46.2417 120.086 47.5862 120.086 50.2139C120.086 52.8416 119.098 54.1639 117.24 54.1639M69.4226 49.5779L68.3961 49.1093C67.3696 48.6407 66.8172 48.3394 66.8172 47.5472C66.8172 46.5653 67.7768 46.2473 68.848 46.2473C69.7005 46.2529 70.5457 46.4037 71.3474 46.6936C71.3875 46.4539 71.408 46.2113 71.4088 45.9683C71.4088 45.753 71.3873 45.5383 71.3474 45.3267C70.4801 44.9729 69.5502 44.7983 68.6137 44.8134C66.6889 44.8134 65.0654 45.9014 65.0654 47.5081C65.0654 48.875 65.6233 49.6616 67.5202 50.4762L68.3124 50.8165C69.5286 51.3744 69.9861 51.7984 69.9861 52.6352C69.9861 53.751 68.9206 54.1527 67.894 54.1527C66.8599 54.1516 65.8362 53.9471 64.8813 53.5502C64.8199 53.7812 64.7917 54.0198 64.7976 54.2587C64.7976 54.4955 64.8255 54.7315 64.8813 54.9617C65.9004 55.419 67.0124 55.6311 68.1283 55.581C70.1367 55.581 71.7602 54.4652 71.7602 52.652C71.7602 51.1791 71.0127 50.3032 69.4115 49.5779" fill="#CE1C30"></path></svg> 