<?xml version="1.0" encoding="UTF-8"?> <svg xmlns="http://www.w3.org/2000/svg" width="200" height="60" viewBox="0 0 200 60" fill="none"><g clip-path="url(#clip0_20_1065)"><path d="M116.578 12.3818C107.862 12.3818 101.739 17.0156 101.685 23.6414C101.63 28.5499 106.064 31.2869 109.399 32.9183C112.839 34.586 113.988 35.6578 113.977 37.1499C113.943 39.4368 111.224 40.4788 108.698 40.4788C105.175 40.4788 103.298 39.9644 100.412 38.6951L99.2672 38.1512L98.0345 45.7878C100.095 46.7381 103.901 47.5615 107.857 47.6045C117.106 47.6045 123.124 43.024 123.195 35.9513C123.232 32.0582 120.878 29.1117 115.79 26.6791C112.718 25.0974 110.819 24.0486 110.847 22.4459C110.85 21.0298 112.441 19.5122 115.896 19.5122C118.781 19.4636 120.856 20.1259 122.49 20.8234L123.276 21.2155L124.474 13.8179C122.733 13.1302 119.986 12.382 116.578 12.382L116.578 12.3818ZM89.2161 12.977L83.7033 47.1H92.5111L98.0271 12.9766H89.2173L89.2161 12.977ZM76.3123 13.0101L67.6876 36.266L66.7681 31.5406C64.6203 25.746 59.9705 19.6678 54.5557 17.2044L62.4452 47.0674L71.7718 47.063L85.6413 13.0104L76.3123 13.0101ZM140.266 13.0123C138.155 13.0123 136.574 13.6138 135.643 15.8445L122.563 47.1113H131.817C131.817 47.1113 133.33 42.9026 133.672 41.9812C134.682 41.9812 143.67 42.0006 144.952 42.0006C145.225 43.1905 146.025 47.1109 146.025 47.1109H154.207L147.073 13.0123L140.266 13.0123ZM140.888 22.2119L141.476 25.1536C141.476 25.1536 143.169 33.2953 143.522 35.0005H136.207C136.939 33.0425 139.717 25.4625 139.717 25.4625C139.663 25.5552 140.44 23.4889 140.888 22.2119Z" fill="#0023A0"></path><path d="M59.689 12.9923H45.4783L45.3955 13.5795C56.4441 16.4051 63.7332 23.344 66.7683 31.5495L63.68 15.8664C63.1491 13.7096 61.6029 13.0684 59.689 12.9923Z" fill="#FFAB00"></path></g><defs><clipPath id="clip0_20_1065"><rect width="109.588" height="36" fill="white" transform="translate(45 12)"></rect></clipPath></defs></svg> 