<?xml version="1.0" encoding="UTF-8"?> <svg xmlns="http://www.w3.org/2000/svg" width="200" height="60" viewBox="0 0 200 60" fill="none"><path d="M115.393 0.00860623C109.207 0.00860623 103.455 1.88724 98.683 5.09423C98.3433 5.32208 95.9961 7.00295 95.893 7.08033C91.9938 10.0122 89.3758 10.5324 85.7905 9.62098C85.5756 9.56939 84.5438 9.21259 84.2214 9.08792C81.771 8.16365 79.1143 7.65637 76.3415 7.65637C63.9993 7.65637 54 17.6643 54 30.0022C54 42.3401 64.0036 52.3479 76.3415 52.3479C78.8134 52.3479 81.1907 51.9395 83.4089 51.2001C88.7568 49.6009 91.6628 50.0394 94.9988 52.4081C95.6694 52.8853 97.2858 53.917 97.6211 54.1621C102.595 57.829 108.738 60 115.397 60C131.965 60 145.395 46.5702 145.395 29.9979C145.395 13.4255 131.965 0 115.397 0L115.393 0.00860623Z" fill="#00795D"></path><path d="M104.573 34.642C103.592 35.605 102.247 36.1896 100.768 36.1638C99.7535 36.1509 98.8121 35.8457 98.0125 35.3384L96.0264 38.4938C97.3891 39.3493 98.9926 39.8609 100.712 39.8867C103.227 39.9254 105.514 38.9366 107.182 37.3073L104.573 34.6377V34.642Z" fill="white"></path><path d="M100.988 21.7705C95.9836 21.6974 91.8653 25.6868 91.7922 30.6908C91.7621 32.5651 92.3081 34.3148 93.2581 35.7764L109.676 28.7649C108.751 24.8099 105.235 21.8393 100.992 21.7748L100.988 21.7705ZM95.5494 31.3958C95.528 31.1809 95.5108 30.9702 95.5151 30.7467C95.5581 27.8019 97.9869 25.4504 100.932 25.4934C102.535 25.5192 103.958 26.25 104.921 27.3892L95.5494 31.3958Z" fill="white"></path><path d="M114.818 17.6904V35.187L117.849 36.4466L116.417 39.8943L113.412 38.6477C112.733 38.3596 112.277 37.9082 111.933 37.4053C111.598 36.8937 111.349 36.1844 111.349 35.2386V17.699H114.809L114.818 17.6904Z" fill="white"></path><path d="M88.4007 17.6904V35.187L91.4357 36.4466L90.0042 39.8943L87.0035 38.6477C86.3243 38.3596 85.8686 37.9082 85.5247 37.4053C85.1894 36.8937 84.9443 36.1844 84.9443 35.2386V17.699H88.405L88.4007 17.6904Z" fill="white"></path><path d="M129.752 26.0214C132.409 27.2982 133.526 30.4837 132.25 33.1448L135.607 34.7569C137.774 30.2473 135.878 24.835 131.364 22.6683C127.938 21.0218 123.987 21.7225 121.339 24.1342L123.849 26.8898C125.41 25.4669 127.736 25.0499 129.748 26.0214H129.752Z" fill="#CAD400"></path><path d="M125.131 35.6387C122.479 34.3619 121.357 31.1722 122.634 28.5197L119.276 26.9033C117.109 31.4129 119.005 36.8295 123.519 38.9962C126.95 40.6427 130.896 39.9376 133.544 37.526L131.034 34.7703C129.473 36.189 127.147 36.606 125.131 35.6344V35.6387Z" fill="white"></path><path d="M81.5225 35.8923V30.8281C81.5225 26.7872 78.8743 23.3695 75.2203 22.2088C74.3562 21.9337 73.4362 21.7832 72.4818 21.7832C71.5447 21.7832 70.6419 21.9294 69.7907 22.1916C68.3764 22.6344 67.1082 23.4125 66.085 24.4357C64.4472 26.0735 63.4369 28.3348 63.4326 30.8324C63.4326 35.8278 67.4822 39.8731 72.4775 39.8774C73.922 39.8774 75.2933 39.5334 76.5099 38.9273L75.044 35.5139C74.2788 35.9352 73.4104 36.176 72.4732 36.176C69.5242 36.1717 67.134 33.7815 67.1297 30.8324C67.1297 29.9254 67.3618 29.0742 67.7573 28.3262C68.4752 26.9849 69.7477 25.9833 71.2695 25.6307C71.6565 25.5405 72.0605 25.4889 72.4732 25.4889C73.2642 25.4889 74.0123 25.6651 74.6829 25.9746C76.5271 26.8172 77.8125 28.6744 77.8168 30.8324C77.8168 30.9872 77.8168 35.8536 77.8168 35.8536C77.8168 36.8036 78.0661 37.5087 78.3971 38.0202C78.7411 38.5232 79.1967 38.9746 79.876 39.2626L81.5698 39.9332L83.0013 36.4855L81.5096 35.8923H81.5225Z" fill="white"></path></svg> 