<?xml version="1.0" encoding="UTF-8"?> <svg xmlns="http://www.w3.org/2000/svg" width="200" height="60" viewBox="0 0 200 60" fill="none"><path d="M126.056 11.901C124.504 10.3442 122.331 9.3741 119.957 9.3741H97.2921V3.33363C97.2921 1.49181 95.7986 0 93.9568 0C93.9568 0 92.3034 0.00945909 91.5566 0.0514985C89.1798 0.184736 87.2046 1.15824 85.7278 2.70169C84.2494 4.24349 83.3326 6.36034 83.3326 8.66718V18.708H80.6241C78.2522 18.7065 76.0787 19.6781 74.5252 21.2349C72.9684 22.7867 71.9983 24.9602 72 27.3321V37.3312C71.9985 39.7066 72.9684 41.8785 74.5252 43.432C76.0787 44.9887 78.2522 45.9588 80.6241 45.9588H83.2909V56.6647C83.2909 58.5065 84.7827 60 86.6246 60H119.291C121.132 60 122.624 58.5065 122.624 56.6647V45.5355C123.934 45.1088 125.111 44.3787 126.056 43.432C127.613 41.8785 128.583 39.7066 128.583 37.3314V17.9998C128.583 15.6263 127.613 13.4544 126.056 11.901Z" fill="white"></path><path d="M91.354 55.3087C90.2239 55.3087 88.9421 54.6503 88.9421 52.5785C88.9421 52.2001 88.9421 49.7149 91.204 49.7149C91.8257 49.7149 92.3907 49.9216 92.9358 50.1299L93.0875 47.8881C92.2207 47.6614 91.6923 47.4164 90.7139 47.4164C87.587 47.4164 85.8535 49.5632 85.8535 52.5785C85.8535 54.3653 86.7003 57.5322 90.4872 57.5322C91.429 57.5322 92.3141 57.3422 93.1808 57.1172L93.0875 54.877C92.5407 55.0837 91.9757 55.3087 91.354 55.3087ZM116.984 43.3327V49.0182H116.946C116.588 48.1314 115.798 47.4164 114.423 47.4164C111.954 47.4164 110.976 49.6016 110.976 52.2385C110.976 55.3654 112.217 57.5322 114.423 57.5322C116.136 57.5322 116.794 56.4205 117.096 55.8171H117.134C117.134 56.4955 117.173 57.0038 117.209 57.3805H119.96V43.3327H116.984ZM115.496 55.3854C114.141 55.3854 114.064 53.5019 114.064 52.4835C114.064 50.92 114.178 49.4499 115.496 49.4499C116.701 49.4499 116.984 50.92 116.984 52.4835C116.984 53.6136 116.721 55.3854 115.496 55.3854ZM102.55 51.0334C102.55 48.8482 101.758 47.4164 98.3112 47.4164C97.2378 47.4164 95.9194 47.7914 95.1476 48.0381L95.2776 50.2416C96.4461 49.5449 97.2561 49.3749 98.0112 49.3749C98.4429 49.3749 99.838 49.3749 99.838 51.26H98.9346C97.8979 51.26 94.0725 51.2767 94.0725 54.5553C94.0725 56.3455 95.2776 57.5322 97.1045 57.5322C98.5196 57.5322 99.668 56.6272 99.7997 56.0238H99.838L99.9114 57.3805H102.625C102.568 56.7205 102.55 56.0621 102.55 54.612V51.0334ZM99.838 53.2185C99.838 55.6104 98.3296 55.6471 98.0679 55.6471C97.8212 55.6471 96.7861 55.6471 96.7861 54.3653C96.7861 52.7285 98.6496 52.6518 99.838 52.6518V53.2185ZM106.89 49.3365H106.854C106.835 48.7548 106.797 48.1498 106.779 47.5664H104.067C104.123 48.0748 104.142 48.6782 104.142 49.6199V57.3805H107.117V52.9918C107.117 51.5617 107.325 50.0533 109.059 50.0533C109.472 50.0533 109.737 50.0899 110.056 50.1666V47.4164H109.624C107.91 47.4164 107.495 48.2831 106.89 49.3365Z" fill="#EB690B"></path><path d="M91.6771 2.67363C88.4935 2.81865 85.9583 5.4472 85.9583 8.6658V21.3335H80.6245C77.3109 21.3335 74.624 24.0204 74.624 27.334V37.3332C74.624 40.6468 77.3109 43.332 80.6245 43.332H85.9583C89.2719 43.332 91.9571 40.6468 91.9571 37.9999V2.66697L91.6771 2.67363ZM85.9583 37.3332C85.9583 38.805 84.7632 40.0001 83.2914 40.0001C81.818 40.0001 80.6245 38.805 80.6245 37.3332V28.3291C80.6245 26.3056 83.0114 24.6671 85.9583 24.6671V37.3332Z" fill="#003A80"></path><path d="M119.957 12.0004H97.29V28.0001C97.29 31.3137 99.9769 34.0006 103.291 34.0006V15.334C106.236 15.334 108.624 16.9725 108.624 18.996V28.0001C108.624 31.3137 111.31 34.0006 114.623 34.0006V15.334C117.57 15.334 119.957 16.9725 119.957 18.996V43.333C123.271 43.333 125.957 40.6478 125.957 37.3342V18.0009C125.957 14.6873 123.271 12.0004 119.957 12.0004Z" fill="#003A80"></path></svg> 