<?xml version="1.0" encoding="UTF-8"?> <svg xmlns="http://www.w3.org/2000/svg" width="200" height="60" viewBox="0 0 200 60" fill="none"><g clip-path="url(#clip0_20_654)"><path fill-rule="evenodd" clip-rule="evenodd" d="M155.646 0H147.126L146.847 1.30826C146.193 4.35287 145.589 7.58818 144.893 10.5781L143.173 10.3007C140.298 9.94466 137.56 10.6715 135.233 12.1998L134.056 13.0213C133.319 13.5734 132.537 14.2682 131.891 14.9123C131.696 15.1057 131.621 15.2471 131.424 15.4418C130.712 16.1406 129.751 17.4568 129.203 18.277C128.172 19.8253 127.17 21.6923 126.523 23.6461C125.905 25.5104 125.244 28.2563 125.843 30.5715C126.364 32.5905 127.695 34.2255 129.653 34.8123C131.628 35.4031 134.992 34.6056 136.394 33.9281C137.95 33.1786 139.944 31.849 140.78 30.2647H141.192C141.192 30.7542 140.228 34.0215 140.194 34.4376H148.655L153.028 12.9533C153.317 11.5023 153.59 10.102 153.899 8.6524L155.646 0Z" fill="#B72F32"></path><path fill-rule="evenodd" clip-rule="evenodd" d="M109.46 35.0244C113.261 35.0244 116.592 33.7308 119.509 31.4997C119.709 31.3477 119.889 31.1823 120.089 31.0209C120.961 30.3168 121.964 29.2486 122.658 28.3604C123.404 27.4029 124.161 26.26 124.699 25.1718C125.614 23.3261 126.502 20.7589 126.502 18.5704C126.502 16.5807 126.297 15.2751 125.134 13.7095C124.718 13.148 124.062 12.5026 123.494 12.1185C123.051 11.8171 122.656 11.5517 122.175 11.3223C120.672 10.6075 118.647 10.1074 116.984 10.1074C114.304 10.1074 113.034 10.2701 110.527 11.1716C110.01 11.357 108.877 11.8864 108.371 12.1892C104.935 14.2402 102.579 16.8821 100.845 20.7642C100.496 21.547 100.277 22.2725 100.009 23.102C99.7476 23.9155 99.6089 24.8984 99.4876 25.8146L99.4209 27.3175C99.5943 28.8258 99.6876 29.666 100.588 31.0276C101.883 32.9933 104.293 34.2496 106.557 34.6963C107.438 34.871 108.439 35.0231 109.46 35.0231V35.0244Z" fill="#B72F32"></path><path fill-rule="evenodd" clip-rule="evenodd" d="M82.6653 35.0242C86.4661 35.0242 89.7974 33.7306 92.714 31.4994C93.8142 30.6579 95.0078 29.455 95.8626 28.3602C97.2896 26.5305 98.4511 24.4434 99.0939 22.1896C99.9048 19.3463 100.185 16.2004 98.3391 13.7092C97.6056 12.7197 96.4854 11.8488 95.3799 11.3221C95.1278 11.2007 94.8984 11.11 94.637 11.0073L93.8529 10.734C91.4417 9.94847 88.7252 9.9378 86.226 10.4366C84.7657 10.7273 83.3908 11.2247 82.1185 11.9115L81.0917 12.4716C80.913 12.585 80.7769 12.6837 80.5982 12.801C80.2488 13.0344 79.9701 13.2238 79.6367 13.4838C77.2042 15.3829 75.3865 17.7727 74.0489 20.7653C73.6995 21.5481 73.4821 22.2736 73.2141 23.1031C72.9514 23.9166 72.814 24.8995 72.6927 25.8156L72.626 27.3186C72.7967 28.8269 72.8927 29.6671 73.7915 31.0287C74.4677 32.0529 75.2398 32.6944 76.2494 33.3318C77.9804 34.424 80.5596 35.0242 82.6667 35.0242H82.6653Z" fill="#B72F32"></path><path fill-rule="evenodd" clip-rule="evenodd" d="M61.9808 10.5785H58.9842L58.2934 14.1779C58.2387 14.4552 58.128 15.2221 58.044 15.3968H60.9819L59.6883 21.8021C59.5989 22.3555 59.4723 22.8609 59.3616 23.4144C59.2455 23.9945 59.1695 24.4959 59.0428 25.0334L58.4014 28.2727C58.028 30.1437 57.4238 32.8656 57.1104 34.6793L55.8115 41.1366H64.3906C64.3906 40.7352 64.5999 39.9403 64.6786 39.5456L69.5023 15.3381H75.7302L76.4503 11.768C76.5223 11.404 76.6704 10.9519 76.6704 10.5185H70.3824C70.4064 10.2251 70.5038 9.80098 70.5505 9.51159C70.7212 8.46605 70.9492 7.66722 71.44 6.75771C71.9628 5.78818 73.1083 5.0547 74.6139 5.0547C76.2383 5.0547 77.6466 5.11738 79.1615 5.61881C79.4869 5.72684 79.955 5.96955 80.2537 5.99356L81.2539 0.99789C80.9632 0.859196 80.4138 0.713833 80.043 0.620481C79.5736 0.503124 79.2002 0.407105 78.7014 0.31642C77.7306 0.141719 76.709 0.0283626 75.6795 -0.000976562H74.6086C72.9243 0.0497002 71.2573 0.348427 69.793 0.996556C68.6128 1.51933 67.1378 2.31015 66.2256 3.24501C65.3548 4.13585 64.9787 4.39857 64.2239 5.53613C63.213 7.06044 62.4235 8.67143 61.9794 10.5785H61.9808Z" fill="#B72F32"></path><path fill-rule="evenodd" clip-rule="evenodd" d="M108.932 45.4862C108.776 45.7182 108.266 46.149 108.005 46.3811L107.521 46.7798C106.324 47.7106 105.626 48.2041 104.285 49.0082L102.501 49.9871C102.029 50.1818 101.729 50.3698 101.258 50.5659C98.1561 51.8541 96.177 52.553 92.687 53.0437L89.3036 53.3038L87.5233 53.2011C85.1268 52.889 84.0386 52.7863 81.5794 51.7995C79.2469 50.8633 76.6504 49.2563 74.8914 47.4986C74.574 47.1812 74.2993 46.9038 73.9806 46.5878C72.615 45.2222 71.444 43.4298 70.5759 41.7041C70.2398 41.0333 70.5332 41.136 69.7344 41.136C69.7424 41.4294 69.8664 41.8775 69.9344 42.1722C70.4439 44.41 71.34 46.6918 72.4923 48.6042C72.8137 49.1349 73.1137 49.6364 73.4711 50.1525L74.586 51.6234C75.0741 52.2489 76.5171 53.7999 77.0972 54.284C78.5721 55.5175 79.0896 55.9643 80.7632 56.9645C83.8825 58.8329 87.85 60.0011 91.8881 60.0011C96.5357 60.0011 98.4775 59.7757 102.804 58.5795C103.23 58.4621 103.677 58.2941 104.132 58.1434C105.3 57.7553 106.77 57.1125 107.813 56.5938C108.011 56.4937 108.163 56.4071 108.343 56.3017C109.368 55.7056 109.962 55.4322 111.079 54.6894L112.618 53.5838C113.034 53.3051 113.767 52.5956 114.099 52.4196L115.333 55.9456C115.562 56.5177 115.742 57.1205 115.957 57.7313C116.065 58.0407 116.168 58.3034 116.265 58.5995C116.36 58.8849 116.541 59.2303 116.566 59.5317H116.685C116.685 59.1609 119.559 44.8848 120.078 42.2976C120.131 42.0268 120.244 41.3094 120.328 41.136C120.067 41.1307 119.915 41.0747 119.564 41.0773H106.696C106.318 41.0773 103.354 41.0306 103.353 41.0333C103.149 41.0867 103.256 41.1053 103.342 41.184L107.955 44.6967C108.145 44.8394 108.266 44.9448 108.45 45.0835C108.614 45.2061 108.824 45.3288 108.929 45.4862H108.932Z" fill="#B72F32"></path><path fill-rule="evenodd" clip-rule="evenodd" d="M44 34.4372H52.5204L53.1032 31.494C53.3032 30.4898 53.4926 29.4829 53.6899 28.4974L56.0504 16.579C56.1464 16.0962 56.2558 15.6001 56.3385 15.104L57.22 10.5791H48.7583L47.8714 14.9813C47.2833 17.8979 44.008 34.0238 44 34.4372Z" fill="#B72F32"></path><path fill-rule="evenodd" clip-rule="evenodd" d="M49.5238 6.93472H57.8081C58.0695 6.93472 58.2029 5.75582 58.2935 5.30239L59.3364 0H50.9921C50.732 0.0560112 50.8467 0.0653464 50.7227 0.729479L49.6652 6.01854C49.6105 6.32393 49.5225 6.64666 49.5225 6.93472H49.5238Z" fill="#B72F32"></path></g><defs><clipPath id="clip0_20_654"><rect width="111.646" height="60" fill="white" transform="translate(44)"></rect></clipPath></defs></svg> 