<?xml version="1.0" encoding="UTF-8"?> <svg xmlns="http://www.w3.org/2000/svg" width="200" height="60" viewBox="0 0 200 60" fill="none"><path d="M52.9219 20.6723C47.9855 8.72064 34.3156 3.04004 22.4095 7.98588C10.5034 12.9317 4.84751 26.6282 9.78576 38.5818C14.724 50.5353 28.392 56.2121 40.2962 51.2663C52.2004 46.3204 57.862 32.624 52.9219 20.6723Z" fill="black"></path><path d="M39.742 9.34184C28.5745 4.70546 15.7665 10.031 11.1359 21.2365C6.50519 32.4421 11.8061 45.2823 22.9717 49.9167C34.1374 54.5512 46.9453 49.2295 51.576 38.0239C56.2067 26.8184 50.9077 13.9744 39.742 9.34184Z" fill="black"></path><path d="M50.7632 26.4522C50.7632 15.6834 42.0752 6.9707 31.352 6.9707C20.6287 6.9707 11.9502 15.6834 11.9502 26.4522C11.9502 37.221 20.6382 45.9337 31.352 45.9337C42.0657 45.9337 50.7632 37.2116 50.7632 26.4522Z" fill="#DDE460"></path><path d="M31.3521 46.4401C20.2263 46.4401 11.208 37.3933 11.208 26.222C11.208 15.0506 20.2263 6 31.3521 6C42.4779 6 51.4981 15.0544 51.4981 26.222C51.4981 37.3895 42.4798 46.4401 31.3521 46.4401ZM31.3521 7.4961C27.6359 7.47956 23.9984 8.56693 20.9009 10.6203C17.8034 12.6737 15.3854 15.6007 13.9535 19.03C12.5216 22.4594 12.1403 26.2367 12.8579 29.8831C13.5756 33.5294 15.3598 36.8806 17.9844 39.5116C20.609 42.1426 23.9558 43.935 27.6004 44.6615C31.245 45.388 35.0233 45.0159 38.4561 43.5924C41.889 42.1689 44.8218 39.758 46.8827 36.6655C48.9437 33.5731 50.0399 29.9382 50.0324 26.222C50.0267 15.8727 41.6672 7.47521 31.3521 7.46382V7.4961Z" fill="black"></path><path d="M44.215 35.3724C44.215 26.449 37.0003 19.2002 28.1035 19.2002C19.2067 19.2002 11.9863 26.4414 11.9863 35.3724C11.9863 44.3034 19.201 51.5428 28.0959 51.5428C36.9908 51.5428 44.2074 44.3015 44.2074 35.3724H44.215Z" fill="#A7DCDA"></path><path d="M28.1383 52.2804C26.9404 52.2805 25.7457 52.1532 24.5747 51.9007C15.4823 49.9489 9.69158 40.9629 11.6414 31.8344C12.0992 29.6678 12.9798 27.6128 14.2328 25.787C15.4859 23.9612 17.0867 22.4005 18.9438 21.1942C20.8008 19.9879 22.8775 19.1598 25.055 18.7572C27.2325 18.3546 29.4681 18.3855 31.6337 18.848C40.7298 20.8036 46.5206 29.7877 44.5764 38.9162C43.7771 42.6831 41.7127 46.063 38.7265 48.4942C35.7402 50.9255 32.0119 52.2615 28.1611 52.2804H28.1383ZM28.1004 19.9321C24.5984 19.9221 21.1972 21.1035 18.4556 23.2822C15.7139 25.4609 13.7947 28.5073 13.0134 31.921C12.2321 35.3346 12.6352 38.9125 14.1563 42.0669C15.6774 45.2212 18.2262 47.7644 21.3838 49.2785C24.5415 50.7927 28.1203 51.1878 31.5322 50.399C34.9442 49.6102 37.9864 47.6844 40.159 44.9379C42.3317 42.1914 43.5056 38.7877 43.4879 35.2858C43.4701 31.7839 42.2619 28.3921 40.0615 25.6678C38.6209 23.8812 36.7993 22.4391 34.7298 21.4467C32.6604 20.4544 30.3954 19.9369 28.1004 19.9321Z" fill="black"></path><path d="M52.169 36.053C52.1611 34.0781 51.5683 32.1498 50.4655 30.5116C49.3626 28.8733 47.7991 27.5986 45.9723 26.8482C44.1455 26.0978 42.1374 25.9055 40.2014 26.2954C38.2654 26.6854 36.4883 27.6402 35.0945 29.0393C33.7007 30.4384 32.7527 32.2191 32.37 34.1565C31.9874 36.094 32.1874 38.1014 32.9447 39.9253C33.702 41.7492 34.9827 43.3079 36.6251 44.4045C38.2675 45.5012 40.198 46.0867 42.1729 46.0871C43.4881 46.0848 44.7899 45.8235 46.0041 45.3179C47.2182 44.8124 48.3209 44.0726 49.249 43.1407C50.1771 42.2089 50.9125 41.1033 51.4132 39.8872C51.9139 38.671 52.1701 37.3682 52.1671 36.053H52.169Z" fill="#F6DF3F"></path><path d="M42.1749 46.8205C40.0437 46.8288 37.9579 46.2043 36.1818 45.0263C34.4057 43.8482 33.0192 42.1696 32.1978 40.2029C31.3765 38.2363 31.1573 36.0701 31.568 33.9788C31.9787 31.8874 33.0009 29.965 34.505 28.4551C36.0091 26.9451 37.9275 25.9155 40.0172 25.4967C42.1069 25.0778 44.2739 25.2886 46.2438 26.1023C48.2136 26.916 49.8977 28.2959 51.0826 30.0675C52.2675 31.839 52.9001 33.9223 52.9001 36.0536C52.9028 37.4648 52.6276 38.8627 52.0901 40.1675C51.5526 41.4723 50.7633 42.6585 49.7674 43.6583C48.7715 44.6581 47.5884 45.452 46.2857 45.9945C44.983 46.5371 43.5861 46.8178 42.1749 46.8205ZM42.1749 26.7561C40.3333 26.7483 38.5307 27.2871 36.9956 28.3046C35.4604 29.322 34.2618 30.7722 33.5516 32.4714C32.8413 34.1706 32.6514 36.0424 33.0059 37.8497C33.3603 39.6569 34.2432 41.3183 35.5426 42.6233C36.8421 43.9284 38.4997 44.8184 40.3054 45.1806C42.1111 45.5428 43.9837 45.3609 45.6859 44.658C47.3882 43.955 48.8435 42.7627 49.8675 41.2319C50.8915 39.7012 51.4382 37.9009 51.4382 36.0593C51.4432 34.8395 51.2073 33.6308 50.744 32.5024C50.2808 31.3741 49.5993 30.3483 48.7386 29.4839C47.878 28.6196 46.8551 27.9337 45.7288 27.4656C44.6024 26.9975 43.3947 26.7564 42.1749 26.7561ZM71.3943 30.7432H67.8667L66.4333 37.5554H62.4026L66.3213 19.1542H73.9157C77.0047 19.1542 79.114 21.3186 79.114 23.8152C79.1083 28.7497 75.1763 30.7375 71.3962 30.7375L71.3943 30.7432ZM71.8918 21.8578H69.7425L68.4135 28.0434H69.7919C72.4955 28.0434 74.996 27.4301 74.996 24.2025C75.0016 22.733 73.4657 21.8521 71.8937 21.8521L71.8918 21.8578ZM91.9542 32.638C91.5773 34.2503 91.3554 35.8951 91.2916 37.5497H87.3995C87.4564 36.8624 87.7071 35.5618 87.9273 34.2974C86.9324 36.0877 85.3129 37.8553 82.6017 37.8553C79.8146 37.8553 78.4058 35.9871 78.4058 33.4411C78.4058 27.2308 83.9535 23.3937 89.2392 23.3937C90.8397 23.3937 92.9111 23.6709 93.8737 24.0298L91.9542 32.638ZM88.5007 25.9606C85.3262 25.9606 82.4252 29.3211 82.4252 33.0272C82.4252 34.267 82.8656 35.2903 84.2934 35.2903C86.2243 35.2903 88.0716 32.6323 88.85 29.3136L89.5962 26.1125C89.2424 25.9967 88.8707 25.9453 88.4988 25.9606H88.5007ZM106.727 35.7004C105.487 41.2766 103.443 43.8131 97.3197 43.8131C95.6885 43.8151 94.0672 43.5588 92.5162 43.0537L93.2472 40.3083C94.4719 40.951 95.8379 41.2773 97.2209 41.2576C100.669 41.2576 101.994 39.4369 102.63 36.8415L103.071 35.0226C101.741 36.7902 100.367 37.5592 98.0772 37.5592C95.2293 37.5592 93.8528 35.7954 93.8528 33.4506C93.8528 27.2137 99.5372 23.4336 104.838 23.4336C106.353 23.439 107.862 23.642 109.324 24.0374L106.727 35.7004ZM104.024 25.991C100.849 25.991 97.8968 29.2471 97.8968 33.1088C97.8968 34.3486 98.3373 35.26 99.691 35.26C102.286 35.26 103.72 31.9507 104.299 29.4939L105.098 26.1695C104.751 26.0572 104.389 25.997 104.024 25.991ZM122.917 22.5185C121.73 21.9337 120.428 21.6223 119.106 21.6072C117.426 21.6072 114.912 22.3799 114.912 24.2842C114.912 26.9593 122.199 26.5492 122.199 31.6241C122.199 35.6549 118.388 37.861 113.727 37.861C111.901 37.8932 110.082 37.6218 108.345 37.0579L109.313 34.0714C110.712 34.7902 112.27 35.1448 113.843 35.1024C115.804 35.0758 117.982 34.191 117.982 32.1463C117.982 29.2528 110.756 29.5547 110.756 24.8898C110.756 20.506 115.14 18.877 119.345 18.877C120.892 18.8749 122.426 19.1547 123.872 19.7029L122.917 22.5185ZM127.283 31.7058C127.151 32.1251 127.087 32.5629 127.093 33.0025C127.093 34.8707 128.527 35.6169 130.211 35.6169C131.716 35.5908 133.186 35.1514 134.458 34.3467L134.323 36.8054C132.671 37.5604 130.867 37.928 129.051 37.88C126.044 37.88 123.201 36.5814 123.201 33.1886C123.201 27.6959 127.378 23.4488 132.28 23.4488C134.521 23.4488 137.053 24.2481 137.053 26.7865C137.069 31.1286 130.748 31.7058 127.287 31.7058H127.283ZM131.944 25.6644C129.856 25.6644 128.337 27.844 127.642 29.6363C130.126 29.6363 133.6 29.1958 133.6 27.0219C133.632 25.9967 132.886 25.6625 131.96 25.6625L131.944 25.6644ZM149.791 35.7061C148.549 41.2823 146.51 43.8188 140.38 43.8188C138.75 43.8207 137.13 43.5644 135.58 43.0594L136.328 40.3235C137.553 40.9664 138.919 41.2927 140.302 41.2728C143.752 41.2728 145.075 39.4521 145.709 36.8567L146.153 35.0378C144.824 36.8054 143.45 37.5743 141.156 37.5743C138.308 37.5743 136.938 35.8105 136.938 33.4658C136.938 27.2289 142.62 23.4488 147.917 23.4488C149.431 23.4497 150.937 23.6476 152.4 24.0374L149.791 35.7061ZM147.088 25.9967C143.913 25.9967 140.963 29.2528 140.963 33.1145C140.963 34.3543 141.403 35.2657 142.755 35.2657C145.348 35.2657 146.782 31.9564 147.365 29.4996L148.164 26.1752C147.816 26.062 147.452 26.0018 147.086 25.9967H147.088ZM165.079 34.4398C164.85 35.4687 164.675 36.5085 164.553 37.5554H160.993L161.373 35.0758C160.186 36.701 158.715 37.861 156.436 37.861C154.158 37.861 152.639 36.7409 152.639 34.4436C152.63 33.915 152.676 33.3869 152.776 32.8677L154.733 23.6804H158.544L156.814 32.0342C156.691 32.5036 156.617 32.9847 156.594 33.4696C156.594 34.5195 157.091 35.2922 158.416 35.2922C160.486 35.2922 161.454 33.3936 161.834 31.6203L163.543 23.6728H167.34L165.079 34.4398ZM177.524 27.0144C177.165 26.8843 176.786 26.8199 176.404 26.8245C173.89 26.8245 172.485 29.2566 172.014 31.4647L170.719 37.5592H166.88L169.159 26.7979C169.396 25.7872 169.581 24.7651 169.713 23.7355H173.298L172.776 26.5834C173.63 24.8746 175.316 23.4089 177.302 23.4089C177.674 23.3998 178.045 23.4466 178.403 23.5475L177.524 27.0144ZM183.096 37.861C180.034 37.861 177.211 36.177 177.211 32.8373C177.211 27.4852 180.66 23.4298 186.151 23.4298C189.214 23.4298 192.001 25.0588 192.001 28.4231C192.001 33.7202 188.496 37.861 183.089 37.861H183.096ZM185.498 25.9967C182.65 25.9967 181.222 30.0217 181.222 32.4235C181.222 34.079 181.857 35.296 183.649 35.296C186.436 35.296 188.038 31.2406 188.038 28.8636C188.038 27.2042 187.29 25.991 185.498 25.991V25.9967Z" fill="black"></path></svg> 