<?xml version="1.0" encoding="UTF-8"?> <svg xmlns="http://www.w3.org/2000/svg" width="214" height="202" viewBox="0 0 214 202" fill="none"><path d="M169.159 171.524C130.515 200.376 95.4627 202.555 65.7885 200.376C37.6053 198.318 -19.421 177.133 8.4933 108.457C59.2132 -16.3309 163.366 -25.8339 202.573 46.0016C230.463 97.1167 191.843 154.6 169.184 171.499L169.159 171.524Z" stroke="#FF234B" stroke-width="1.5" stroke-miterlimit="10"></path><path d="M73.8359 139.12C72.9639 139.12 72.1999 138.936 71.5439 138.568C70.8959 138.2 70.3919 137.692 70.0319 137.044C69.6799 136.388 69.5039 135.636 69.5039 134.788C69.5039 133.948 69.6799 133.204 70.0319 132.556C70.3919 131.9 70.8959 131.392 71.5439 131.032C72.1999 130.664 72.9639 130.48 73.8359 130.48C74.5879 130.48 75.2599 130.62 75.8519 130.9C76.4439 131.172 76.9279 131.56 77.3039 132.064C77.6879 132.568 77.9399 133.156 78.0599 133.828H76.5599C76.3919 133.18 76.0679 132.68 75.5879 132.328C75.1159 131.968 74.5319 131.788 73.8359 131.788C73.2599 131.788 72.7559 131.912 72.3239 132.16C71.8919 132.4 71.5599 132.748 71.3279 133.204C71.0959 133.66 70.9799 134.196 70.9799 134.812C70.9799 135.436 71.0959 135.976 71.3279 136.432C71.5599 136.88 71.8919 137.224 72.3239 137.464C72.7559 137.696 73.2599 137.812 73.8359 137.812C74.5319 137.812 75.1199 137.636 75.5999 137.284C76.0799 136.924 76.3999 136.428 76.5599 135.796H78.0719C77.9359 136.46 77.6799 137.044 77.3039 137.548C76.9279 138.044 76.4439 138.432 75.8519 138.712C75.2599 138.984 74.5879 139.12 73.8359 139.12Z" fill="#FF6400"></path><path d="M83.2695 139.12C82.3975 139.12 81.6335 138.936 80.9775 138.568C80.3295 138.2 79.8255 137.692 79.4655 137.044C79.1135 136.388 78.9375 135.636 78.9375 134.788C78.9375 133.948 79.1135 133.204 79.4655 132.556C79.8255 131.9 80.3295 131.392 80.9775 131.032C81.6335 130.664 82.3975 130.48 83.2695 130.48C84.1335 130.48 84.8895 130.664 85.5375 131.032C86.1855 131.392 86.6855 131.9 87.0375 132.556C87.3895 133.204 87.5655 133.948 87.5655 134.788C87.5655 135.636 87.3895 136.388 87.0375 137.044C86.6855 137.692 86.1855 138.2 85.5375 138.568C84.8895 138.936 84.1335 139.12 83.2695 139.12ZM83.2695 137.812C83.8455 137.812 84.3455 137.696 84.7695 137.464C85.1935 137.224 85.5175 136.88 85.7415 136.432C85.9735 135.976 86.0895 135.436 86.0895 134.812C86.0895 134.188 85.9735 133.648 85.7415 133.192C85.5175 132.736 85.1935 132.388 84.7695 132.148C84.3455 131.908 83.8455 131.788 83.2695 131.788C82.6855 131.788 82.1775 131.908 81.7455 132.148C81.3215 132.388 80.9935 132.74 80.7615 133.204C80.5295 133.66 80.4135 134.196 80.4135 134.812C80.4135 135.436 80.5295 135.976 80.7615 136.432C80.9935 136.88 81.3215 137.224 81.7455 137.464C82.1775 137.696 82.6855 137.812 83.2695 137.812Z" fill="#FF6400"></path><path d="M95.7343 139.096C95.5663 139.096 95.4063 139.056 95.2543 138.976C95.1023 138.888 94.9623 138.768 94.8343 138.616L94.8103 138.592L89.6143 131.8L90.5263 131.872V139H89.0863V131.38C89.0863 131.092 89.1583 130.876 89.3023 130.732C89.4463 130.58 89.6343 130.504 89.8663 130.504C90.0023 130.504 90.1303 130.544 90.2503 130.624C90.3783 130.696 90.5063 130.808 90.6343 130.96L96.1063 138.1L95.1343 137.968V130.6H96.5743V138.208C96.5743 138.488 96.4943 138.708 96.3343 138.868C96.1823 139.02 95.9823 139.096 95.7343 139.096Z" fill="#FF6400"></path><path d="M101.482 139.12C100.338 139.12 99.4697 138.864 98.8777 138.352C98.2937 137.84 98.0017 137.128 98.0017 136.216H99.5017C99.5017 136.784 99.6857 137.208 100.054 137.488C100.43 137.76 100.934 137.896 101.566 137.896C102.134 137.896 102.57 137.796 102.874 137.596C103.186 137.396 103.342 137.088 103.342 136.672C103.342 136.384 103.266 136.156 103.114 135.988C102.97 135.812 102.766 135.672 102.502 135.568C102.238 135.456 101.858 135.336 101.362 135.208C101.29 135.2 101.202 135.18 101.098 135.148C100.458 134.988 99.9417 134.816 99.5497 134.632C99.1577 134.448 98.8497 134.204 98.6257 133.9C98.4017 133.596 98.2897 133.196 98.2897 132.7C98.2897 131.972 98.5697 131.42 99.1297 131.044C99.6897 130.668 100.434 130.48 101.362 130.48C102.082 130.48 102.674 130.588 103.138 130.804C103.61 131.012 103.958 131.3 104.182 131.668C104.406 132.036 104.518 132.46 104.518 132.94H103.054C103.054 132.548 102.898 132.244 102.586 132.028C102.282 131.804 101.85 131.692 101.29 131.692C100.834 131.692 100.47 131.768 100.198 131.92C99.9257 132.064 99.7897 132.312 99.7897 132.664C99.7897 132.92 99.8577 133.128 99.9937 133.288C100.138 133.44 100.33 133.564 100.57 133.66C100.818 133.748 101.17 133.852 101.626 133.972C101.634 133.972 101.638 133.972 101.638 133.972C101.694 133.98 101.746 133.992 101.794 134.008C102.498 134.184 103.054 134.356 103.462 134.524C103.87 134.692 104.198 134.936 104.446 135.256C104.702 135.568 104.83 135.988 104.83 136.516C104.83 137.316 104.542 137.952 103.966 138.424C103.39 138.888 102.562 139.12 101.482 139.12Z" fill="#FF6400"></path><path d="M109.483 139.12C108.619 139.12 107.931 138.964 107.419 138.652C106.907 138.332 106.543 137.904 106.327 137.368C106.119 136.832 106.015 136.208 106.015 135.496V130.6H107.455V135.388C107.455 135.9 107.515 136.34 107.635 136.708C107.763 137.068 107.975 137.352 108.271 137.56C108.567 137.76 108.971 137.86 109.483 137.86C109.995 137.86 110.399 137.76 110.695 137.56C110.991 137.352 111.199 137.068 111.319 136.708C111.439 136.34 111.499 135.9 111.499 135.388V130.6H112.939V135.496C112.939 136.208 112.835 136.832 112.627 137.368C112.419 137.904 112.059 138.332 111.547 138.652C111.035 138.964 110.347 139.12 109.483 139.12Z" fill="#FF6400"></path><path d="M115.698 139C115.378 139 115.142 138.928 114.99 138.784C114.846 138.632 114.774 138.4 114.774 138.088V130.6H116.214V138.04L115.782 137.704H120.03V139H115.698Z" fill="#FF6400"></path><path d="M122.244 131.896H119.796V130.6H126.108V131.896H123.684V139H122.244V131.896Z" fill="#FF6400"></path><path d="M131.023 139.12C130.151 139.12 129.387 138.936 128.731 138.568C128.083 138.2 127.579 137.692 127.219 137.044C126.867 136.388 126.691 135.636 126.691 134.788C126.691 133.948 126.867 133.204 127.219 132.556C127.579 131.9 128.083 131.392 128.731 131.032C129.387 130.664 130.151 130.48 131.023 130.48C131.887 130.48 132.643 130.664 133.291 131.032C133.939 131.392 134.439 131.9 134.791 132.556C135.143 133.204 135.319 133.948 135.319 134.788C135.319 135.636 135.143 136.388 134.791 137.044C134.439 137.692 133.939 138.2 133.291 138.568C132.643 138.936 131.887 139.12 131.023 139.12ZM131.023 137.812C131.599 137.812 132.099 137.696 132.523 137.464C132.947 137.224 133.271 136.88 133.495 136.432C133.727 135.976 133.843 135.436 133.843 134.812C133.843 134.188 133.727 133.648 133.495 133.192C133.271 132.736 132.947 132.388 132.523 132.148C132.099 131.908 131.599 131.788 131.023 131.788C130.439 131.788 129.931 131.908 129.499 132.148C129.075 132.388 128.747 132.74 128.515 133.204C128.283 133.66 128.167 134.196 128.167 134.812C128.167 135.436 128.283 135.976 128.515 136.432C128.747 136.88 129.075 137.224 129.499 137.464C129.931 137.696 130.439 137.812 131.023 137.812Z" fill="#FF6400"></path><path d="M136.84 130.6H140.548C141.188 130.6 141.736 130.704 142.192 130.912C142.648 131.12 142.996 131.42 143.236 131.812C143.476 132.196 143.596 132.66 143.596 133.204C143.596 133.996 143.328 134.624 142.792 135.088C142.256 135.544 141.508 135.772 140.548 135.772H138.136V134.572H140.476C140.988 134.572 141.388 134.46 141.676 134.236C141.972 134.012 142.12 133.68 142.12 133.24C142.12 132.792 141.972 132.448 141.676 132.208C141.38 131.968 140.98 131.848 140.476 131.848H137.908L138.28 131.392V139H136.84V130.6ZM139.648 135.1H141.256L143.728 139H142.072L139.648 135.1Z" fill="#FF6400"></path><path d="M145.362 130.6H146.802V139H145.362V130.6ZM145.362 130.6H146.802V131.836H145.362V130.6ZM145.362 137.764H146.802V139H145.362V137.764Z" fill="#FF6400"></path><path d="M150.83 131.452C150.918 131.204 151.018 131.012 151.13 130.876C151.25 130.732 151.378 130.636 151.514 130.588C151.658 130.532 151.83 130.504 152.03 130.504C152.23 130.504 152.398 130.532 152.534 130.588C152.67 130.636 152.794 130.732 152.906 130.876C153.026 131.012 153.13 131.204 153.218 131.452L156.002 139H154.49L152.03 131.896L149.546 139H148.034L150.83 131.452ZM149.618 135.736H154.406V136.96H149.618V135.736Z" fill="#FF6400"></path><path d="M62.0015 102.812L51.851 89.7757C51.3785 89.1851 50.8706 88.7402 50.3233 88.4449C49.7799 88.1496 49.1972 88 48.583 88C47.5435 88 46.6852 88.3425 46.0119 89.0276C45.3386 89.7127 45 90.7207 45 92.0437V113.195H51.7407V99.4656L61.218 111.636L61.2888 111.742C61.7849 112.309 62.3637 112.754 63.0291 113.073C63.6906 113.392 64.3521 113.553 65.0175 113.553C66.1042 113.553 66.998 113.211 67.6988 112.526C68.3957 111.841 68.7462 110.88 68.7462 109.651V88.3583H62.0054V102.812H62.0015Z" fill="#FF234B"></path><path d="M92.0633 89.6183C90.0986 88.5434 87.7913 88.004 85.1414 88.004C82.4916 88.004 80.1686 88.5434 78.1684 89.6183C76.1682 90.6932 74.6248 92.1972 73.5381 94.1265C72.4513 96.0559 71.9041 98.2608 71.9041 100.745C71.9041 103.23 72.4474 105.47 73.5381 107.399C74.6248 109.329 76.1682 110.837 78.1684 111.923C80.1686 113.01 82.4916 113.557 85.1414 113.557C87.7913 113.557 90.0986 113.018 92.0633 111.943C94.028 110.868 95.536 109.36 96.5873 107.419C97.6386 105.478 98.1662 103.253 98.1662 100.749C98.1662 98.245 97.6386 96.0598 96.5873 94.1305C95.536 92.2012 94.0241 90.7011 92.0633 89.6222V89.6183ZM90.5553 104.379C90.0946 105.36 89.4056 106.1 88.4961 106.596C87.5865 107.092 86.4683 107.34 85.1414 107.34C83.8145 107.34 82.6806 107.088 81.7356 106.576C80.7907 106.069 80.0662 105.328 79.5701 104.36C79.074 103.391 78.8259 102.206 78.8259 100.812C78.8259 99.4183 79.074 98.2214 79.5701 97.2292C80.0662 96.237 80.7867 95.4849 81.7356 94.977C82.6806 94.4691 83.8185 94.2132 85.1414 94.2132C86.4644 94.2132 87.5826 94.4691 88.4961 94.977C89.4056 95.4849 90.0946 96.233 90.5553 97.2134C91.016 98.1938 91.2483 99.3947 91.2483 100.816C91.2483 102.237 91.016 103.403 90.5553 104.383V104.379Z" fill="#FF234B"></path><path d="M123.436 103.997L120.168 91.6223C119.861 90.4411 119.393 89.571 118.767 89.0158C118.141 88.4606 117.318 88.1811 116.302 88.1811C115.38 88.1811 114.585 88.437 113.924 88.9449C113.262 89.4529 112.754 90.3466 112.396 91.6263L109.093 104.139L105.013 88.3622H98.0916L104.265 108.911C104.643 110.215 105.053 111.199 105.49 111.876C105.927 112.549 106.395 112.998 106.892 113.227C107.388 113.451 107.978 113.565 108.667 113.565C109.356 113.565 109.986 113.459 110.494 113.246C111.002 113.034 111.482 112.597 111.931 111.935C112.38 111.274 112.782 110.301 113.136 109.025L116.192 98.1859L119.239 108.742C119.617 110.116 120.027 111.144 120.464 111.829C120.901 112.514 121.373 112.979 121.881 113.215C122.389 113.451 123.035 113.569 123.814 113.569C124.594 113.569 125.184 113.455 125.661 113.231C126.133 113.006 126.566 112.561 126.956 111.9C127.346 111.238 127.744 110.242 128.145 108.919L134.319 88.3701H127.468L123.424 104.013L123.436 103.997Z" fill="#FF234B"></path><path d="M136.776 108.868C136.776 110.124 137.185 111.156 138 111.974C138.815 112.793 139.851 113.199 141.107 113.199H154.84V107.167H143.521V103.3H153.281V98.1189H143.521V94.3942H154.84V88.3622H136.776V108.876V108.868Z" fill="#191919"></path><path d="M172.334 113.199H180L174.964 104.104C175.736 103.773 176.429 103.36 177.035 102.852C178.776 101.395 179.642 99.3671 179.642 96.7645C179.642 94.9652 179.252 93.4414 178.472 92.1854C177.693 90.9333 176.563 89.9805 175.082 89.3269C173.602 88.6772 171.834 88.3504 169.779 88.3504H158.353V113.191H165.093V105.029H167.971L172.33 113.191L172.334 113.199ZM165.093 94.0359H168.924C170.153 94.0359 171.094 94.2722 171.747 94.7447C172.397 95.2171 172.724 95.9416 172.724 96.9102C172.724 97.8788 172.405 98.56 171.767 99.0206C171.129 99.4813 170.18 99.7136 168.928 99.7136H165.097V94.0359H165.093Z" fill="#191919"></path></svg> 