<?xml version="1.0" encoding="UTF-8"?> <svg xmlns="http://www.w3.org/2000/svg" width="343" height="122" viewBox="0 0 343 122" fill="none"><path d="M233.17 81.93H130.3C127.146 81.93 124.59 84.4864 124.59 87.64V116.22C124.59 119.374 127.146 121.93 130.3 121.93H233.17C236.324 121.93 238.88 119.374 238.88 116.22V87.64C238.88 84.4864 236.324 81.93 233.17 81.93Z" fill="white"></path><path d="M211.84 110.2H203.86C202.66 110.2 202.43 109.83 202.9 109.34C204.42 108.08 207.37 105.78 209.47 104.09C211.57 102.4 213.91 99.73 213.91 96.41C213.91 89.8 207.4 89.5 205.46 89.5H190.3C189.04 89.5 188.03 90.52 188.03 91.77C188.03 93.02 189.05 94.04 190.3 94.04H203.99C206.44 94.04 208.5 94.99 208.5 96.76C208.5 98.07 207.87 98.79 207.24 99.33C204.87 101.33 200.01 105.55 197.81 107.41C197.46 107.7 196.07 109.02 196.44 111.33C197.05 115.13 201.07 114.74 201.07 114.74H211.84C213.1 114.74 214.11 113.72 214.11 112.47C214.11 111.22 213.09 110.2 211.84 110.2Z" fill="#191919"></path><path d="M179.66 91.78C179.66 90.2722 178.44 89.05 176.935 89.05C175.43 89.05 174.21 90.2722 174.21 91.78V112.24C174.21 113.748 175.43 114.97 176.935 114.97C178.44 114.97 179.66 113.748 179.66 112.24V91.78Z" fill="#191919"></path><path d="M190.47 89.54C191.78 89.82 192.54 91.34 191.77 92.5C191.46 93 191.16 93.49 190.85 93.99C189.47 96.48 187.1 99.38 186.2 101.95C185.97 103.24 186.95 104.18 187.69 105.1C189.53 107.46 191.5 109.71 193.29 112.12C193.45 112.56 193.45 112.93 193.34 113.41C193.34 113.41 193.33 113.43 193.32 113.44C192.99 114.38 191.94 115.08 190.94 114.78C189.57 114.21 188.63 112.92 187.46 112.04C184.86 109.76 182.31 107.39 179.67 105.15C179.66 105.12 179.64 105.09 179.63 105.06C178.48 103.7 178.46 101.74 179.63 100.35C179.64 100.32 179.66 100.29 179.67 100.26C182.06 97.69 184.31 94.96 186.68 92.35C187.71 91.35 188.67 89.4 190.23 89.52C190.31 89.53 190.39 89.55 190.47 89.56V89.54Z" fill="#E49621"></path><path d="M229.08 110.2H226.31V95.28C226.31 95.28 226.31 95.26 226.31 95.25C226.28 91.29 225.31 89.5 220.58 89.5C215.85 89.5 215.2 90.64 215.2 92.3C215.2 95.09 217.66 94.26 219.03 94.26C220.4 94.26 220.87 94.67 220.87 95.6V110.2H218.1C216.84 110.2 215.83 111.22 215.83 112.47C215.83 113.72 216.85 114.74 218.1 114.74H229.1C230.36 114.74 231.37 113.72 231.37 112.47C231.37 111.22 230.35 110.2 229.1 110.2H229.08Z" fill="#191919"></path><path d="M147.32 100.95C148.07 100.76 148.66 100.47 149.05 100.06C149.62 99.48 149.9 98.7 149.9 97.72C149.9 96.49 149.42 95.51 148.45 94.77C147.48 94.03 146.03 93.66 144.1 93.66H136.31V110.18H145.04C146.24 110.18 147.25 109.97 148.1 109.54C148.94 109.11 149.57 108.53 150 107.79C150.42 107.05 150.64 106.2 150.64 105.24C150.64 103.9 150.26 102.86 149.51 102.1C148.99 101.58 148.25 101.2 147.33 100.93L147.32 100.95ZM140.28 96.93H143.58C144.43 96.93 145.03 97.08 145.37 97.37C145.72 97.66 145.89 98.03 145.89 98.49C145.89 98.99 145.72 99.39 145.37 99.69C145.02 99.99 144.42 100.14 143.55 100.14H140.27V96.93H140.28ZM145.93 106.36C145.5 106.7 144.79 106.87 143.82 106.87H140.28V102.98H143.77C144.76 102.98 145.48 103.15 145.92 103.49C146.36 103.83 146.58 104.31 146.58 104.94C146.58 105.57 146.36 106.03 145.93 106.37V106.36Z" fill="#191919"></path><path d="M163.5 93.67L160.08 100.29L156.64 93.67H152.44L156.62 101.41C156.97 102.09 157.28 102.57 157.58 102.86C157.7 102.98 157.82 103.07 157.95 103.16V110.19H161.98V103.2C162.11 103.11 162.25 103 162.38 102.87C162.66 102.58 162.98 102.1 163.32 101.42L167.5 93.68H163.51L163.5 93.67Z" fill="#191919"></path><path d="M43.18 37.62L17.4 4.51C16.2 3.01 14.91 1.88 13.52 1.13C12.14 0.380001 10.66 0 9.1 0C6.46 0 4.28 0.869997 2.57 2.61C0.86 4.35 0 6.91 0 10.27V63.99H17.12V29.12L41.19 60.03L41.37 60.3C42.63 61.74 44.1 62.87 45.79 63.68C47.47 64.49 49.15 64.9 50.84 64.9C53.6 64.9 55.87 64.03 57.65 62.29C59.42 60.55 60.31 58.11 60.31 54.99V0.91H43.19V37.62H43.18Z" fill="white"></path><path d="M119.53 4.11001C114.54 1.38001 108.68 0.0100098 101.95 0.0100098C95.22 0.0100098 89.32 1.38001 84.24 4.11001C79.16 6.84001 75.24 10.66 72.48 15.56C69.72 20.46 68.33 26.06 68.33 32.37C68.33 38.68 69.71 44.37 72.48 49.27C75.24 54.17 79.16 58 84.24 60.76C89.32 63.52 95.22 64.91 101.95 64.91C108.68 64.91 114.54 63.54 119.53 60.81C124.52 58.08 128.35 54.25 131.02 49.32C133.69 44.39 135.03 38.74 135.03 32.38C135.03 26.02 133.69 20.47 131.02 15.57C128.35 10.67 124.51 6.86001 119.53 4.12001V4.11001ZM115.7 41.6C114.53 44.09 112.78 45.97 110.47 47.23C108.16 48.49 105.32 49.12 101.95 49.12C98.58 49.12 95.7 48.48 93.3 47.18C90.9 45.89 89.06 44.01 87.8 41.55C86.54 39.09 85.91 36.08 85.91 32.54C85.91 29 86.54 25.96 87.8 23.44C89.06 20.92 90.89 19.01 93.3 17.72C95.7 16.43 98.59 15.78 101.95 15.78C105.31 15.78 108.15 16.43 110.47 17.72C112.78 19.01 114.53 20.91 115.7 23.4C116.87 25.89 117.46 28.94 117.46 32.55C117.46 36.16 116.87 39.12 115.7 41.61V41.6Z" fill="white"></path><path d="M199.21 40.63L190.91 9.19999C190.13 6.19999 188.94 3.98999 187.35 2.57999C185.76 1.16999 183.67 0.459991 181.09 0.459991C178.75 0.459991 176.73 1.10999 175.05 2.39999C173.37 3.68999 172.08 5.96 171.17 9.21L162.78 40.99L152.42 0.919991H134.84L150.52 53.11C151.48 56.42 152.52 58.92 153.63 60.64C154.74 62.35 155.93 63.49 157.19 64.07C158.45 64.64 159.95 64.93 161.7 64.93C163.45 64.93 165.05 64.66 166.34 64.12C167.63 63.58 168.85 62.47 169.99 60.79C171.13 59.11 172.15 56.64 173.05 53.4L180.81 25.87L188.55 52.68C189.51 56.17 190.55 58.78 191.66 60.52C192.77 62.26 193.97 63.44 195.26 64.04C196.55 64.64 198.19 64.94 200.17 64.94C202.15 64.94 203.65 64.65 204.86 64.08C206.06 63.51 207.16 62.38 208.15 60.7C209.14 59.02 210.15 56.49 211.17 53.13L226.85 0.939991H209.45L199.18 40.67L199.21 40.63Z" fill="white"></path><path d="M233.09 53C233.09 56.19 234.13 58.81 236.2 60.89C238.27 62.97 240.9 64 244.09 64H278.97V48.68H250.22V38.86H275.01V25.7H250.22V16.24H278.97V0.919983H233.09V53.02V53Z" fill="#FF234B"></path><path d="M323.4 64H342.87L330.08 40.9C332.04 40.06 333.8 39.01 335.34 37.72C339.76 34.02 341.96 28.87 341.96 22.26C341.96 17.69 340.97 13.82 338.99 10.63C337.01 7.45002 334.14 5.03001 330.38 3.37001C326.62 1.72001 322.13 0.890015 316.91 0.890015H287.89V63.98H305.01V43.25H312.32L323.39 63.98L323.4 64ZM305.01 15.33H314.74C317.86 15.33 320.25 15.93 321.91 17.13C323.56 18.33 324.39 20.17 324.39 22.63C324.39 25.09 323.58 26.82 321.96 27.99C320.34 29.16 317.93 29.75 314.75 29.75H305.02V15.33H305.01Z" fill="#FF234B"></path></svg> 