<?xml version="1.0" encoding="UTF-8"?> <svg xmlns="http://www.w3.org/2000/svg" width="200" height="60" viewBox="0 0 200 60" fill="none"><g clip-path="url(#clip0_20_498)"><path d="M43.1358 29.4541C45.2413 28.3431 46.7789 26.4404 46.7789 23.9138C46.7789 19.5183 43.3844 17 37.4711 17H26.289V42.9193H38.3597C44.1592 42.9193 47.7642 40.1124 47.7642 35.6009C47.7688 32.5532 45.7514 30.5298 43.1358 29.4541ZM37.5679 28.4725H30.6152V19.1523H37.1684C40.8578 19.1523 42.4289 20.5775 42.4289 23.9138C42.4289 27.1339 40.9752 28.4725 37.5679 28.4725ZM30.6184 40.767V30.6248H37.5051C39.6826 30.6248 43.3385 31.2789 43.3385 35.6615C43.3385 39.2431 41.7546 40.767 38.0404 40.767H30.6184ZM0.00827122 31.822C0.00827122 25.644 4.72066 20.6294 10.5372 20.6294C16.3408 20.6294 21.0661 25.644 21.0661 31.822C21.0661 37.9991 16.3367 43.0142 10.5372 43.0142C4.73763 43.0138 0.0078125 37.9991 0.0078125 31.8211L0.00827122 31.822ZM4.08901 31.822C4.08901 37.478 6.49818 40.8615 10.5372 40.8615V40.8532C14.5592 40.8532 16.9601 37.478 16.9601 31.8216C16.9601 26.1651 14.5762 22.7817 10.5372 22.7817C6.49818 22.7817 4.08901 26.1651 4.08901 31.8211V31.822ZM51.4156 31.822C51.4156 25.644 56.1285 20.6294 61.945 20.6294C67.7486 20.6294 72.4743 25.644 72.4743 31.822C72.4743 37.9991 67.7445 43.0142 61.945 43.0142C56.1454 43.0142 51.4156 37.9995 51.4156 31.822ZM55.4968 31.822C55.4968 37.478 57.906 40.8615 61.945 40.8615V40.8532C65.967 40.8532 68.3679 37.478 68.3679 31.8216C68.3679 26.1651 65.984 22.7817 61.945 22.7817C57.906 22.7817 55.4968 26.1656 55.4968 31.822ZM81.0789 23.0399H73.3716V20.9128H92.6991V23.0394H84.9578V42.6995H81.0789V23.039V23.0399ZM100.516 20.9133H96.6115V42.7H100.516V20.9128V20.9133ZM115.367 40.8055C117.097 40.8055 120.197 40.2587 121.52 36.6037L121.895 35.545L123.785 36.4876L123.478 37.3486C122.168 40.922 119.153 42.9752 115.202 42.9752C109.267 42.9752 104.791 38.1794 104.791 31.8257C104.791 25.5537 109.364 20.633 115.202 20.633C119.131 20.633 122.126 22.7037 123.423 26.3197L123.726 27.1807L121.835 28.145L121.46 27.0775C120.504 24.3784 118.285 22.8284 115.367 22.8284C111.31 22.8284 108.888 26.1817 108.888 31.8128C108.888 37.4436 111.31 40.8055 115.367 40.8055ZM164.769 38.7569L163.636 35.4505C163.189 34.2337 162.333 33.2099 161.215 32.5537C163.245 31.6454 165.005 29.9404 165.005 27.2115C165.005 23.2725 161.859 20.922 156.582 20.922H148.647V42.7087H152.556V33.4358H155.963C158.46 33.4358 159.265 34.4349 159.956 36.4105L161.055 39.5528C161.336 40.5097 161.75 41.4227 162.284 42.2651L162.579 42.6954H167.831L165.974 40.9477C165.404 40.3237 164.991 39.5726 164.769 38.7569ZM152.556 23.0358H156.32C159.601 23.0358 161.005 24.2881 161.005 27.2239C161.005 30.0436 159.568 31.3009 156.35 31.3009H152.56L152.556 23.0358ZM170.704 20.9133H174.608V42.7H170.704V20.9128V20.9133ZM189.429 20.6289C183.617 20.6289 178.899 25.644 178.899 31.8216C178.899 37.9991 183.634 43.0142 189.429 43.0142C195.224 43.0142 199.957 37.9991 199.957 31.8216C199.957 25.644 195.233 20.6289 189.429 20.6289ZM189.429 22.7555C193.451 22.7555 195.851 26.1394 195.851 31.7959C195.851 37.4523 193.451 40.8358 189.429 40.8358C185.406 40.8358 182.964 37.4651 182.964 31.8041C182.964 26.1436 185.394 22.7555 189.429 22.7555ZM135.607 17.4523H137.899L136.126 21.6752L145.459 42.7128H141.306L138.016 35.3128H130.317L127.129 42.7H124.842L135.607 17.4523ZM134.066 26.4275L131.211 33.1605H137.056L134.066 26.4275Z" fill="black"></path></g><defs><clipPath id="clip0_20_498"><rect width="200" height="26.1468" fill="white" transform="translate(0 17)"></rect></clipPath></defs></svg> 