<?xml version="1.0" encoding="UTF-8"?> <svg xmlns="http://www.w3.org/2000/svg" width="200" height="60" viewBox="0 0 200 60" fill="none"><g clip-path="url(#clip0_20_665)"><path d="M54.6015 20.7266H58.8146L58.6051 23.7809H54.3857L54.6015 20.7266Z" fill="#4E497C"></path><path d="M171.275 36.2322H171.226C170.273 37.1167 169.364 37.767 167.641 37.767C164.846 37.767 163.675 36.1736 163.675 34.0901C163.675 31.7416 166.082 30.2314 170.36 30.2314H171.768C171.839 29.1989 172.2 27.4915 170.428 27.4915C169.173 27.4915 168.868 28.6873 168.84 29.2637H164.778C164.871 27.7257 165.536 26.6963 166.769 26.157C168.03 25.5899 169.568 25.4512 170.884 25.4512C173.278 25.4512 176.219 26.6439 176.021 29.5688L175.689 35.2397C175.655 35.736 175.649 36.2507 175.713 37.6622H171.5L171.272 36.2352M169.337 35.4308C171.42 35.4308 171.553 33.4953 171.663 31.9235C170.72 31.9235 169.836 31.8742 169.201 32.1793C168.523 32.5091 168.014 33.0731 167.956 33.896C167.897 34.7405 168.486 35.4308 169.337 35.4308Z" fill="#4E497C"></path><path d="M185.478 37.6747L186.661 20.7266H191.127L189.94 37.6747H185.478Z" fill="#4E497C"></path><path d="M112.8 27.5963H112.846C113.99 26.1231 115.312 25.8734 116.764 25.8734L116.498 29.6582C116.199 29.6335 115.894 29.6335 115.586 29.6335C112.643 29.6335 112.553 31.3194 112.446 33.2703L112.181 37.6715H107.601L108.214 28.9093C108.285 27.8521 108.313 27.1463 108.282 25.8457H112.649L112.8 27.5963Z" fill="#4E497C"></path><path d="M116.437 37.6747L117.623 20.7266H121.941L120.758 37.6747H116.437Z" fill="#4E497C"></path><path d="M81.6337 20.7228H86.0595L85.5849 27.4786H85.6712C86.5681 26.4215 87.8101 25.537 89.4035 25.537C93.0218 25.537 94.4149 28.7207 94.2177 31.5963C94.0174 34.518 92.4917 37.8405 88.4512 37.8405C87.092 37.8405 85.7667 37.0885 85.1534 36.2132H85.0609L84.7959 37.6586H80.4502L81.6337 20.7197M85.175 31.923C85.1072 33.3654 85.4678 35.3995 87.0858 35.3995C89.1416 35.3995 89.647 33.353 89.7241 31.7134C89.7919 30.2679 89.5052 28.1166 87.7608 28.1228C85.5356 28.129 85.2489 30.3604 85.175 31.926V31.923Z" fill="#4E497C"></path><path d="M99.0111 32.5336C98.8816 34.164 99.2545 35.48 100.922 35.48C102.167 35.48 102.953 34.6509 102.953 33.8804H107.089C106.997 35.3136 105.995 36.4324 104.821 37.0919C103.742 37.7484 102.503 37.8655 101.178 37.8655C96.3605 37.8655 94.499 35.8683 94.7948 31.384C95.0414 27.6485 98.0525 25.4387 101.6 25.4942C106.346 25.5682 107.872 28.3636 107.419 32.5305H99.0111M103.304 30.3022C103.347 29.6704 103.206 29.0324 102.888 28.5392C102.568 28.0461 102.087 27.741 101.403 27.7872C99.8463 27.8581 99.4333 28.9615 99.2206 30.2991H103.304V30.3022Z" fill="#4E497C"></path><path d="M37.0334 20.7266H41.9986L40.8089 37.6686H35.8438L37.0334 20.7266Z" fill="#4E497C"></path><path d="M47.4945 20.7266L41.5615 28.256L46.8503 37.6686H52.7987L46.8688 28.0064L53.1099 20.7266H47.4945Z" fill="#4E497C"></path><path d="M54.1914 25.8486H58.4045L57.5785 37.6714H53.3623L54.1914 25.8486Z" fill="#4E497C"></path><path d="M63.7394 25.8484V27.4449H63.7857C65.1017 25.7221 66.9109 25.568 68.0266 25.568C69.6354 25.568 71.2843 26.4587 71.6171 27.6545C72.5294 26.2429 74.1537 25.5433 75.9505 25.4971C78.5271 25.4971 80.3208 27.146 80.1359 29.7626L79.575 37.6681H75.0413L75.5344 30.7242C75.5961 29.5993 75.5067 28.3202 74.0211 28.3202C71.8514 28.3202 71.9346 30.7489 71.913 30.8906L71.4476 37.6711H66.8985L67.4009 30.7242C67.4225 29.5715 67.2715 28.3202 65.8322 28.3202C63.5391 28.3202 63.5884 30.7489 63.5915 30.8906L63.12 37.6742H58.4414L59.2643 25.8453H63.7425" fill="#4E497C"></path><path d="M127.674 43.3637H123.569L126.213 37.8685L121.883 25.8516H126.91L128.867 33.1868L131.967 25.8516H136.122L127.674 43.3637Z" fill="#4E497C"></path><path d="M136.553 28.2275H142.27L140.443 31.9291H134.726L136.553 28.2275Z" fill="#4E497C"></path><path d="M151.445 20.2767C154.94 20.2767 158.506 21.8023 158.352 26.0432H153.541C153.541 24.9306 152.894 23.6638 151.266 23.6638C149.639 23.6638 147.725 24.8782 147.383 28.3948C147.047 31.9145 147.488 34.5774 150.332 34.5774C152.792 34.5774 153.282 32.4569 153.334 32.0408H158.105C158.105 33.9301 156.54 37.8351 150.074 37.8351C143.244 37.8351 142.033 32.8668 142.6 28.2376C143.077 24.3635 145.836 20.2705 151.445 20.2705" fill="#4E497C"></path><path d="M158.444 37.6747L159.631 20.7266H163.952L162.765 37.6747H158.444Z" fill="#4E497C"></path><path d="M181.655 27.5963H181.702C182.845 26.1231 184.167 25.8734 185.647 25.8734L185.382 29.6582C185.055 29.6335 184.75 29.6335 184.445 29.6335C181.504 29.6335 181.415 31.3194 181.301 33.2703L181.036 37.6715H176.456L177.066 28.9093C177.14 27.8521 177.168 27.1463 177.137 25.8457H181.501L181.649 27.5963" fill="#4E497C"></path><path d="M190.711 31.0731L194.933 25.8213H200L195.454 30.8142L199.76 37.644H194.271L190.711 31.0731Z" fill="#4E497C"></path><path d="M0 29.3097C0 36.1118 6.33052 41.6225 14.1404 41.6225C21.9503 41.6225 28.2778 36.1118 28.2778 29.3097C28.2778 22.5076 21.9472 17 14.1404 17C6.3336 17 0 22.5107 0 29.3097ZM14.1435 40.4913C6.94385 40.4913 1.13111 35.4984 1.13111 29.3097C1.13111 23.1209 6.94385 18.1311 14.1435 18.1311C21.3432 18.1311 27.1528 23.124 27.1528 29.3097C27.1528 35.4953 21.3432 40.4913 14.1435 40.4913Z" fill="#4E497C"></path><path d="M11.142 37.6649V34.2346C10.8523 34.4318 10.1342 34.9958 8.65785 34.9958H2.84512V30.2187H6.42954C7.32949 30.2187 7.38497 29.6824 7.38497 29.5221C7.38497 28.1414 5.01488 26.2305 2.38281 24.2518L9.43145 24.2395C9.86293 24.557 10.5379 25.0378 11.1451 25.7189V20.6982H17.1366V25.7158C17.7406 25.0378 18.4187 24.5539 18.8471 24.2364L25.8926 24.2488C23.2637 26.2305 20.8967 28.1414 20.8967 29.5191C20.8967 29.6793 20.9521 30.2156 21.849 30.2156H25.4334V34.9928H19.6238C18.1444 34.9928 17.4263 34.4287 17.1366 34.2315V37.6618H11.1389M15.9623 36.4876V31.0539C16.9794 33.3254 18.7731 33.8277 20.2278 33.8277H24.2653V31.3899H21.4391C19.9813 31.3899 19.5282 30.3081 19.5282 29.6886C19.5282 28.1845 20.7456 27.0349 22.5671 25.4261H19.3464C17.9502 26.3384 16.591 27.7869 15.9654 29.4112V21.8879H12.307V29.4143C11.6813 27.79 10.3191 26.3415 8.92599 25.4292H5.70834C7.52674 27.0349 8.74723 28.1845 8.74723 29.6916C8.74723 30.3111 8.29109 31.3929 6.83328 31.3929H4.00705V33.8308H8.04453C9.49925 33.8308 11.293 33.3285 12.3101 31.057V36.4906H15.9592L15.9623 36.4876Z" fill="#4E497C"></path></g><defs><clipPath id="clip0_20_665"><rect width="200" height="26.3638" fill="white" transform="translate(0 17)"></rect></clipPath></defs></svg> 