<?xml version="1.0" encoding="UTF-8"?> <svg xmlns="http://www.w3.org/2000/svg" width="200" height="60" viewBox="0 0 200 60" fill="none"><g clip-path="url(#clip0_20_513)"><path d="M61 29.9819C61 26.3901 63.5823 25.1394 65.057 21.5372C66.2784 17.8196 65.5531 15.1253 67.6634 12.4569C70.1079 10.1226 72.9573 10.586 76.0547 8.76339C79.016 6.72026 79.7085 4.02768 82.6526 2.91481C85.9775 1.90703 88.0292 3.5815 91.8105 3.10775C95.9519 2.30498 96.5221 0.132648 100.116 0H100.136H100.145C103.739 0.132648 104.309 2.30498 108.452 3.10603C112.233 3.5815 114.285 1.90703 117.61 2.91309C120.554 4.02596 121.246 6.71854 124.208 8.76166C127.305 10.5843 130.154 10.1209 132.601 12.4551C134.709 15.1236 133.984 17.8179 135.205 21.5355C136.68 25.1359 139.269 26.3642 139.269 29.9802C139.269 33.5961 136.678 34.8606 135.205 38.461C133.984 42.1786 134.709 44.8729 132.601 47.5414C130.154 49.8757 127.305 49.414 124.208 51.2349C121.246 53.278 120.556 55.9706 117.61 57.0835C114.285 58.0912 112.233 56.4168 108.452 56.8922C104.309 57.6967 103.739 59.8656 100.145 59.9983H100.116C96.5221 59.8656 95.9519 57.6967 91.8088 56.8922C88.0292 56.4168 85.9757 58.0912 82.6509 57.0835C79.7068 55.9706 79.0143 53.278 76.053 51.2349C72.9556 49.4123 70.1062 49.8757 67.6617 47.5414C65.5514 44.8729 66.2766 42.1786 65.0552 38.461C63.5823 34.8623 61 33.5755 61 29.9819Z" fill="#9F1A16"></path><path d="M100.135 6.60352C119.781 6.60352 132.84 16.8708 132.84 30.0013C132.84 43.1317 119.731 53.399 100.135 53.399C80.5392 53.399 67.4277 43.1317 67.4277 30.0013C67.4277 16.8708 80.5289 6.60352 100.135 6.60352Z" fill="white"></path><path d="M100.135 7.92773C118.935 7.92773 131.433 17.6145 131.433 30.0007C131.433 42.3869 118.888 52.0737 100.135 52.0737C81.3816 52.0737 68.8369 42.3869 68.8369 30.0007C68.8369 17.6145 81.373 7.92773 100.135 7.92773Z" fill="#26285C"></path><path d="M107.74 34.6024L106.455 37.7635C106.32 38.0926 106.262 38.3493 106.262 38.5491C106.26 39.2141 106.894 39.2502 107.495 39.2554L108.227 39.2623C108.434 39.264 108.572 39.3898 108.572 39.6051V40.9126C108.572 41.1211 108.441 41.2589 108.227 41.2589H101.657C101.45 41.2589 101.312 41.1366 101.312 40.9161V39.6086C101.312 39.3967 101.443 39.2623 101.657 39.2623L101.881 39.2554C101.881 39.2554 102.587 39.2847 102.985 39.0831C103.387 38.8816 103.542 38.6352 103.714 38.2235L112.157 18.0265C112.243 17.7991 112.412 17.7285 112.601 17.7285H115.296C115.525 17.7285 115.666 17.8353 115.733 18.0265C116.5 20.2161 122.779 38.1288 122.784 38.1305C123.081 38.9763 123.377 39.2554 124.367 39.2606H124.783C124.989 39.2606 125.125 39.3949 125.125 39.6086V40.9126C125.125 41.1314 124.986 41.2589 124.781 41.2589H115.072C114.86 41.2589 114.727 41.1194 114.727 40.9161V39.6086C114.727 39.3949 114.865 39.2623 115.072 39.2623L115.873 39.2468C116.505 39.2347 116.66 38.9298 116.669 38.6421C116.672 38.5146 116.648 38.3889 116.624 38.2941C116.558 38.0357 116.359 37.4207 116.359 37.4207C116.359 37.4207 115.79 35.5947 115.433 34.6041H107.743" fill="white"></path><path d="M76.5059 29.5476C76.5059 22.1882 80.9797 17.5645 87.0643 17.5645C88.9937 17.5645 90.0756 17.9521 90.7147 18.2174C91.2332 18.4568 91.4675 18.6119 91.8052 18.6119C92.272 18.6119 92.4133 18.3466 92.5752 17.9969C92.6734 17.7919 92.7354 17.7264 92.9094 17.7264H94.2773C94.4788 17.7264 94.6201 17.8573 94.6201 18.0692V24.0487C94.6201 24.2589 94.4891 24.3915 94.2773 24.3915H92.9387C92.7509 24.3915 92.6424 24.3192 92.5925 24.0797C92.0808 21.27 91.0816 19.5731 87.9308 19.5731C83.9634 19.5731 83.0073 25.6922 83.0073 28.7155C83.0073 33.3117 83.5293 39.4531 88.0996 39.4531C91.4055 39.4531 92.3909 37.5788 92.8112 34.9017C92.8664 34.645 93.03 34.602 93.1506 34.602H94.4943C94.6959 34.602 94.8406 34.7295 94.8389 34.9448V40.914C94.8406 41.1224 94.7079 41.2568 94.496 41.2568H93.123C92.9887 41.2585 92.8819 41.2206 92.7992 41.0363C92.7217 40.864 92.5735 40.6469 92.2531 40.6469C91.4916 40.6469 90.1393 41.4411 87.1074 41.4411C80.2458 41.4411 76.5076 35.7683 76.5076 29.5476" fill="white"></path><path d="M93.7642 30.1486C93.7315 28.4069 95.368 27.189 96.7014 26.7841C96.2879 26.2329 95.9245 25.6041 95.9245 24.7668C95.9245 22.8305 97.5834 21.8848 99.3337 21.8848C101.084 21.8848 102.321 22.8443 102.321 24.3603C102.321 25.6868 100.993 26.5102 99.7833 27.0391L101.446 29.5163C102.049 28.6653 102.457 27.8143 102.669 26.9633C102.686 26.8961 102.741 26.779 102.972 26.779H105.635C105.785 26.779 105.97 26.76 105.844 27.077L105.525 27.7971C105.454 27.9418 105.363 28.0124 105.21 28.0124H104.845C104.553 28.0124 104.438 28.1847 104.268 28.45C104.268 28.45 103.885 29.077 103.613 29.4595C103.177 30.071 103.069 30.2709 102.391 30.9513C102.391 30.9513 102.915 31.8368 104.013 31.8385H104.493C104.574 31.8385 104.836 31.811 104.715 32.1056L104.385 32.8894C104.342 32.9962 104.285 33.0978 104.068 33.0978H102.993C102.993 33.0978 101.651 33.196 100.846 32.3846C99.866 33.1512 98.698 33.3338 97.797 33.3338C95.5816 33.3338 93.7986 32.1538 93.7607 30.1503" fill="white"></path><path d="M98.9496 26.008C98.4828 25.3241 98.2227 24.8435 98.2227 24.1027C98.2227 23.4688 98.6051 22.9141 99.289 22.9141C99.923 22.9141 100.214 23.4963 100.214 24.0803C100.214 24.9296 99.7989 25.5601 98.9496 26.008Z" fill="#26285C"></path><path d="M97.3784 27.875L99.8384 31.2584C99.3561 31.7407 98.8978 32.1025 98.1502 32.1025C96.946 32.1025 96.1846 31.3376 96.1846 30.037C96.1846 29.2101 96.6669 28.3263 97.3784 27.8767" fill="#26285C"></path><path d="M108.457 32.7947L112.133 23.6523L114.905 32.7947H108.457Z" fill="#26285C"></path></g><defs><clipPath id="clip0_20_513"><rect width="78.2693" height="60" fill="white" transform="translate(61)"></rect></clipPath></defs></svg> 