<?xml version="1.0" encoding="UTF-8"?> <svg xmlns="http://www.w3.org/2000/svg" width="200" height="60" viewBox="0 0 200 60" fill="none"><g clip-path="url(#clip0_20_362)"><path fill-rule="evenodd" clip-rule="evenodd" d="M59.6412 22.821H71.4096C71.4357 22.084 71.5455 21.4123 71.7467 20.8138C72.4707 18.663 74.9064 17.5209 77.2663 17.4503C79.9425 17.3719 82.522 18.6734 82.4044 21.4515C82.4305 23.537 80.886 24.4544 78.4215 24.7053C76.5659 24.7053 74.7078 24.7026 72.8496 24.7026V32.8853H77.0233C77.9092 32.9847 78.7638 33.2852 79.4956 33.7347C83.4916 36.1966 81.5864 41.4104 77.5198 41.954C75.0005 42.2911 72.1623 41.4261 71.0097 38.7551C70.4165 37.3779 70.2335 35.7445 70.1891 34.3724H58C58 45.7043 64.4317 52.0236 76.3725 51.9975C83.6405 51.8982 90.9033 49.3945 93.7676 43.9899C93.8147 43.9036 93.8591 43.8174 93.9009 43.7312V50.9835H106.302V24.7654L112.875 50.9835H123.48L130.223 24.7784L130.113 50.9835H142.325V8.79981H124.131L118.253 33.314L112.158 8.79981H93.9009V17.3719C91.7788 10.2973 84.1423 8.08112 77.5224 8.0001C65.5816 7.97396 60.2084 13.112 59.6412 22.821ZM93.9035 33.097C92.9705 31.529 91.6089 30.0576 89.6933 28.7221C89.5129 28.5784 89.4946 28.5052 89.6933 28.385C90.9556 27.6245 92.0532 26.8221 92.8686 25.735C93.3155 25.1417 93.6526 24.4936 93.8983 23.8088V33.0944L93.9035 33.097Z" fill="#E30613"></path></g><defs><clipPath id="clip0_20_362"><rect width="84.3281" height="44" fill="white" transform="translate(58 8)"></rect></clipPath></defs></svg> 