<?xml version="1.0" encoding="UTF-8"?> <svg xmlns="http://www.w3.org/2000/svg" width="200" height="60" viewBox="0 0 200 60" fill="none"><g clip-path="url(#clip0_20_1069)"><path d="M171.995 15.9896C170.491 15.9896 169.422 14.8644 169.422 13.3748C169.422 11.8009 170.61 10.7588 171.995 10.7588C173.38 10.7588 174.554 11.8009 174.554 13.3748C174.554 14.9487 173.366 15.9896 171.995 15.9896ZM171.995 11.2134C170.863 11.2134 169.982 12.1012 169.982 13.3748C169.982 14.5629 170.751 15.535 171.995 15.535C173.114 15.535 173.995 14.6543 173.995 13.3748C173.995 12.0953 173.114 11.2134 171.995 11.2134ZM171.478 14.8703H171.002V11.9754H172.1C172.799 11.9754 173.156 12.2199 173.156 12.8074C173.156 13.3321 172.834 13.5493 172.4 13.5979L173.212 14.8703H172.673L171.924 13.6336H171.476V14.8703H171.478ZM172.008 13.2276C172.364 13.2276 172.68 13.1932 172.68 12.773C172.68 12.4241 172.337 12.3813 172.051 12.3813H171.478V13.2276H172.008Z" fill="#1D1D1B"></path><path d="M58.5796 11.1367L51.2574 37.8938H47.0022L41.8272 18.4577L36.575 37.8938H32.3198L25 11.1367H29.2172L34.4302 30.5728L39.6812 11.1367H43.8592L49.1494 30.5728L54.3636 11.1367H58.5796Z" fill="#1D1D1B"></path><path d="M60.5322 11.2136L64.7494 10.8682V17.4224L64.6723 19.8758H64.8266C66.7815 19.147 68.353 18.8028 70.2699 18.8028C73.6823 18.8028 75.9814 20.3364 75.9814 26.201V37.8935H71.7642V26.5464C71.7642 23.02 70.0396 22.5607 68.0847 22.5607C66.8574 22.5607 65.8224 22.8289 64.7494 23.1363V37.8947H60.5322V11.2136Z" fill="#1D1D1B"></path><path d="M81.7677 11.4814C83.9529 11.4814 84.2983 12.7467 84.2983 14.1651C84.2983 15.5835 83.8378 16.8868 81.7677 16.8868C79.6977 16.8868 79.2764 15.5835 79.2764 14.1651C79.2764 12.7467 79.6597 11.4814 81.7677 11.4814ZM79.6597 19.0719H83.8769V37.8944H79.6597V19.0719Z" fill="#1D1D1B"></path><path d="M87.4397 19.072H90.3144L90.8901 20.6055H91.1583C92.2693 19.6476 94.0331 18.8037 96.3334 18.8037C96.6016 18.8037 96.9079 18.8037 97.2141 18.8417V22.9817C96.4485 22.8678 95.6426 22.7526 94.8378 22.7526C93.6877 22.7526 92.7678 23.0209 91.6557 23.5194V37.8944H87.4385V19.072H87.4397Z" fill="#1D1D1B"></path><path d="M99.0166 37.8935V11.2136L103.234 10.8682V37.8935H99.0166Z" fill="#1D1D1B"></path><path d="M133.207 18.8027C139.187 18.8027 141.489 22.3291 141.489 28.5772C141.489 34.4418 139.342 38.2768 133.132 38.2768C126.921 38.2768 124.736 34.443 124.736 28.5772C124.736 22.3291 127.228 18.8027 133.209 18.8027H133.207ZM137.194 28.5772C137.194 25.0128 136.619 22.1 133.245 22.1C129.872 22.1 128.99 24.8977 128.99 28.5772C128.99 31.9884 129.68 34.9415 133.054 34.9415C136.429 34.9415 137.194 32.1427 137.194 28.5772Z" fill="#1D1D1B"></path><path d="M152.115 18.8027C158.095 18.8027 160.396 22.3291 160.396 28.5772C160.396 34.4418 158.249 38.2768 152.039 38.2768C145.829 38.2768 143.644 34.443 143.644 28.5772C143.644 22.3291 146.135 18.8027 152.116 18.8027H152.115ZM156.102 28.5772C156.102 25.0128 155.526 22.1 152.153 22.1C148.779 22.1 147.898 24.8977 147.898 28.5772C147.898 31.9884 148.587 34.9415 151.962 34.9415C155.336 34.9415 156.102 32.1427 156.102 28.5772Z" fill="#1D1D1B"></path><path d="M163.126 37.8935V11.2136L167.343 10.8682V37.8935H163.126Z" fill="#1D1D1B"></path><path d="M106.683 19.0708H109.865L110.21 20.4512C111.475 19.7616 113.813 18.8037 115.922 18.8037C119.754 18.8037 122.552 21.6025 122.552 28.3099C122.552 35.0173 119.6 38.1627 114.694 38.1627C112.889 38.1627 110.9 37.7793 110.9 37.7793V46.4036L106.683 46.8641V19.0708ZM110.9 34.4048C112.088 34.4416 112.74 34.4808 113.966 34.4808C116.572 34.4808 118.298 33.1004 118.298 27.6179C118.298 23.8612 116.764 22.8654 114.005 22.8654C112.932 22.8654 111.935 23.0553 110.9 23.4019V34.4036V34.4048Z" fill="#1D1D1B"></path><path d="M127.558 7.50672C124.405 3.85332 114.399 7.06518 103.233 14.7921V16.7399C113.067 9.75003 121.735 6.52512 124.218 9.40107C127.319 12.9927 119.607 24.741 106.992 35.6276C94.3776 46.5142 81.6334 52.4168 78.5331 48.8252C76.9237 46.9593 78.2364 42.8941 81.6322 37.8935H79.6584C75.453 44.1653 73.8768 49.4353 76.0358 51.9373C79.9729 56.4987 94.6968 50.2578 108.921 37.9837C123.144 25.7096 131.494 12.0681 127.558 7.50672Z" fill="#F0B500"></path></g><defs><clipPath id="clip0_20_1069"><rect width="149.554" height="47.43" fill="white" transform="translate(25 6)"></rect></clipPath></defs></svg> 