<?xml version="1.0" encoding="UTF-8"?> <svg xmlns="http://www.w3.org/2000/svg" width="200" height="60" viewBox="0 0 200 60" fill="none"><path fill-rule="evenodd" clip-rule="evenodd" d="M22.0693 44.7158C22.0693 45.3714 22.2418 45.5439 22.8629 45.5439H27.2102C27.8658 45.5439 28.0038 45.4059 28.0038 44.7503V15.2161C28.0038 14.6295 27.8313 14.457 27.2792 14.457C25.8301 14.457 24.381 14.457 22.9319 14.457C22.1728 14.457 22.0693 14.595 22.0693 15.3541C22.0693 15.3541 22.0693 39.8164 22.0693 44.7158Z" fill="#2A343E"></path><path fill-rule="evenodd" clip-rule="evenodd" d="M163.634 22.9447C164.842 22.8757 165.946 22.8067 167.084 22.7721C168.671 22.7376 170.293 22.7376 171.88 23.0137C174.813 23.5312 176.538 25.1528 177.228 28.051C177.573 29.5347 177.711 31.0528 177.746 32.5709C177.815 34.9171 177.815 37.2632 177.366 39.6094C177.055 41.1965 176.503 42.6801 175.227 43.7842C174.261 44.6123 173.122 44.9918 171.915 45.2333C170.327 45.5439 168.706 45.6474 167.084 45.5784C165.187 45.5094 163.254 45.3713 161.357 45.2333C160.391 45.1643 159.459 44.9918 158.493 44.8538C157.976 44.7848 157.769 44.5088 157.7 43.9912C157.665 43.8187 157.665 43.6807 157.665 43.5082C157.665 34.158 157.665 24.8078 157.665 15.4231C157.665 15.3196 157.665 15.2161 157.665 15.1126C157.7 14.457 157.803 14.3535 158.493 14.3535H162.737C163.496 14.3535 163.599 14.457 163.599 15.2161C163.599 17.6313 163.599 20.0464 163.599 22.4271V22.9447H163.634ZM163.634 40.2305C165.497 40.4375 167.326 40.6445 169.189 40.3685C170.189 40.2305 170.983 39.7129 171.328 38.7468C171.501 38.2638 171.639 37.7463 171.673 37.2287C171.742 35.4691 171.742 33.744 171.742 31.9843C171.742 31.4668 171.639 30.9493 171.535 30.4317C171.19 28.8446 170.362 28.1201 168.74 28.051C167.084 27.982 165.463 27.982 163.806 27.9475C163.772 27.9475 163.703 27.982 163.634 27.982V40.2305Z" fill="#F00843"></path><path fill-rule="evenodd" clip-rule="evenodd" d="M89.2465 32.2258C89.2465 31.5013 89.3155 30.7767 89.2465 30.0867C89.074 28.9826 88.2114 28.2925 86.9693 28.12C86.4173 28.051 85.8307 28.0165 85.2442 28.0165C83.036 28.0165 80.8624 28.0165 78.6542 28.0165C77.7226 28.0165 77.6881 27.982 77.6881 27.085C77.6881 26.1189 77.6881 25.1528 77.6881 24.1522C77.6881 23.7382 77.8606 23.5312 78.2747 23.4622C81.6214 22.8411 84.9682 22.7376 88.3494 23.0136C89.764 23.1172 91.1096 23.4277 92.3862 24.0487C94.0079 24.8768 94.8704 26.2569 95.1119 28.0165C95.2154 28.6721 95.2499 29.3621 95.2499 30.0522C95.2499 34.4685 95.2499 38.8503 95.2499 43.2667C95.2499 43.3702 95.2499 43.4392 95.2499 43.5082C95.2154 44.5088 94.9049 44.7848 93.9389 44.9918C91.1096 45.5438 88.2114 45.7164 85.3132 45.7509C83.6916 45.7509 82.0355 45.7164 80.4138 45.4058C78.1367 44.9573 76.6876 43.6462 76.239 41.3345C75.894 39.5404 75.8595 37.7117 76.377 35.9521C76.9291 34.1235 78.2402 33.0539 80.0688 32.6744C81.1729 32.4329 82.346 32.3293 83.4846 32.2603C85.2787 32.1913 87.0383 32.2603 88.8325 32.2258H89.2465ZM89.281 36.1591C87.4179 36.1591 85.5892 36.0901 83.7261 36.1591C82.622 36.1936 82.07 36.8147 81.932 37.8843C81.8629 38.2983 81.8974 38.7813 81.9665 39.1954C82.07 40.0234 82.5875 40.541 83.4156 40.7135C84.0021 40.817 84.5887 40.886 85.2097 40.886C86.5898 40.9205 87.9699 40.817 89.3155 40.5065V36.1591H89.281Z" fill="#2A343E"></path><path fill-rule="evenodd" clip-rule="evenodd" d="M64.4386 28.0508C63.4725 28.0853 62.5065 28.3268 61.9199 29.2238C61.4714 29.8449 61.3334 30.604 61.2644 31.3285C61.0919 33.2952 61.0919 35.2963 61.2644 37.263C61.3334 38.1255 61.5059 38.9881 62.1614 39.6781C62.7825 40.3682 63.6106 40.5752 64.4731 40.5752C66.7848 40.6097 69.062 40.6097 71.3736 40.6442C71.5116 40.6442 71.6497 40.6442 71.7877 40.6442C72.4777 40.6787 72.6157 40.8167 72.6502 41.5068C72.6502 42.4383 72.6502 43.3699 72.6502 44.267C72.6502 44.9225 72.4432 45.1295 71.7877 45.2675C69.062 45.7851 66.3018 45.8541 63.507 45.7506C61.8509 45.6816 60.1948 45.4746 58.6767 44.7155C57.4346 44.0945 56.6065 43.0939 56.089 41.8173C55.4679 40.2647 55.2609 38.6086 55.2609 36.9524C55.2264 34.6063 55.2954 32.2256 55.3989 29.8794C55.4679 28.6028 55.7785 27.3607 56.3995 26.1876C57.0551 24.9455 58.0556 24.1175 59.3667 23.6344C60.6778 23.1514 62.0234 22.9789 63.4035 22.9099C65.7497 22.8064 68.0959 22.8409 70.4076 23.1514C70.9251 23.2204 71.4426 23.2894 71.9602 23.3929C72.3742 23.4619 72.6157 23.7034 72.6157 24.1175C72.6157 25.187 72.6157 26.2911 72.6157 27.3607C72.6157 27.7747 72.4087 27.9818 71.9947 27.9818H68.0959C68.0959 27.9818 65.6462 28.0163 64.4386 28.0508Z" fill="#2A343E"></path><path fill-rule="evenodd" clip-rule="evenodd" d="M140.172 36.2625C140.31 37.0905 140.379 37.8151 140.551 38.5396C140.827 39.7127 141.724 40.2303 142.863 40.3683C143.622 40.4373 144.381 40.5063 145.14 40.5063C147.279 40.5063 149.453 40.5063 151.592 40.5063C152.386 40.5063 152.489 40.6443 152.489 41.4034C152.489 42.3694 152.489 43.301 152.489 44.2671C152.489 44.8881 152.351 45.0261 151.73 45.1296C148.625 45.6817 145.485 45.7162 142.345 45.5782C141 45.5437 139.62 45.3367 138.343 44.8191C136.376 44.0601 135.307 42.5074 134.789 40.5408C134.41 39.1262 134.237 37.6771 134.237 36.228C134.237 34.1578 134.272 32.0532 134.41 29.983C134.479 28.7754 134.789 27.5678 135.272 26.4637C136.1 24.6351 137.584 23.6345 139.482 23.186C142.104 22.5995 144.795 22.5995 147.452 22.9445C148.349 23.048 149.28 23.255 150.108 23.5655C151.972 24.2556 152.972 25.7392 153.49 27.5678C153.938 29.1549 154.042 30.8111 154.111 32.4327C154.145 33.3643 154.111 34.2958 154.111 35.2274C154.111 35.8829 153.869 36.1245 153.214 36.1935C152.938 36.228 152.662 36.228 152.386 36.228C148.521 36.228 144.657 36.228 140.793 36.228H140.172V36.2625ZM148.245 32.3292C148.142 31.4666 148.038 30.6731 147.866 29.8795C147.693 29.0514 147.141 28.4304 146.313 28.1889C144.933 27.7748 143.553 27.8093 142.173 28.1889C141.655 28.3269 141.241 28.6374 140.931 29.0859C140.275 30.0865 140.241 31.2251 140.241 32.3637H148.245V32.3292Z" fill="#F00843"></path><path fill-rule="evenodd" clip-rule="evenodd" d="M51.8452 33.0883C51.8107 31.3977 51.7072 29.638 51.2587 27.8784C50.7411 25.9808 49.7061 24.4971 47.8429 23.7036C46.8078 23.255 45.6693 23.048 44.5307 22.979C42.9781 22.91 41.3909 22.8755 39.8383 22.91C38.4237 22.9445 37.0436 23.117 35.698 23.6001C34.3524 24.0831 33.3173 24.9457 32.6273 26.2223C31.8682 27.6714 31.5922 29.2585 31.4887 30.8801C31.3852 32.7433 31.3507 34.6064 31.4197 36.4695C31.4542 37.7806 31.6612 39.0572 31.9027 40.3683C32.1097 41.5759 32.6273 42.7145 33.4898 43.6116C34.5939 44.7502 36.043 45.2332 37.5611 45.4747C39.5278 45.7852 41.5289 45.7852 43.5301 45.6817C44.8757 45.6127 46.2213 45.4402 47.4979 44.9917C48.533 44.6121 49.3955 44.0256 50.0511 43.163C50.7756 42.197 51.1207 41.1274 51.3622 39.9888C51.7072 38.4017 51.7762 36.8146 51.7762 35.1239L51.8452 33.0883ZM45.9108 35.1239C45.8418 36.0555 45.7728 37.0561 45.6003 38.0222C45.3242 39.5748 44.5997 40.2303 43.0471 40.5063C42.012 40.6789 40.9424 40.6789 39.9073 40.4718C38.5617 40.1958 37.8717 39.4368 37.5957 37.9877C37.2851 36.159 37.3196 34.2959 37.3886 32.4327C37.4231 31.8807 37.4921 31.3287 37.5611 30.8111C37.8717 29.0515 38.5617 28.2924 40.3214 28.1199C41.3219 28.0164 42.357 28.0509 43.3576 28.1889C44.7377 28.3959 45.4622 29.293 45.6693 30.9146C45.8073 31.8807 45.8418 32.8813 45.9108 33.9508V35.1239Z" fill="#2A343E"></path><path d="M103.979 23.7721C103.876 23.289 103.772 23.082 103.392 23.082H103.358C103.323 23.082 103.323 23.082 103.289 23.082C102.495 23.082 99.9767 23.082 98.8381 23.082C98.6656 23.082 98.5276 23.082 98.4241 23.082C98.3551 23.082 98.2861 23.082 98.2171 23.082H98.1826H98.1481C98.1136 23.082 98.0791 23.082 98.0446 23.082C98.0446 23.082 98.0446 23.082 98.0101 23.082C97.9756 23.082 97.9756 23.082 97.9411 23.1165C97.9066 23.1165 97.9066 23.151 97.9066 23.151L97.8721 23.1855C97.8721 23.1855 97.8721 23.22 97.8376 23.22C97.8376 23.2545 97.8031 23.2545 97.8031 23.289C97.8031 23.289 97.8031 23.3235 97.7686 23.3581C97.7686 23.3926 97.7686 23.4271 97.7686 23.4271C97.7686 23.4271 97.7686 23.4616 97.7686 23.4961C97.7686 23.5651 97.7686 23.6341 97.8031 23.7031C97.8031 23.8066 97.8376 23.9101 97.8721 24.0136C98.1481 25.0142 99.5627 30.1551 100.874 34.8474C100.874 34.8819 100.874 34.8819 100.908 34.9164C102.081 39.0912 103.151 42.99 103.254 43.3351C103.668 44.5426 104.497 45.5432 105.808 45.5432C105.808 45.5432 106.774 42.0585 107.912 37.8836C106.187 31.8802 104.117 24.3586 103.979 23.7721Z" fill="#2A343E"></path><path d="M118.056 23.6341C118.056 23.5651 118.021 23.5306 118.021 23.4616C117.987 23.3581 117.952 23.2891 117.918 23.2546C117.918 23.2546 117.918 23.2546 117.918 23.2201L117.883 23.1855C117.883 23.1855 117.883 23.2201 117.918 23.2201C117.918 23.2546 117.952 23.2546 117.952 23.2891C117.952 23.2891 117.952 23.3236 117.987 23.3581C117.987 23.3926 117.987 23.4271 117.987 23.4271C117.987 23.4271 117.987 23.4616 117.987 23.4961C117.987 23.5651 117.987 23.6341 117.952 23.7031C117.952 23.8066 117.918 23.9101 117.883 24.0136C117.607 25.0142 116.227 30.0861 114.916 34.7439C114.916 34.7784 114.916 34.8129 114.951 34.8474C114.951 34.8819 114.951 34.8819 114.985 34.9164C116.158 39.0912 117.228 42.99 117.331 43.3351C117.745 44.5427 118.573 45.5432 119.884 45.5432C119.884 45.5432 120.333 43.9216 120.954 41.6099C121.195 40.6784 121.506 39.6433 121.782 38.5737C121.851 38.3667 121.886 38.1597 121.955 37.9182C120.333 32.0872 118.332 24.6692 118.056 23.6341Z" fill="#2A343E"></path><path d="M132.098 23.4612C132.098 23.4267 132.098 23.4267 132.098 23.3922C132.098 23.3577 132.098 23.3232 132.064 23.3232C132.064 23.2887 132.029 23.2887 132.029 23.2542C132.029 23.2542 132.029 23.2197 131.995 23.2197L131.96 23.1852L131.926 23.1507C131.891 23.1507 131.891 23.1162 131.857 23.1162C131.857 23.1162 131.857 23.1162 131.822 23.1162C131.788 23.1162 131.753 23.1162 131.719 23.1162C131.684 23.1162 131.684 23.1162 131.684 23.1162H131.65C131.581 23.1162 131.546 23.1162 131.443 23.1162C131.339 23.1162 131.201 23.1162 131.029 23.1162C129.89 23.1162 127.406 23.1162 126.578 23.1162C126.543 23.1162 126.543 23.1162 126.509 23.1162H126.474C126.095 23.1507 125.991 23.3577 125.888 23.8063C125.75 24.3928 123.68 31.9489 121.989 38.0213C121.92 38.2283 121.886 38.4699 121.817 38.6769C121.506 39.781 121.23 40.816 120.989 41.7131C120.333 44.0593 119.919 45.6464 119.919 45.6464H124.094C125.405 45.6464 126.267 44.6458 126.647 43.4382C126.75 43.0932 127.855 39.1944 128.993 35.0196C128.993 34.9851 128.993 34.9851 129.028 34.9506C130.339 30.2582 131.753 25.1174 132.029 24.1168C132.064 24.0133 132.098 23.9098 132.098 23.8063C132.098 23.7373 132.133 23.6683 132.133 23.5992C132.098 23.4957 132.098 23.4612 132.098 23.4612Z" fill="#F00843"></path><path d="M117.987 23.4612C117.987 23.4267 117.987 23.4267 117.987 23.3922C117.987 23.3577 117.987 23.3232 117.953 23.3232C117.953 23.2887 117.918 23.2887 117.918 23.2542C117.918 23.2542 117.918 23.2197 117.884 23.2197L117.849 23.1852L117.815 23.1507C117.78 23.1507 117.78 23.1162 117.746 23.1162C117.746 23.1162 117.746 23.1162 117.711 23.1162C117.677 23.1162 117.642 23.1162 117.608 23.1162C117.573 23.1162 117.573 23.1162 117.573 23.1162H117.539C117.47 23.1162 117.435 23.1162 117.332 23.1162C117.228 23.1162 117.09 23.1162 116.918 23.1162C115.779 23.1162 113.295 23.1162 112.467 23.1162C112.432 23.1162 112.432 23.1162 112.398 23.1162H112.363C111.984 23.1507 111.88 23.3577 111.777 23.8063C111.639 24.3928 109.569 31.9489 107.878 37.9868C106.74 42.1616 105.773 45.6119 105.773 45.6464C105.773 45.6464 105.773 45.6464 105.808 45.6464H109.983C109.983 45.6464 109.983 45.6464 110.017 45.6464C111.328 45.6464 112.156 44.6458 112.57 43.4382C112.674 43.0932 113.778 39.1944 114.917 35.0196C114.917 34.9851 114.917 34.9851 114.951 34.9506C116.262 30.2582 117.677 25.1174 117.953 24.1168C117.987 24.0133 118.022 23.9098 118.022 23.8063C118.022 23.7373 118.056 23.6683 118.056 23.5992C117.987 23.4957 117.987 23.4612 117.987 23.4612Z" fill="#F00843"></path></svg> 