<?xml version="1.0" encoding="UTF-8"?> <svg xmlns="http://www.w3.org/2000/svg" width="200" height="60" viewBox="0 0 200 60" fill="none"><g clip-path="url(#clip0_20_547)"><path fill-rule="evenodd" clip-rule="evenodd" d="M156.246 25.3579C158.008 23.7666 160.17 22.6049 162.567 22.0533C163.304 21.8776 164.061 21.7604 164.832 21.7067C166.706 21.5749 168.639 21.8239 170.265 22.3803C171.348 22.7513 172.476 23.2492 173.403 23.8642C174.975 24.9039 176.298 26.0071 177.362 27.5984C177.889 28.3891 178.021 28.4916 178.524 29.4972C179.7 31.8402 180.227 34.5004 179.978 37.2193C179.861 38.4933 179.554 39.777 179.1 40.9485C178.978 41.256 178.729 41.749 178.656 42.0321L183.122 44.1896L187.525 46.3032C189.038 43.1499 189.882 39.6208 189.882 35.8916C189.882 22.5756 179.09 11.7832 165.774 11.7832C162.904 11.7832 160.151 12.286 157.603 13.2036C156.656 13.5502 155.714 13.9651 154.777 14.4435C154.279 14.6973 153.844 14.9414 153.376 15.2245C152.907 15.5076 151.999 16.108 151.291 16.6254C150.989 16.8499 150.696 17.0842 150.403 17.3283C150.174 17.5382 149.861 17.8359 149.651 17.9775C149.637 17.9872 149.627 18.0019 149.612 18.0116C149.637 18.0702 149.686 18.1434 149.744 18.2264L150.423 18.9781C150.579 19.1441 150.725 19.2905 150.813 19.3979L156.251 25.3628L156.246 25.3579Z" fill="#00A3DE"></path><path fill-rule="evenodd" clip-rule="evenodd" d="M60.1785 0C63.8589 0 66.8365 2.98243 66.8365 6.65799C66.8365 10.3336 63.8541 13.316 60.1785 13.316C56.5029 13.316 53.5205 10.3336 53.5205 6.65799C53.5205 2.98243 56.5029 0 60.1785 0Z" fill="#00A3DE"></path><path fill-rule="evenodd" clip-rule="evenodd" d="M122.986 0.888672V46.6404C123.02 51.136 124.094 54.4552 128.262 56.5444L136.492 59.9856L140.285 50.8089L132.197 47.4751V0.888672H122.986ZM144.053 25.4168C142.525 28.5847 141.666 32.1383 141.666 35.8919C141.666 49.2079 152.459 60.0003 165.774 60.0003C172.037 60.0003 177.743 57.6134 182.029 53.6938L175.381 46.3475C172.852 48.671 169.479 50.0914 165.774 50.0914C157.93 50.0914 151.575 43.7312 151.575 35.8919C151.575 33.6856 152.078 31.5965 152.976 29.7318L144.053 25.4168ZM104.891 45.9619C102.323 48.5001 98.7992 50.0621 94.9089 50.0621C92.1754 50.0621 89.6225 49.2909 87.4553 47.9486L82.1787 56.2857C85.8884 58.614 90.2766 59.9612 94.9772 59.9612C101.528 59.9612 107.473 57.3449 111.817 53.1031L104.891 45.9619ZM94.9772 11.7445C106.409 11.7445 115.986 19.7058 118.461 30.3859L95.6411 40.1191L74.7738 49.0175C72.3039 45.2346 70.8689 40.7146 70.8689 35.8578C70.8689 22.5418 81.6612 11.7494 94.9772 11.7494V11.7445ZM80.7094 35.8626C80.7094 36.3898 80.7387 36.9121 80.7924 37.4295L95.89 30.9912L105.809 26.764C103.202 23.6498 99.2873 21.668 94.9089 21.668C87.0648 21.668 80.7094 28.0283 80.7094 35.8675V35.8626ZM19.9089 35.8724C19.9089 28.0283 26.2691 21.6729 34.1084 21.6729C36.0413 21.6729 37.8816 22.0585 39.5607 22.7566L43.3534 13.6043C40.5076 12.4181 37.3837 11.7689 34.1035 11.7689C20.7924 11.7592 10 22.5564 10 35.8675C10 49.1786 20.7924 59.9759 34.1084 59.9759C40.659 59.9759 46.6043 57.3644 50.9486 53.1178L44.027 46.0302C41.4692 48.5294 37.9694 50.067 34.1084 50.067C26.2642 50.067 19.9089 43.7068 19.9089 35.8675V35.8724ZM64.738 59.19H55.5272L55.5418 29.0436L47.4536 25.7097L51.2463 16.533L59.4761 19.9743C63.6446 22.0585 64.7185 25.3778 64.7527 29.8783L64.7429 59.19H64.738Z" fill="#000002"></path></g><defs><clipPath id="clip0_20_547"><rect width="179.878" height="60" fill="white" transform="translate(10)"></rect></clipPath></defs></svg> 