<?xml version="1.0" encoding="UTF-8"?> <svg xmlns="http://www.w3.org/2000/svg" width="200" height="60" viewBox="0 0 200 60" fill="none"><g clip-path="url(#clip0_20_639)"><path fill-rule="evenodd" clip-rule="evenodd" d="M9 56H60.8652V4H9V56Z" fill="#004070"></path><path fill-rule="evenodd" clip-rule="evenodd" d="M35.5889 50.2129H39.2222V48.4894C40.5735 49.7379 42.4736 50.7361 45.0959 50.7361C52.1123 50.7361 55.6301 44.9876 55.6301 40.0319C55.6301 35.0761 52.1476 29.3115 45.2019 29.3115C38.2561 29.3115 35.6274 35.5223 35.6274 35.5223L38.7729 37.4031C38.7729 37.4031 40.9394 33.2979 45.1312 33.2979C49.3231 33.2979 51.756 36.9249 51.756 40.0319C51.756 43.142 49.2846 46.7272 45.0606 46.7272C42.1302 46.7272 40.4644 44.9427 39.7165 43.8482H45.0991V40.0158H35.5889V50.2129Z" fill="white"></path><path fill-rule="evenodd" clip-rule="evenodd" d="M34.2092 50.2129H30.5758V48.4894C29.2246 49.7379 27.3244 50.7361 24.7021 50.7361C17.6858 50.7361 14.168 44.9876 14.168 40.0319C14.168 35.0761 17.6505 29.3115 24.5962 29.3115C31.542 29.3115 34.1707 35.5223 34.1707 35.5223L31.0252 37.4031C31.0252 37.4031 28.8587 33.2979 24.6668 33.2979C20.475 33.2979 18.0421 36.9249 18.0421 40.0319C18.0421 43.142 20.5135 46.7272 24.7374 46.7272C27.6679 46.7272 29.3337 44.9427 30.0816 43.8482H24.6989V40.0158H34.2092V50.2129Z" fill="white"></path><path fill-rule="evenodd" clip-rule="evenodd" d="M87.5762 50.5561H92.394V38.4652H81.9882V42.6217L87.374 42.6442C86.3309 44.5283 84.9443 46.3032 82.4664 46.2808C79.7414 46.4188 77.0581 44.1207 76.9907 40.3268C76.8752 36.2152 79.7414 34.0326 82.2835 34.1225C83.853 34.1931 85.7371 35.0341 86.3052 36.7609L91.2385 34.421C89.1458 30.9449 85.7403 29.1732 82.4664 29.3112C76.3071 29.2631 71.4476 33.105 71.2422 40.1021C71.2422 46.804 76.5382 50.5529 81.1023 50.8257C83.9654 50.983 86.2827 49.8949 87.5762 48.2355V50.5561ZM95.9824 50.5753H110.275V46.0561H101.641V41.9894H108.911V37.605H101.664V34.0391H110.275V29.4492H95.9824V50.5785V50.5753ZM173.268 29.446L173.291 42.6667C173.291 47.7797 176.404 50.6877 182.153 50.5721C187.721 50.4566 190.491 48.0076 190.97 42.7116V29.4428H185.382V42.0729C185.52 44.2073 184.425 45.549 182.156 45.6164C180.044 45.6613 178.635 44.5475 178.815 42.0729V29.4428H173.271L173.268 29.446ZM121.403 39.3703C123.165 39.2098 123.942 38.3176 123.987 36.6742C124.032 35.1207 123.3 34.0904 121.403 33.9075C120.992 33.8625 120.533 33.885 120.033 33.9075H118.842V39.3254L120.604 39.3703C120.88 39.3928 121.153 39.3928 121.403 39.3703ZM121.403 29.4685C123.598 29.5391 125.361 29.7927 126.824 30.8647C128.471 32.1453 129.318 33.9075 129.318 36.1221C129.318 39.4153 127.604 41.4277 124.468 42.1595L130.573 50.5785H123.736L121.403 46.942L118.842 42.917V50.5785H113.308V29.4492H119.85C120.376 29.4492 120.902 29.4685 121.403 29.4685ZM141.669 29.5391C143.495 29.722 145.007 30.2484 146.333 31.16C148.827 33.0376 150.698 35.9199 150.817 40.0347C150.701 44.8589 148.3 47.9017 145.671 49.3653C144.551 49.9141 143.271 50.28 141.669 50.4598C140.889 50.5529 140.067 50.5753 139.153 50.5753H132.865V29.446H140.228C140.706 29.4653 141.188 29.4909 141.669 29.5359V29.5391ZM141.669 45.4559C143.656 44.9744 144.962 43.3985 144.869 39.8999C144.776 36.6068 143.588 35.0758 141.669 34.5719C141.236 34.4595 140.754 34.3889 140.273 34.3664H138.466V45.5939H140.202C140.706 45.5939 141.207 45.549 141.666 45.4591L141.669 45.4559ZM161.463 29.4685H164.663L172.414 50.5785H166.355L165.212 46.6916H157.666L156.613 50.5785H150.643L157.961 29.4685H161.46H161.463ZM161.463 42.3232H163.931L161.463 34.8672L161.303 34.3632L158.992 42.3232H161.463Z" fill="#004070"></path></g><defs><clipPath id="clip0_20_639"><rect width="181.966" height="52" fill="white" transform="translate(9 4)"></rect></clipPath></defs></svg> 