<?xml version="1.0" encoding="UTF-8"?> <svg xmlns="http://www.w3.org/2000/svg" width="200" height="60" viewBox="0 0 200 60" fill="none"><path fill-rule="evenodd" clip-rule="evenodd" d="M93.8402 32.5393H84.9116C85.25 34.4782 87.0986 35.2223 88.6996 35.2223C89.7141 35.2223 90.6159 34.9967 91.4953 34.5912L91.2475 37.2514C90.2552 37.6571 89.0605 37.815 87.8655 37.815C83.8973 37.815 81.1016 35.493 81.1016 31.5474C81.1016 28.1203 83.6041 25.5501 87.4369 25.5501C91.7658 25.5501 93.9302 28.3007 93.8402 32.5393ZM77.6968 37.5897C77.5164 37.1611 77.2457 36.4624 77.0204 35.7634L76.5018 34.0273C76.2312 33.1032 75.8705 32.7198 74.9911 32.7198H73.5031V37.5897H70.0535V21.6722H73.5031V30.4426H73.8866L77.1555 25.7757H80.9883L77.1329 30.6453H77.3359C78.869 30.6453 79.3199 31.5022 79.7034 32.7649L80.3572 34.9519C80.5825 35.7634 81.0562 36.9133 81.4166 37.5897H77.6968ZM66.649 34.9519C67.5507 34.9519 68.2948 34.7037 68.8585 34.4333L68.5429 37.2967C67.8214 37.6571 66.8066 37.8376 65.9274 37.8376C62.2071 37.8376 59.6372 35.4253 59.6372 31.6601C59.6372 27.9401 62.1622 25.5501 65.9048 25.5501C67.28 25.5501 68.3399 25.8205 69.4219 26.3165L68.4299 28.9769C67.9114 28.6614 67.19 28.4135 66.4234 28.4135C64.5296 28.4135 63.2896 29.6534 63.2896 31.6601C63.2896 33.6441 64.5971 34.9742 66.649 34.9519ZM55.06 24.2649H58.577V21.6722H55.06V24.2649ZM55.06 37.5897H58.577V25.7757H55.06V37.5897ZM94.5848 31.2093V23.1827L98.1019 21.7624V26.001H100.469L99.9956 28.6388H98.0568V31.3443C98.0568 33.9723 99.0528 35.8232 100.109 37.3094C100.633 35.11 100.912 32.8156 100.912 30.4558C100.912 14.1877 87.7241 1 71.456 1C58.2473 1 47.0694 9.69414 43.3321 21.6722H54.293L53.8647 24.8286H49.2878V37.5897H45.5449V24.8286H42.5391C42.1868 26.6503 42 28.5311 42 30.4558C42.0003 46.7241 55.188 59.9118 71.4563 59.9118C85.2642 59.9118 96.8511 50.4107 100.041 37.5897H96.5688C95.96 36.5301 94.5623 34.6135 94.5848 31.2093ZM87.5496 27.985C86.0617 27.985 85.1148 28.9544 84.8216 30.2396H90.1201C89.9396 28.8193 88.9476 27.985 87.5496 27.985Z" fill="#D52B1E"></path><path fill-rule="evenodd" clip-rule="evenodd" d="M107.59 27.0972V24.0935H108.694V27.276C108.694 28.6981 107.739 29.4046 106.347 29.4046C104.955 29.4046 104 28.6981 104 27.276V24.0935H105.104V27.0972C105.104 27.9425 105.512 28.4398 106.347 28.4398C107.183 28.4398 107.59 27.9425 107.59 27.0972ZM113.956 25.0582C114.235 24.3324 114.981 24.0039 115.756 24.0039C117.039 24.0039 117.845 24.7202 117.845 26.0528V29.3147H116.741V26.252C116.741 25.466 116.383 24.9687 115.617 24.9687C114.851 24.9687 114.483 25.4264 114.483 26.2617V29.3147H113.399V26.2617C113.399 25.4264 113.031 24.9687 112.266 24.9687C111.5 24.9687 111.152 25.4858 111.152 26.252V29.3147H110.048V26.0528C110.048 24.7202 110.853 24.0039 112.126 24.0039C112.902 24.0039 113.628 24.3324 113.916 25.0582H113.956ZM121.755 24.9689C120.731 24.9689 120.064 25.7545 120.064 26.7091C120.064 27.6939 120.711 28.4398 121.755 28.4398C122.779 28.4398 123.456 27.7338 123.456 26.7091C123.456 25.6849 122.779 24.9689 121.755 24.9689ZM124.629 29.3149H123.545V28.4796C123.108 29.0463 122.392 29.3946 121.566 29.3946C120.074 29.3946 118.911 28.3501 118.911 26.7294C118.911 25.138 120.104 24.004 121.765 24.004C123.515 24.004 124.629 25.0981 124.629 26.779V29.3149ZM133.044 25.0582C133.323 24.3324 134.069 24.0039 134.844 24.0039C136.127 24.0039 136.933 24.7202 136.933 26.0528V29.3148H135.829V26.252C135.829 25.4661 135.471 24.9687 134.705 24.9687C133.939 24.9687 133.572 25.4265 133.572 26.2618V29.3148H132.487V26.2618C132.487 25.4265 132.119 24.9687 131.354 24.9687C130.588 24.9687 130.24 25.4859 130.24 26.252V29.3148H129.136V26.0528C129.136 24.7202 129.942 24.0039 131.214 24.0039C131.99 24.0039 132.716 24.3324 133.005 25.0582H133.044ZM140.843 24.9689C139.819 24.9689 139.152 25.7546 139.152 26.7091C139.152 27.694 139.799 28.4398 140.843 28.4398C141.867 28.4398 142.544 27.7338 142.544 26.7091C142.544 25.6849 141.867 24.9689 140.843 24.9689ZM143.717 29.3149H142.633V28.4796C142.196 29.0463 141.48 29.3946 140.654 29.3946C139.162 29.3946 137.999 28.3501 137.999 26.7294C137.999 25.138 139.192 24.0041 140.853 24.0041C142.604 24.0041 143.717 25.0982 143.717 26.779V29.3149ZM147.776 25.0981C147.717 25.0783 147.468 24.9789 147.18 24.9789C146.384 24.9789 146.175 25.4762 146.175 26.3115V29.3149H145.071V26.1126C145.071 24.5114 145.966 24.004 147.15 24.004C147.528 24.004 147.935 24.1333 148.015 24.1534L147.776 25.0981ZM151.128 24.0041C151.695 24.0041 152.163 24.1236 152.61 24.3521L152.242 25.2275C151.984 25.0684 151.636 24.9391 151.258 24.9391C150.283 24.9391 149.587 25.6155 149.587 26.6994C149.587 27.704 150.184 28.4894 151.327 28.4696C151.755 28.4596 152.093 28.3404 152.342 28.191L152.262 29.1756C151.934 29.325 151.516 29.4046 151.109 29.4046C149.497 29.4046 148.423 28.3404 148.423 26.6994C148.423 25.0882 149.507 24.0041 151.128 24.0041ZM156.042 24.9689C155.018 24.9689 154.352 25.7546 154.352 26.7091C154.352 27.694 154.998 28.4398 156.042 28.4398C157.066 28.4398 157.743 27.7338 157.743 26.7091C157.743 25.6849 157.066 24.9689 156.042 24.9689ZM158.916 29.3149H157.832V28.4796C157.395 29.0463 156.679 29.3946 155.853 29.3946C154.361 29.3946 153.198 28.3501 153.198 26.7294C153.198 25.138 154.391 24.0041 156.052 24.0041C157.802 24.0041 158.916 25.0982 158.916 26.779V29.3149ZM105.681 37.859C104.646 37.859 104.139 37.2224 104.139 36.2779V30.8378H108.963L108.784 31.8321H105.333V33.8707H108.426L108.256 34.8255H105.333V36.0787C105.333 36.7056 105.611 36.8646 105.989 36.8646H108.903L108.724 37.859H105.681ZM112.455 33.5129C111.41 33.5129 110.764 34.2488 110.764 35.2434C110.764 36.2079 111.43 36.9838 112.455 36.9838C113.479 36.9838 114.155 36.2678 114.155 35.2434C114.155 34.2189 113.479 33.5129 112.455 33.5129ZM115.279 35.0743C115.279 36.8348 114.165 37.9487 112.415 37.9487C110.794 37.9487 109.61 36.8147 109.61 35.2434C109.61 33.6124 110.754 32.5481 112.295 32.5481C113.15 32.5481 113.817 32.9064 114.175 33.3837V30.8377H115.279V35.0743ZM117.597 34.6665H120.591C120.482 33.861 119.944 33.3935 119.149 33.3935C118.333 33.3935 117.767 33.9008 117.597 34.6665ZM119.129 32.5482C120.869 32.5482 121.794 33.7415 121.784 35.4822H117.597C117.687 36.5861 118.542 37.0633 119.447 37.0633C119.885 37.0633 120.263 36.9739 120.611 36.775L120.541 37.71C120.193 37.8691 119.736 37.9487 119.238 37.9487C117.568 37.9487 116.404 36.8647 116.404 35.2036C116.404 33.6621 117.528 32.5482 119.129 32.5482ZM123.914 34.8554V37.8591H122.81V34.6766C122.81 33.2545 123.764 32.5583 125.157 32.5583C126.549 32.5583 127.504 33.2545 127.504 34.6766V37.8591H126.4V34.8554C126.4 34.0101 125.992 33.5128 125.157 33.5128C124.322 33.5128 123.914 34.0101 123.914 34.8554ZM131.563 33.6422C131.503 33.6224 131.254 33.5229 130.966 33.5229C130.17 33.5229 129.962 34.0202 129.962 34.8555V37.8589H128.858V34.6566C128.858 33.0554 129.753 32.5481 130.936 32.5481C131.314 32.5481 131.722 32.6774 131.802 32.6974L131.563 33.6422ZM133.403 34.6665H136.396C136.287 33.861 135.75 33.3935 134.954 33.3935C134.139 33.3935 133.572 33.9008 133.403 34.6665ZM134.935 32.5482C136.675 32.5482 137.6 33.7415 137.59 35.4822H133.403C133.493 36.5861 134.348 37.0633 135.253 37.0633C135.69 37.0633 136.068 36.9739 136.417 36.775L136.347 37.71C135.999 37.8691 135.541 37.9487 135.044 37.9487C133.373 37.9487 132.209 36.8647 132.209 35.2036C132.209 33.6621 133.333 32.5482 134.935 32.5482ZM141.182 33.5129C140.137 33.5129 139.491 34.2488 139.491 35.2434C139.491 36.2079 140.157 36.9838 141.182 36.9838C142.206 36.9838 142.882 36.2678 142.882 35.2434C142.882 34.2189 142.206 33.5129 141.182 33.5129ZM144.006 35.0743C144.006 36.8348 142.892 37.9487 141.142 37.9487C139.521 37.9487 138.337 36.8147 138.337 35.2434C138.337 33.6124 139.481 32.5481 141.022 32.5481C141.878 32.5481 142.544 32.9064 142.902 33.3837V30.8377H144.006V35.0743Z" fill="#162056"></path></svg> 