<?xml version="1.0" encoding="UTF-8"?> <svg xmlns="http://www.w3.org/2000/svg" width="200" height="60" viewBox="0 0 200 60" fill="none"><path fill-rule="evenodd" clip-rule="evenodd" d="M15.3735 18.638C19.8905 17.4772 20.5307 20.267 20.3604 21.7847C20.0215 24.879 19.5877 25.8221 18.8951 28.7985C21.8192 24.568 25.1018 18.3465 29.8939 18.4513C31.0236 18.4251 32.1386 18.9588 32.1386 18.9588C36.2365 21.6242 32.4496 27.1367 29.352 26.6292C27.4725 26.328 27.1434 25.2539 26.9355 23.4203C26.649 22.731 25.4685 22.8407 24.812 23.5316C21.3968 27.2726 19.0261 32.5887 19.0261 32.5887C19.0261 32.5887 17.3479 36.96 15.4701 40.5505C15.4701 40.5505 14.9429 41.2758 13.6298 41.4051L9.30921 41.3592C7.87174 41.2332 8.19918 40.2279 8.19918 40.2279C8.19918 40.2279 13.345 24.7972 13.3057 23.9393C13.4023 23.4546 13.2696 22.0401 11.914 22.7163C10.1196 23.6151 10.0525 24.8545 8.11896 26.305C8.11896 26.305 7.13335 26.7716 7.13335 25.678C7.8128 23.9065 11.6161 19.5335 15.3735 18.6363M0 29.9659C0 18.9392 8.9392 10 19.9642 10C30.9892 10 39.9301 18.9392 39.9301 29.9659C39.9301 40.9925 30.9909 49.9268 19.9642 49.9268C8.93757 49.9268 0 40.9909 0 29.9659Z" fill="#D41217"></path><path fill-rule="evenodd" clip-rule="evenodd" d="M178.593 44.4304C179.225 44.284 180.07 44.2308 180.702 44.2375C181.142 44.2508 182.945 44.4304 182.945 44.4304V30.8953H183.896L187.17 34.8081L191.829 40.7306C192.7 41.8951 193.472 43.1395 194.384 44.4304C195.096 44.4304 196.081 44.2108 196.879 44.2175C197.704 44.2242 199.129 44.3839 200 44.4304L194.597 37.6895L188.954 30.5426C192.507 29.8305 196.926 27.3884 196.926 22.5705C196.926 18.3782 194.071 15.9893 187.663 15.9893H178.6V44.4304M182.952 18.3449C184.655 18.1519 187.004 18.1786 188.422 18.3982C191.283 18.8507 192.627 20.5343 192.627 23.1228C192.627 26.0508 190.518 27.9207 187.729 28.4797C185.786 28.8523 183.491 28.6793 182.952 28.6394V18.3383V18.3449ZM50.5809 44.4304C51.2064 44.284 52.0582 44.2308 52.6837 44.2375C53.1229 44.2508 54.9329 44.4304 54.9329 44.4304V30.8953H55.8778L59.1518 34.8081L63.81 40.7306C64.6883 41.8951 65.4603 43.1395 66.3719 44.4304C67.084 44.4304 68.0688 44.2108 68.854 44.2175C69.6858 44.2242 71.1033 44.3839 71.975 44.4304L66.5716 37.6895L60.9286 30.5426C64.4821 29.8305 68.9006 27.3884 68.9006 22.5705C68.9006 18.3782 66.0392 15.9893 59.6376 15.9893H50.5742V44.4304H50.5809ZM54.9329 18.3449C56.6364 18.1519 58.9855 18.1786 60.3962 18.3982C63.2643 18.8507 64.6018 20.5343 64.6018 23.1228C64.6018 26.0508 62.499 27.9207 59.7108 28.4797C57.761 28.8523 55.4653 28.6793 54.9329 28.6394V18.3383V18.3449ZM162.596 18.7908L168.199 18.7442C169.556 18.7043 173.442 19.3032 173.442 19.3032C173.402 18.8906 173.209 18.0455 173.209 17.6263C173.209 17.207 173.356 16.5083 173.402 16.0491H158.35V44.3506H173.722C173.675 43.938 173.562 43.2726 173.562 42.8533C173.562 42.4341 173.675 41.5025 173.715 41.0367C172.398 41.2496 168.724 41.5158 167.4 41.5557C164.845 41.6356 165.191 41.7221 162.596 41.6356V30.5892L166.502 30.5758C167.779 30.5758 171.22 30.7688 172.504 30.8087C172.464 30.3496 172.384 29.9437 172.344 29.4712C172.324 29.2183 172.464 28.1869 172.504 27.8542C171.24 27.9673 168.731 28.0937 167.453 28.0937L162.596 28.107V18.7908ZM151.696 15.9893C151.27 16.0292 150.498 16.1357 150.105 16.1357C149.679 16.1357 148.974 16.0292 148.588 15.9893V36.698L129.556 16.0092H127.433V44.4304C127.806 44.3839 128.092 44.3306 128.511 44.2375C129.217 44.0977 130.102 44.3839 130.534 44.4304L130.514 23.0496L148.115 42.2744C149.014 43.2526 149.433 43.7184 149.905 44.3173H151.696V15.9893ZM79.5744 18.7908L85.1774 18.7442C86.5216 18.7043 90.4212 19.3032 90.4212 19.3032C90.3746 18.8906 90.1816 18.0455 90.1816 17.6263C90.1816 17.207 90.328 16.5083 90.3746 16.0491H75.3288V44.3506H90.7007C90.6607 43.938 90.541 43.2726 90.541 42.8533C90.541 42.4341 90.6541 41.5025 90.7007 41.0367C89.3764 41.2496 85.6965 41.5158 84.3789 41.5557C81.8169 41.6356 82.1763 41.7221 79.5744 41.6356V30.5892L83.4806 30.5758C84.7582 30.5758 88.1986 30.7688 89.4762 30.8087C89.443 30.3496 89.3631 29.9437 89.3232 29.4712C89.3032 29.2183 89.443 28.1869 89.4762 27.8542C88.2119 27.9673 85.7032 28.0937 84.4255 28.0937L79.5744 28.107V18.7908ZM120.233 15.9893C119.807 16.0292 119.035 16.1357 118.643 16.1357C118.217 16.1357 117.505 16.0292 117.119 15.9893V36.698L98.0871 16.0092H95.971V44.4304C96.3436 44.3839 96.6298 44.3306 97.049 44.2375C97.7544 44.0977 98.6394 44.3839 99.0653 44.4304L99.0454 23.0496L116.646 42.2744C117.545 43.2526 117.971 43.7184 118.443 44.3173H120.233V15.9893Z" fill="#D41217"></path></svg> 