<?xml version="1.0" encoding="UTF-8"?> <svg xmlns="http://www.w3.org/2000/svg" width="214" height="202" viewBox="0 0 214 202" fill="none"><path d="M169.159 171.524C130.515 200.376 95.4627 202.555 65.7885 200.376C37.6053 198.318 -19.421 177.133 8.4933 108.457C59.2132 -16.3309 163.366 -25.8339 202.573 46.0016C230.463 97.1167 191.843 154.6 169.184 171.499L169.159 171.524Z" stroke="#FF234B" stroke-width="1.5" stroke-miterlimit="10"></path><path d="M150.19 112.287H134.527C132.921 112.287 131.621 113.698 131.621 115.438C131.621 117.177 132.921 118.588 134.527 118.588H150.271C151.804 118.588 153.059 117.303 153.171 115.672C153.296 113.813 151.91 112.287 150.19 112.287Z" fill="black"></path><path d="M136.482 83.8081L134.364 84.0645C134.364 84.0645 133.452 84.159 133.273 84.1963C132.646 84.3282 132.075 84.6481 131.635 85.1132C131.194 85.5783 130.907 86.1665 130.811 86.7991C130.714 87.4317 130.814 88.0786 131.095 88.6533C131.377 89.228 131.828 89.7032 132.387 90.0153C133.469 90.6263 135.502 90.2666 135.502 90.2666C138.02 90.0548 138.683 90.6109 138.683 93.4167V115.332C138.683 116.168 139.015 116.969 139.607 117.56C140.198 118.15 141.001 118.482 141.837 118.482H143.032C143.869 118.482 144.671 118.15 145.263 117.56C145.855 116.969 146.187 116.168 146.187 115.332V91.8548C146.187 84.8667 143.586 82.9084 136.482 83.8081Z" fill="black"></path><path d="M77.7533 83H77.7526C75.6801 83 74 84.6777 74 86.7472V115.156C74 117.225 75.6801 118.903 77.7526 118.903H77.7533C79.8258 118.903 81.5059 117.225 81.5059 115.156V86.7472C81.5059 84.6777 79.8258 83 77.7533 83Z" fill="black"></path><path d="M126.172 112.164H114.194C113.717 112.164 113.505 111.951 113.505 111.66C113.505 111.422 113.637 111.184 114.009 110.92L120.876 105.44C126.761 100.781 128.987 97.473 128.987 93.476C128.987 87.5772 124.155 84.2087 117.468 83.6805L117.209 83.671L96.1531 83.6461V89.8731C101.038 89.8878 113.706 89.9185 114.323 89.9259C118.674 89.9772 121.536 91.5251 121.536 94.0855C121.536 95.7793 120.316 97.3675 115.813 100.914L108.124 107.028C105.845 108.801 104.731 111.051 104.731 113.169C104.731 116.001 106.905 118.462 111.278 118.462H126.171C127.008 118.462 127.81 118.13 128.402 117.539C128.993 116.948 129.326 116.147 129.326 115.312C129.326 114.476 128.993 113.675 128.402 113.084C127.81 112.493 127.008 112.161 126.171 112.161L126.172 112.164Z" fill="black"></path><path d="M93.9147 84.5919L81.5594 98.5969C81.1242 99.09 80.7906 99.664 80.5776 100.286C80.3646 100.908 80.2763 101.566 80.3179 102.222C80.3594 102.878 80.53 103.519 80.8198 104.109C81.1096 104.699 81.513 105.227 82.0069 105.661L96.032 117.999C98.453 120.129 101.993 117.003 100.094 114.397C100.06 114.35 100.021 114.305 99.9885 114.26L91.4262 103.685C90.9388 103.083 90.6508 102.344 90.6019 101.572C90.5531 100.799 90.7457 100.03 91.1532 99.3719L98.3114 87.8029C98.3415 87.7538 98.3708 87.704 98.3987 87.6564C99.9533 84.83 96.0481 82.1737 93.9147 84.5919Z" fill="#E69723"></path><path d="M80.944 139C80.672 139 80.448 138.916 80.272 138.748C80.104 138.572 80.02 138.352 80.02 138.088V130.6H85.888V131.896H81.04L81.46 131.56V138.04L81.04 137.704H85.888V139H80.944ZM81.34 134.14H85.372V135.328H81.34V134.14Z" fill="#FF6400"></path><path d="M87.4614 130.6H90.0294C90.8534 130.6 91.6294 130.732 92.3574 130.996C93.0934 131.26 93.7014 131.704 94.1814 132.328C94.6614 132.952 94.9014 133.772 94.9014 134.788C94.9014 135.844 94.6614 136.688 94.1814 137.32C93.7014 137.944 93.0974 138.38 92.3694 138.628C91.6414 138.876 90.8614 139 90.0294 139H87.4614V130.6ZM90.2574 137.704C90.7694 137.704 91.2614 137.624 91.7334 137.464C92.2054 137.304 92.6054 137.012 92.9334 136.588C93.2614 136.164 93.4254 135.58 93.4254 134.836C93.4254 134.084 93.2614 133.492 92.9334 133.06C92.6054 132.62 92.2014 132.316 91.7214 132.148C91.2494 131.98 90.7614 131.896 90.2574 131.896H88.9014V137.704H90.2574Z" fill="#FF6400"></path><path d="M99.6903 139.12C98.8263 139.12 98.1383 138.964 97.6263 138.652C97.1143 138.332 96.7503 137.904 96.5343 137.368C96.3263 136.832 96.2223 136.208 96.2223 135.496V130.6H97.6623V135.388C97.6623 135.9 97.7223 136.34 97.8423 136.708C97.9703 137.068 98.1823 137.352 98.4783 137.56C98.7743 137.76 99.1783 137.86 99.6903 137.86C100.202 137.86 100.606 137.76 100.902 137.56C101.198 137.352 101.406 137.068 101.526 136.708C101.646 136.34 101.706 135.9 101.706 135.388V130.6H103.146V135.496C103.146 136.208 103.042 136.832 102.834 137.368C102.626 137.904 102.266 138.332 101.754 138.652C101.242 138.964 100.554 139.12 99.6903 139.12Z" fill="#FF6400"></path><path d="M108.797 139.12C107.925 139.12 107.161 138.936 106.505 138.568C105.857 138.2 105.353 137.692 104.993 137.044C104.641 136.388 104.465 135.636 104.465 134.788C104.465 133.948 104.641 133.204 104.993 132.556C105.353 131.9 105.857 131.392 106.505 131.032C107.161 130.664 107.925 130.48 108.797 130.48C109.549 130.48 110.221 130.62 110.813 130.9C111.405 131.172 111.889 131.56 112.265 132.064C112.649 132.568 112.901 133.156 113.021 133.828H111.521C111.353 133.18 111.029 132.68 110.549 132.328C110.077 131.968 109.493 131.788 108.797 131.788C108.221 131.788 107.717 131.912 107.285 132.16C106.853 132.4 106.521 132.748 106.289 133.204C106.057 133.66 105.941 134.196 105.941 134.812C105.941 135.436 106.057 135.976 106.289 136.432C106.521 136.88 106.853 137.224 107.285 137.464C107.717 137.696 108.221 137.812 108.797 137.812C109.493 137.812 110.081 137.636 110.561 137.284C111.041 136.924 111.361 136.428 111.521 135.796H113.033C112.897 136.46 112.641 137.044 112.265 137.548C111.889 138.044 111.405 138.432 110.813 138.712C110.221 138.984 109.549 139.12 108.797 139.12Z" fill="#FF6400"></path><path d="M115.935 131.452C116.023 131.204 116.123 131.012 116.235 130.876C116.355 130.732 116.483 130.636 116.619 130.588C116.763 130.532 116.935 130.504 117.135 130.504C117.335 130.504 117.503 130.532 117.639 130.588C117.775 130.636 117.899 130.732 118.011 130.876C118.131 131.012 118.235 131.204 118.323 131.452L121.107 139H119.595L117.135 131.896L114.651 139H113.139L115.935 131.452ZM114.723 135.736H119.511V136.96H114.723V135.736Z" fill="#FF6400"></path><path d="M125.637 139.12C124.765 139.12 124.001 138.936 123.345 138.568C122.697 138.2 122.193 137.692 121.833 137.044C121.481 136.388 121.305 135.636 121.305 134.788C121.305 133.948 121.481 133.204 121.833 132.556C122.193 131.9 122.697 131.392 123.345 131.032C124.001 130.664 124.765 130.48 125.637 130.48C126.389 130.48 127.061 130.62 127.653 130.9C128.245 131.172 128.729 131.56 129.105 132.064C129.489 132.568 129.741 133.156 129.861 133.828H128.361C128.193 133.18 127.869 132.68 127.389 132.328C126.917 131.968 126.333 131.788 125.637 131.788C125.061 131.788 124.557 131.912 124.125 132.16C123.693 132.4 123.361 132.748 123.129 133.204C122.897 133.66 122.781 134.196 122.781 134.812C122.781 135.436 122.897 135.976 123.129 136.432C123.361 136.88 123.693 137.224 124.125 137.464C124.557 137.696 125.061 137.812 125.637 137.812C126.333 137.812 126.921 137.636 127.401 137.284C127.881 136.924 128.201 136.428 128.361 135.796H129.873C129.737 136.46 129.481 137.044 129.105 137.548C128.729 138.044 128.245 138.432 127.653 138.712C127.061 138.984 126.389 139.12 125.637 139.12ZM124.701 141.496L124.449 140.836H125.517C125.701 140.836 125.837 140.804 125.925 140.74C126.021 140.684 126.069 140.592 126.069 140.464C126.069 140.328 126.025 140.232 125.937 140.176C125.857 140.12 125.725 140.092 125.541 140.092H124.965L124.845 139.852L125.073 138.856L126.033 138.868L125.697 139.864L125.289 139.636H125.817C126.201 139.636 126.501 139.708 126.717 139.852C126.941 139.996 127.053 140.224 127.053 140.536C127.053 140.864 126.933 141.104 126.693 141.256C126.461 141.416 126.125 141.496 125.685 141.496H124.701Z" fill="#FF6400"></path><path d="M132.775 131.452C132.863 131.204 132.963 131.012 133.075 130.876C133.195 130.732 133.323 130.636 133.459 130.588C133.603 130.532 133.775 130.504 133.975 130.504C134.175 130.504 134.343 130.532 134.479 130.588C134.615 130.636 134.739 130.732 134.851 130.876C134.971 131.012 135.075 131.204 135.163 131.452L137.947 139H136.435L133.975 131.896L131.491 139H129.979L132.775 131.452ZM131.563 135.736H136.351V136.96H131.563V135.736ZM134.827 129.724C134.635 129.724 134.471 129.692 134.335 129.628C134.199 129.564 134.063 129.476 133.927 129.364L133.903 129.352L133.855 129.316C133.743 129.228 133.643 129.16 133.555 129.112C133.475 129.064 133.387 129.04 133.291 129.04C133.131 129.04 133.015 129.092 132.943 129.196C132.871 129.3 132.827 129.448 132.811 129.64H132.103C132.055 129.144 132.127 128.768 132.319 128.512C132.511 128.248 132.815 128.116 133.231 128.116C133.415 128.116 133.579 128.148 133.723 128.212C133.875 128.276 134.019 128.364 134.155 128.476L134.167 128.488L134.239 128.548C134.335 128.628 134.419 128.692 134.491 128.74C134.571 128.78 134.655 128.8 134.743 128.8C134.879 128.8 134.967 128.752 135.007 128.656C135.055 128.552 135.087 128.396 135.103 128.188H135.823C135.871 128.7 135.811 129.084 135.643 129.34C135.483 129.596 135.211 129.724 134.827 129.724Z" fill="#FF6400"></path><path d="M142.477 139.12C141.605 139.12 140.841 138.936 140.185 138.568C139.537 138.2 139.033 137.692 138.673 137.044C138.321 136.388 138.145 135.636 138.145 134.788C138.145 133.948 138.321 133.204 138.673 132.556C139.033 131.9 139.537 131.392 140.185 131.032C140.841 130.664 141.605 130.48 142.477 130.48C143.341 130.48 144.097 130.664 144.745 131.032C145.393 131.392 145.893 131.9 146.245 132.556C146.597 133.204 146.773 133.948 146.773 134.788C146.773 135.636 146.597 136.388 146.245 137.044C145.893 137.692 145.393 138.2 144.745 138.568C144.097 138.936 143.341 139.12 142.477 139.12ZM142.477 137.812C143.053 137.812 143.553 137.696 143.977 137.464C144.401 137.224 144.725 136.88 144.949 136.432C145.181 135.976 145.297 135.436 145.297 134.812C145.297 134.188 145.181 133.648 144.949 133.192C144.725 132.736 144.401 132.388 143.977 132.148C143.553 131.908 143.053 131.788 142.477 131.788C141.893 131.788 141.385 131.908 140.953 132.148C140.529 132.388 140.201 132.74 139.969 133.204C139.737 133.66 139.621 134.196 139.621 134.812C139.621 135.436 139.737 135.976 139.969 136.432C140.201 136.88 140.529 137.224 140.953 137.464C141.385 137.696 141.893 137.812 142.477 137.812Z" fill="#FF6400"></path></svg> 