<?xml version="1.0" encoding="UTF-8"?> <svg xmlns="http://www.w3.org/2000/svg" width="1920" height="932" viewBox="0 0 1920 932" fill="none"><g clip-path="url(#clip0_11_2)"><path d="M1612.66 726.243C1571.22 703.268 1618.81 683.725 1636.54 651.735C1654.27 619.746 1632.17 548.042 1673.61 571.044C1715.05 594.019 1740.65 624.506 1723.93 670.521C1709.35 710.683 1654.08 749.229 1612.64 726.255L1612.66 726.243Z" stroke="#FF234B" stroke-width="1.5" stroke-miterlimit="10"></path><path d="M1468.68 754.996C1390.16 672.832 1497.17 659.075 1559.8 599.068C1622.43 539.061 1636.72 363.559 1715.24 445.722C1793.76 527.886 1811.51 634.298 1748.99 703.098C1689.04 769.079 1547.2 837.159 1468.68 754.996Z" stroke="#FF234B" stroke-width="1.5" stroke-miterlimit="10"></path><path d="M1324.67 783.745C1209.05 642.404 1375.52 634.437 1483.02 546.409C1590.53 458.396 1641.24 179.071 1756.86 320.412C1872.48 461.753 1881.5 643.373 1774.01 735.7C1667.89 826.831 1440.27 925.097 1324.67 783.745Z" stroke="#FF234B" stroke-width="1.5" stroke-miterlimit="10"></path><path d="M1180.69 812.496C1028 611.981 1253.92 609.789 1406.28 493.768C1558.65 377.746 1645.8 -5.39765 1798.49 195.117C1951.17 395.632 1951.43 652.255 1799.04 768.288C1646.66 884.321 1333.38 1013.03 1180.69 812.496Z" stroke="#FF234B" stroke-width="1.5" stroke-miterlimit="10"></path></g><defs><clipPath id="clip0_11_2"><rect width="1920" height="932" fill="white"></rect></clipPath></defs></svg> 